<svg height="147" width="147" xmlns="http://www.w3.org/2000/svg">
<g fill="#231F20">
<path d="M73.75.5c-6.92 0-13.607.98-19.953 2.773l19.777 7.483-5.271 6.324 9.487 9.486 1.054-10.541 16.864 9.486-15.81 31.62-6.324-5.274-10.54 4.208-5.271 2.091 14.757 5.486L80.953 77h12.648l12.646 2.716 12.646 4.95L121 89.873l9.479-1.085 5.256 6.309-12.678 23.182-25.355 18.969-1.071 6.091c29.246-9.611 50.37-37.125 50.37-69.587C147 33.296 114.205.5 73.75.5z"/>
<path d="M90 136.189l4.963-12.648 2.729-8.432-15.75-16.864 4.245-14.755-10.529-1.05-4.217-6.315L48.24 60.33 37.669 35.066l4.151-17.853-13.501-.9C11.379 29.729.5 50.463.5 73.75c0 40.455 32.545 73.25 73 73.25 5.766 0 11.5-.688 16.5-1.947v-8.864z"/>
</g>
</svg>

