<svg xmlns="http://www.w3.org/2000/svg" width="193.931" height="122.123" viewBox="0 0 51.311 32.312"><path d="M1.187 31.324s8.11-.106 12.553-1.817c4.443-1.712-1.623-2.851-1.623-2.851s-11.566-.812-10.93 4.668z" fill="#dfb232"/><path d="M50.074 30.168s-1.01 1.302-1.924 1.302c-.912 0-4.466-.146-6.318-.723-1.852-.576-10.932-1.013-10.932-1.013s-12.86.048-13.293-.386c-.434-.434-7.996-2.747-8.766-2.601-.161.032-.555.1-1.082.188l-.603.098a83.12 83.12 0 01-3.096.439c-1.288.15-2.42.227-2.78.095V26.46s1.492-2.17 1.587-2.792c.095-.622 1.35-9.636 4.625-12.861a12.912 12.912 0 016.212-5.821 191.203 191.203 0 018.864-3.564l.775-.111 2.5-.37a1.886 1.886 0 01.246-.207c.694-.529 2.794-1.68 5.533.794l.484.772s8.427 1.974 12.327 8.861c3.9 6.887 4.096 13.632 4.384 16.714 0 0-.193.868.193 1.204a5.4 5.4 0 01.4.392c.034.034.069.068.1.105.111.111.215.228.3.323a.124.124 0 01.026.027.847.847 0 00.066.071z" fill="#fed253"/><path d="M50.074 30.168s-1.01 1.302-1.924 1.302c-.912 0-4.466-.146-6.318-.723-1.852-.576-10.932-1.013-10.932-1.013s-12.86.048-13.293-.386c-.434-.434-7.996-2.747-8.766-2.601-.161.032-.555.1-1.082.188l-.138-.847-.034-.209s14.595-3.13 24.323-1.49c9.729 1.64 16.907 3.467 16.907 3.467s-.193.867.193 1.203a5.4 5.4 0 01.4.392c.034.034.069.069.1.106.111.11.215.227.3.323a.124.124 0 01.026.026.878.878 0 00.066.071z" opacity=".05"/><path d="M48.748 32.285c-1.801.14-5.122-.3-6.575-.514-.412-.06-.817-.135-1.225-.225-1.558-.338-6.35-1.288-9.26-.849-3.516.53-13.438-.434-13.438-.434s-6.117-1.251-8.575-2.262c-.903-.373-2.41-.49-3.91-.304a10.888 10.888 0 00-1.139.203c-2.047.485-3.775 1.588-3.476 3.47a4.419 4.419 0 01-.318-.432c-.13-1.72.405-2.744 1.146-3.347l.175-.071a21.368 21.368 0 012.757-.59c.145-.024.296-.045.45-.064 2.632-.355 6.44-.434 9.651 1.183 0 0 2.985 1.4 5.009 1.4 2.024 0 18.494.145 22.35 1.25a16.404 16.404 0 002.34.496 9.525 9.525 0 004.181-.395 4.953 4.953 0 01-.143 1.485z" opacity=".1"/><path d="M50.074 30.168s-1.01 1.302-1.924 1.302c-.912 0-4.466-.146-6.318-.723-1.852-.576-10.932-1.013-10.932-1.013s-12.86.048-13.293-.386c-.434-.434-7.996-2.747-8.766-2.601-.161.032-.555.1-1.082.188l-.603.098a10.742 10.742 0 00-3.096.439c-1.288.15-2.42.227-2.78.095v-.22a6.35 6.35 0 01.865-.417 23.4 23.4 0 015.476-.852c2.31-.085 5.012.185 7.385 1.38 0 0 2.985 1.4 5.009 1.4 2.024 0 18.494.143 22.349 1.252a16.753 16.753 0 002.341.492 9.737 9.737 0 005.104-.733.124.124 0 01.027.027.878.878 0 00.066.071z" opacity=".1"/><path d="M1.187 31.324s-3.228-2.458.963-4.096c0 0 7.32-2.262 12.861.53 0 0 2.985 1.394 5.009 1.394 2.024 0 18.494.146 22.35 1.254a16.669 16.669 0 002.34.492 9.967 9.967 0 005.946-1.13c.265-.145.503-.22.574-.134.24.29.05 1.976-2.069 2.312-1.654.265-5.41-.235-6.99-.466-.41-.06-.818-.137-1.223-.225-1.558-.338-6.35-1.288-9.273-.849-3.514.53-13.438-.434-13.438-.434s-6.115-1.251-8.573-2.265c-2.458-1.013-9.393-.14-8.477 3.617z" fill="#fed253"/><path d="M28.4 5.498c-.265-.38-3.665-3.103-5.052-4.204l2.5-.37a1.886 1.886 0 01.247-.207c1.817 1.908 2.304 4.781 2.304 4.781zM20.597 19.765l-3.226.336-1.108 1.637 4.238-.143zM45.258 22.22l-2.024-.143.482 1.492 2.699.434zM32.41 5.63l-.304-3.33c.09-.063 2.268.824 2.373.773z" opacity=".1"/></svg>