<?xml version="1.0" encoding="UTF-8" standalone="no"?>
<!-- Created with Inkscape (http://www.inkscape.org/) -->

<svg
   xmlns:dc="http://purl.org/dc/elements/1.1/"
   xmlns:cc="http://creativecommons.org/ns#"
   xmlns:rdf="http://www.w3.org/1999/02/22-rdf-syntax-ns#"
   xmlns:svg="http://www.w3.org/2000/svg"
   xmlns="http://www.w3.org/2000/svg"
   xmlns:sodipodi="http://sodipodi.sourceforge.net/DTD/sodipodi-0.dtd"
   xmlns:inkscape="http://www.inkscape.org/namespaces/inkscape"
   width="51.310925mm"
   height="32.311745mm"
   viewBox="0 0 51.310925 32.311745"
   version="1.1"
   id="svg1095"
   inkscape:version="0.92.4 5da689c313, 2019-01-14"
   sodipodi:docname="logo.svg">
  <defs
     id="defs1089" />
  <sodipodi:namedview
     id="base"
     pagecolor="#ffffff"
     bordercolor="#666666"
     borderopacity="1.0"
     inkscape:pageopacity="0.0"
     inkscape:pageshadow="2"
     inkscape:zoom="6.9973323"
     inkscape:cx="96.965525"
     inkscape:cy="61.061564"
     inkscape:document-units="mm"
     inkscape:current-layer="layer1"
     showgrid="false"
     inkscape:window-width="1920"
     inkscape:window-height="1054"
     inkscape:window-x="0"
     inkscape:window-y="0"
     inkscape:window-maximized="0" />
  <g
     inkscape:label="Layer 1"
     inkscape:groupmode="layer"
     id="layer1"
     transform="translate(-65.81478,-116.52603)">
    <path
       inkscape:connector-curvature="0"
       style="fill:#dfb232;fill-opacity:1;stroke-width:0.37367901"
       d="m 67.001603,147.85024 c 0,0 8.110647,-0.10617 12.553423,-1.81765 4.442779,-1.71147 -1.623015,-2.85071 -1.623015,-2.85071 0,0 -11.566417,-0.81192 -10.930408,4.66836 z"
       id="path909"
       sodipodi:nodetypes="cscc" />
    <path
       inkscape:connector-curvature="0"
       style="fill:#fed253;stroke-width:0.26458332"
       d="m 115.88867,146.69401 c 0,0 -1.01071,1.30175 -1.92352,1.30175 -0.91282,0 -4.46617,-0.14552 -6.31825,-0.72231 -1.85209,-0.57679 -10.932589,-1.01335 -10.932589,-1.01335 0,0 -12.858749,0.0476 -13.292666,-0.38629 -0.433917,-0.43392 -7.995708,-2.74638 -8.765646,-2.60086 -0.161396,0.0318 -0.555625,0.10054 -1.082146,0.18786 l -0.60325,0.0979 c -0.912812,0.14552 -2.053166,0.31485 -3.095625,0.4392 -1.28852,0.15082 -2.420937,0.22755 -2.78077,0.0953 v -1.1086 c 0,0 1.49225,-2.16958 1.5875,-2.79136 0.09525,-0.62177 1.349375,-9.63612 4.624916,-12.8614 a 12.911667,12.911667 0 0 1 6.212417,-5.82083 c 4.431771,-1.92881 8.863541,-3.56394 8.863541,-3.56394 l 0.77523,-0.11112 2.500312,-0.37042 a 1.8864792,1.8864792 0 0 1 0.246063,-0.20637 c 0.693208,-0.52917 2.793999,-1.68011 5.532437,0.79375 l 0.484187,0.77258 c 0,0 8.426979,1.97379 12.326939,8.8609 3.89996,6.8871 4.09575,13.63133 4.38415,16.71373 0,0 -0.19315,0.86783 0.19314,1.20385 a 5.4001458,5.4001458 0 0 1 0.39952,0.39159 c 0.0344,0.0344 0.0688,0.0688 0.10054,0.10583 0.11113,0.11113 0.21432,0.22754 0.29898,0.32279 a 0.12435417,0.12435417 0 0 1 0.0265,0.0265 0.84666667,0.84666667 0 0 0 0.0661,0.0714 z"
       id="path955" />
    <path
       inkscape:connector-curvature="0"
       style="opacity:0.05;stroke-width:0.26458332"
       d="m 115.88867,146.69401 c 0,0 -1.01071,1.30175 -1.92352,1.30175 -0.91282,0 -4.46617,-0.14552 -6.31825,-0.72231 -1.85209,-0.57679 -10.932589,-1.01335 -10.932589,-1.01335 0,0 -12.858749,0.0476 -13.292666,-0.38629 -0.433917,-0.43392 -7.995708,-2.74638 -8.765646,-2.60086 -0.161396,0.0318 -0.555625,0.10054 -1.082146,0.18786 l -0.137583,-0.84667 -0.0344,-0.20902 c 0,0 14.594417,-3.13003 24.323146,-1.48961 9.728734,1.64042 16.906874,3.46605 16.906874,3.46605 0,0 -0.19314,0.86783 0.19315,1.20385 a 5.4001458,5.4001458 0 0 1 0.39952,0.39158 c 0.0344,0.0344 0.0688,0.0688 0.10054,0.10584 0.11113,0.11112 0.21431,0.22754 0.29898,0.32279 a 0.12435417,0.12435417 0 0 1 0.0265,0.0265 0.87841667,0.87841667 0 0 0 0.0661,0.0714 z"
       id="path957" />
    <path
       inkscape:connector-curvature="0"
       style="opacity:0.1;stroke-width:0.26458332"
       d="m 114.5631,148.81068 c -1.80181,0.14023 -5.12233,-0.29898 -6.57489,-0.51329 -0.41275,-0.0609 -0.81756,-0.13494 -1.22502,-0.2249 -1.5584,-0.33866 -6.35,-1.28852 -9.26042,-0.84931 -3.516313,0.52917 -13.438188,-0.43392 -13.438188,-0.43392 0,0 -6.117166,-1.25148 -8.575145,-2.26218 -0.902229,-0.37307 -2.410354,-0.48948 -3.910542,-0.30427 a 10.887604,10.887604 0 0 0 -1.137708,0.20372 c -2.047875,0.48419 -3.775604,1.5875 -3.476625,3.46869 a 4.4185417,4.4185417 0 0 1 -0.3175,-0.43127 c -0.129646,-1.71979 0.404812,-2.74373 1.145646,-3.34698 v 0 l 0.174625,-0.0714 a 21.36775,21.36775 0 0 1 2.756958,-0.59002 c 0.145521,-0.0238 0.296333,-0.045 0.449792,-0.0635 2.632604,-0.35454 6.439958,-0.43392 9.651999,1.18269 0,0 2.9845,1.39965 5.008563,1.39965 2.024062,0 18.494375,0.14552 22.349355,1.25147 a 16.404167,16.404167 0 0 0 2.34156,0.49478 9.525,9.525 0 0 0 4.18042,-0.39423 4.953,4.953 0 0 1 -0.14288,1.48431 z"
       id="path959" />
    <path
       inkscape:connector-curvature="0"
       style="opacity:0.1;stroke-width:0.26458332"
       d="m 115.88867,146.69401 c 0,0 -1.01071,1.30175 -1.92352,1.30175 -0.91282,0 -4.46617,-0.14552 -6.31825,-0.72231 -1.85209,-0.57679 -10.932589,-1.01335 -10.932589,-1.01335 0,0 -12.858749,0.0476 -13.292666,-0.38629 -0.433917,-0.43392 -7.995708,-2.74638 -8.765646,-2.60086 -0.161396,0.0318 -0.555625,0.10054 -1.082146,0.18786 l -0.60325,0.0979 a 10.742083,10.742083 0 0 0 -3.095625,0.4392 c -1.28852,0.15082 -2.420937,0.22755 -2.78077,0.0953 v -0.2196 a 6.35,6.35 0 0 1 0.865187,-0.41804 23.39975,23.39975 0 0 1 5.476875,-0.85196 c 2.309813,-0.0847 5.011208,0.18521 7.384521,1.38112 0,0 2.9845,1.39965 5.008562,1.39965 2.024063,0 18.494377,0.14288 22.349357,1.25148 a 16.753417,16.753417 0 0 0 2.34156,0.49212 9.7366667,9.7366667 0 0 0 5.10381,-0.73289 0.12435417,0.12435417 0 0 1 0.0265,0.0265 0.87841667,0.87841667 0 0 0 0.0661,0.0714 z"
       id="path961" />
    <path
       inkscape:connector-curvature="0"
       style="fill:#fed253;stroke-width:0.26458332"
       d="m 67.001603,147.85024 c 0,0 -3.227916,-2.45798 0.963084,-4.09575 0,0 7.321021,-2.26219 12.861395,0.52917 0,0 2.9845,1.39435 5.008563,1.39435 2.024062,0 18.494375,0.14552 22.349355,1.25413 a 16.66875,16.66875 0 0 0 2.34156,0.49212 9.9668542,9.9668542 0 0 0 5.94519,-1.12977 c 0.26458,-0.14552 0.50271,-0.2196 0.57415,-0.13493 0.24077,0.29104 0.0503,1.97643 -2.06905,2.31245 -1.65364,0.26459 -5.41073,-0.23548 -6.99029,-0.46566 -0.4101,-0.0609 -0.81756,-0.13759 -1.22237,-0.2249 -1.5584,-0.33867 -6.35,-1.28852 -9.27365,-0.84931 -3.513666,0.52917 -13.438187,-0.43392 -13.438187,-0.43392 0,0 -6.114521,-1.25148 -8.5725,-2.26483 -2.457979,-1.01336 -9.392708,-0.14023 -8.47725,3.61685 z"
       id="path963" />
    <path
       inkscape:connector-curvature="0"
       style="opacity:0.1;stroke-width:0.26458332"
       d="m 94.213999,122.02426 c -0.264584,-0.381 -3.664479,-3.10356 -5.050896,-4.20423 l 2.500313,-0.37042 a 1.8864792,1.8864792 0 0 1 0.246062,-0.20637 c 1.817687,1.90764 2.304521,4.78102 2.304521,4.78102 z"
       id="path965" />
    <polygon
       transform="matrix(0.26458333,0,0,0.26458333,25.316499,112.74532)"
       style="opacity:0.1"
       points="230.91,88.99 218.72,90.26 214.53,96.45 230.55,95.91 "
       id="polygon967" />
    <polygon
       transform="matrix(0.26458333,0,0,0.26458333,25.316499,112.74532)"
       style="opacity:0.1"
       points="324.12,98.27 316.47,97.73 318.29,103.37 328.49,105.01 "
       id="polygon969" />
    <path
       inkscape:connector-curvature="0"
       style="opacity:0.1;stroke-width:0.2635313"
       d="m 98.224993,122.1551 -0.304182,-3.3296 v 0 c 0.09072,-0.0629 2.267849,0.82468 2.372579,0.77342 z"
       id="path965-0"
       sodipodi:nodetypes="ccccc" />
  </g>
</svg>
