<svg version="1" xmlns="http://www.w3.org/2000/svg" width="2069.333" height="2069.333" viewBox="0 0 1552.000000 1552.000000"><path d="M835 290c-4.7 1-8.5 1.9-8.5 2 0 .1-.7.3-1.6.5-3.3.6-14.4 4.9-15 5.8-.3.5-.9.9-1.2.9-1.9 0-4.7 1.2-4.7 1.9 0 .5-.5.9-1.1.9-1.2 0-13.7 7.9-15.9 10.1-3.9 3.9-7.5 5.1-20 6.5-.8.1-1.7.3-2 .4-.3.1-2.1.3-4 .5s-5.1.6-7 .9c-4.7.8-9.7 1.6-14.2 2.1-2 .2-4.9.7-6.5 1-1.5.3-4.6.7-6.8 1-6.2.8-10.9 1.5-13.5 2-1.3.3-4.2.7-6.5 1-2.2.4-5.1.8-6.5 1-1.4.2-4.5.7-7 1-8.4 1.1-10 1.5-15.8 3.7-3.1 1.2-5.9 2.2-6.2 2.3-.6 0-6.6 2.3-9.5 3.6-2 .8-13.6 5.2-14.5 5.4-.3.1-1.4.5-2.5 1-11.1 4.5-22 8.5-23.1 8.5-.8 0-1.4.5-1.4 1 0 .6-.3.9-.7.8-.8-.3-5 1.2-11 3.8-1.7.8-3.7 1.4-4.5 1.4-.8 0-1.9.5-2.6 1.2-.6.6-1.8 1.3-2.6 1.4-.8.1-7.4 2.6-14.7 5.5-20.4 8-40.2 15.9-42.4 16.9-3.3 1.5-31.9 13.1-33 13.4-1.2.4-6 2.3-10 4.1-9.5 4.3-37.2 15.5-38.3 15.5-.6 0-1.2.4-1.2 1 0 .5-.3.9-.7.8-.5-.1-1.7.3-2.8.9-1.1.6-2.3 1.2-2.7 1.2-1.6.3-4.5 1.4-9.8 3.9-3 1.4-5.7 2.6-6 2.6-1.1.2-16.6 6.8-18 7.7-.8.5-2.2 1.2-3 1.5-.8.3-3.1 1.3-5 2.2-1.9.9-3.7 1.7-4 1.7-1.5.2-8.6 4-9.2 4.9-.4.6-.8.8-.8.4s-3.1 1.1-7 3.3c-3.8 2.1-7.4 3.9-7.9 3.9s-1.6.6-2.3 1.3c-.7.7-4 2.8-7.3 4.7-3.3 1.9-6.1 3.7-6.3 4.2-.2.4-.8.8-1.4.8-.8 0-16.3 10.2-20.3 13.3-.5.4-3.7 2.8-7 5.3-11.1 8.5-12.9 9.9-16.7 13.5-2.1 2-3.8 3.5-3.8 3.2 0-1.9-34.4 33-42 42.7-1.4 1.8-3.6 4.4-5 6-4 4.5-6 7-6 7.5s-2.5 3.7-4.7 6c-.7.8-1.3 1.6-1.3 2 0 .4-.6 1.3-1.2 2-2.7 3-3.8 4.4-3.8 4.9 0 .6-6.1 9.8-7.1 10.6-1 1-8 12.9-7.9 13.6.1.4-.2 1-.7 1.3-.5.3-3 4.3-5.6 8.9-2.6 4.6-6.4 10.2-8.6 12.5-6.4 6.8-9.2 10.1-17.6 21.2-6.6 8.9-5 6.4-16.1 24.7-4.2 6.9-7.6 13-7.5 13.4.2.4-.1 1-.7 1.3-.5.3-2.9 4.6-5.3 9.6-2.4 4.9-4.6 9.2-4.9 9.5-.3.3-1 1.8-1.7 3.5-2.8 7.3-10.9 25.1-11.6 25.6-.5.3-.8 1-.8 1.5.1 1.2-.8 4.4-1.9 6.9-3.5 7.6-16.3 43.2-18.4 51-.1.5-1.3 4.1-2.5 8-3.7 11.4-8.2 26.8-8.6 29.2-.2 1.2-.6 2.7-1 3.2-.3.6-.8 1.9-1 2.9-.1.9-.8 3.7-1.5 6.2s-1.4 5.2-1.5 6c-.2.8-.4 1.5-.5 1.5-.2 0-.7 1.9-1.5 5.7-.3 1.5-1 3.9-1.5 5.3s-.7 2.5-.5 2.5c.2 0 0 1.2-.6 2.7-.6 1.6-1.3 3.9-1.5 5.3-.1 1.4-.8 4.3-1.4 6.5-.6 2.2-1.3 5.1-1.6 6.5-.3 1.3-1.4 6.1-2.4 10.6-1.1 4.5-2.2 9.7-2.5 11.6-.3 1.8-1.2 6.1-2 9.4-.8 3.4-1.6 7.4-1.9 8.8-.3 1.4-.7 2.9-1 3.4-.2.4-.7 2.8-1 5.2-.3 2.5-1.2 7.6-2 11.5-1.4 6.8-2.1 10.7-3.2 17-.3 1.6-.9 5.2-1.4 8-.5 2.7-1.2 6.3-1.4 8-.3 1.6-.8 4.8-1.2 7-.4 2.2-.7 4.8-.6 5.7 0 1-.4 2-.9 2.3-.5.4-.7 1-.4 1.4.4.7.1 3-1.9 15.1-.4 1.9-1 4.4-1.5 5.5-5.9 12.9-7.7 16.4-9.2 18.6-1 1.4-1.6 2.8-1.3 3.1.2.3-.2 1.1-1.1 1.8-.8.7-1.5 1.6-1.5 2.1 0 .7-5.9 10.8-7 11.9-.5.5-1.8 2.7-4.4 7.5-.6 1.1-1.3 2.2-1.6 2.5-.3.3-2.6 3.8-5 7.7-2.5 4-4.8 7.3-5.3 7.3-.4 0-.5.5-.2 1 .3.6.1 1-.4 1-.6 0-1.1.4-1.1.9 0 .4-2 3.8-4.3 7.3-4.2 6.2-5 8.9-3.4 11.5.4.6.4 1.4 0 1.6-1.4.9-.8 26 .6 26.5 1.6.5-1.7 3.1-4 3.2-.9 0-1.9.7-2.3 1.5-.3.8-1.2 1.5-2.1 1.5-.8 0-1.5.4-1.5.8 0 .5-1.1 1.4-2.4 2-3.5 1.5-14.8 12.4-18.2 17.4-1.6 2.4-3.3 4.6-3.9 5-.5.4-.7.8-.2.8.4 0 .1 1-.7 2.2-4.3 6.8-5.6 21.5-2.8 31.7 1.4 5 9.4 21.9 11.1 23.1.3.3 2 2.3 3.6 4.5 3.9 5.2 15.5 16.9 18.3 18.4 1.6.8 7.3 1 19.5.7 21.3-.7 38.8-1.5 44.7-2.2 4.4-.4 5.7-.5 8.3-.3.6 0 5-.2 9.7-.5 4.7-.3 11.7-.8 15.5-1.1 3.9-.2 7-.5 7-.5s3.2-.3 7-.5c3.9-.3 9.5-.7 12.5-1.1 3-.3 8-.7 11-.9 5.3-.4 11.8-1 20.5-2.1 2.2-.2 6.5-.6 9.5-.9 3-.2 6.4-.6 7.5-.8 1.1-.3 5.4-.8 9.5-1.1 4.1-.4 8.4-.9 9.5-1.1 1.1-.3 4.7-.7 7.9-1 3.2-.3 6.2-.7 6.5-.9.6-.3 10.4-1.6 16.6-2.2 1.7-.1 3-.3 3-.4 0-.1 1.4-.4 3-.5 2.7-.3 4.3-.5 11.1-1.9 1.2-.2 4.5-.7 7.4-1.1 2.9-.4 6.2-.9 7.4-1.2 1.2-.3 3.1-.5 4.4-.6 1.2-.1 2.2-.3 2.2-.7 0-.3 1-.5 2.3-.6 2.1 0 6.1-.7 11.7-1.9 1.4-.3 3.9-.7 5.5-1 1.7-.2 7.3-1.4 12.5-2.5 5.2-1.2 10.2-2.3 11-2.5 1.4-.3 13.9-3.2 17-4 .8-.2 3-.8 4.8-1.4 1.7-.5 3.2-.8 3.2-.6 0 .2 1.7-.3 3.8-1.2 2-.8 3.9-1.5 4.2-1.4.3 0 2.3-.5 4.5-1.1 2.2-.6 4.7-1.2 5.5-1.4 4.5-.7 36.9-12.3 44.8-16 2.9-1.4 5.8-2.2 6.4-1.8.6.4.8.3.5-.3-1-1.5 6.5-4.1 9.1-3.2 1.2.5 3.2 1 4.4 1.2 7.7 1.2 14.8 3.1 14.8 3.8 0 .5.7.6 1.5.3.8-.4 2.3-.3 3.3.1.9.5 2.6 1 3.7 1.1 1.1.2 3.1.7 4.5 1.1 3.4.9 4.1 1 7.3 1.1 1.9.1 2.6.6 2.1 1.4-.4.6-.3.9.2.5.5-.3 2.9-.1 5.4.4 2.5.5 6.1 1.2 8 1.5 1.9.4 4.3 1.1 5.3 1.6s2.1.7 2.4.4c.3-.2 1.7 0 3.2.6 1.4.6 3.7 1.2 5.1 1.3 1.4.2 2.9.3 3.3.4.5.1.5.5.2 1.1-.4.7.3.7 1.9 0 2.3-.9 2.9-.6 2.8 1.1 0 .3 1.3.4 2.9.3 1.6-.1 5.4.4 8.4 1.1 3 .7 5.7 1 6 .7.3-.3.5-.1.5.5s1 .9 2.3.9c1.2-.1 2.7 0 3.2.3 1.6.9 9.7 2 16.3 2.3 1.7.1 3.2.6 3.2 1.2s.4.5.9-.3c.7-1 1.3-1.2 2.3-.5.7.6 3.2 1 5.6.9 2.4-.1 4.5.3 4.8.7.3.5 1.2.4 2-.3.8-.6 1.4-.7 1.4-.2 0 .5 1.2.8 2.8.7 1.5 0 3 .4 3.4 1 .5.7.8.7.8-.2 0-.7.5-1 1.1-.6.7.4 4.2.8 7.8 1 22.3 1.2 23.2 1.3 24.3 2.9.5.6.8.5.8-.3 0-.7.4-1.1.9-.8.5.3 3.7.7 7.2.8 3.5.1 6.7.7 7.1 1.3.5.6.8.5.8-.3 0-.7.5-1 1.1-.7 1.1.7 10.5 1.5 17.6 1.4 2.3 0 4.4.5 4.8 1.1.4.7 1.2.7 2.4 0 1.1-.5 3.1-.6 4.7-.1 1.6.4 4.6.7 6.7.6 2.1-.1 4 .2 4.3.7.3.4 1.3.4 2.3-.2 1-.5 2.1-.7 2.3-.4.3.3 3.4.7 6.9.9 3.5.2 11.1.7 16.9 1 5.8.4 13.4.9 17 1 3.6.2 6.5.4 6.5.5 0 .7 4.7.5 5.1-.2.3-.4 1-.5 1.6-.2.6.4 2.3.8 3.7 1 4.4.5 45.8 2.1 59.4 2.3 2.9.1 4.6.5 4.2 1.1-.3.5-.1 1 .4 1 .6 0 1.1-.4 1.1-.9 0-1 11.5-.9 12.6.1.3.4 1.5.3 2.5-.2 1.2-.7 2-.7 2.4 0 .4.7 1.2.7 2.5 0 1.2-.6 2.1-.7 2.5 0 .3.5 1.1.7 1.8.5 2.6-1 8.7-1.2 8.7-.3 0 .5.8.4 1.9-.1 1-.6 2.2-.7 2.6-.3 1 1.1 7.9.8 8.7-.3.5-.7.8-.6.8.1 0 1.1 5.5 1.2 6.6.1.4-.3 1.5-.2 2.5.4 1.3.7 1.9.6 1.9-.1s.5-.8 1.3-.3c.6.4 2.1.8 3.2.8s2.6.5 3.4.9c1 .6 1.2.5.7-.2-.7-1.1.7-1.7 2.9-1.2 3.1.7 7.5.5 7.5-.4 0-.6.5-.4 1 .4.9 1.3 1 1.3 1 0 0-.9.3-1.1.8-.5.9 1.3 4.2 1.5 4.2.3 0-.6.6-.5 1.5.2 1.2 1 1.5 1 1.5 0 0-.9.3-1 1.3-.1.8.6 1.7.8 2 .5.3-.4 5.5-.8 11.4-1 21.6-.7 40.7-2.4 41.2-3.5.1-.6 1-.2 1.8.8s1.2 1.2.8.5c-.4-.7 0-1.2.9-1.2h1.9c.1-.1 1.9-.5 4-.9 2.2-.6 3.9-.5 4.3.1.3.5 1.1.4 2-.3.7-.6 2-.9 2.8-.6.8.3 1.7.3 2-.1.4-.3 3.4-.7 6.8-.9 3.4-.2 6.3-.5 6.6-.8.3-.2 1.3 0 2.3.5 1 .6 2 .6 2.3.2.8-1.4 19.8-1.3 21.5.1 1 .8 1.3.8.8.1-.7-1.2 4.8-2.6 5.8-1.6.3.3 3.2.5 6.5.5s6 .5 6 1c0 .6.5.6 1.3 0 .6-.5 3-.8 5.2-.7 7.6.4 22 1.4 25.8 1.9 2.7.3 3.6.1 3-.8-.4-.8-.1-.8.9.1.9.7 5.2 1.5 9.5 1.8 12.5.8 17.8 1.3 17.8 1.4 0 .3 15.2 2.1 19.3 2.3.6 0 1.2.5 1.2 1s.6.4 1.3-.2c.8-.6 1.7-.7 2.1-.3.4.4 2 .8 3.4.8 1.5.1 2.7.3 2.7.4 0 .1 1.4.3 3 .5 1.7.2 5.5.7 8.5 1.1 3 .4 6.5.7 7.8.8 1.2 0 2.2.2 2.2.5 0 .4 1.6.7 3.6.8 2 .1 4.3.8 5.2 1.5 1.3 1.1 1.4 1.1.7-.1-.6-1.1-.4-1.3 1-.7 1.1.4 3.8 1 6.2 1.3 2.4.3 4.3 1 4.3 1.6 0 .5.5.5 1.3-.2.8-.6 1.6-.8 1.9-.5.4.3 2.1.8 4 1 1.8.3 4 .7 4.8 1.1.8.3 3.7.7 6.4.9 2.7.2 5.2.7 5.5 1.1.3.5 2.4.9 4.5 1.1 2.2.1 5.1.5 6.5.8 1.4.3 3.2.6 3.9.6.6.1 1.2.4 1.2.8s1.4.5 3 .2c1.7-.2 3 0 3 .6s.8.9 1.8.8c.9-.2 3 .1 4.6.5 3 .9 10.1 2.1 12.4 2.2.6 0 1.2.3 1.2.7 0 .3 1.6.7 3.7.8 2 .2 4.1.6 4.6.9.5.3 2.1.7 3.6.9 2.6.3 4.7.7 10.6 2 1.7.3 4 .6 5.3.6 1.2 0 2.2.3 2.2.7 0 .4 2.1.8 4.6.9 2.6.1 5.4.7 6.2 1.4 1.3 1.1 1.4 1.1.7-.1-.5-1-.4-1.2.4-.7.6.4 3.3.9 5.9 1.2 2.6.3 5.8.7 7.2 1 1.4.2 4.8.7 7.5 1 2.8.3 5.3 1.1 5.7 1.8.6.8.8.8.8-.1 0-.7.6-1 1.3-.8 1.9.7 6.9 1.6 10.7 1.9 1.9.2 6.7.7 10.5 1.1 3.9.5 8 .8 9.3.9 1.2 0 2.2.2 2.2.5 0 .6 8.9 1.4 16.3 1.5 2 .1 3.7.3 3.7.6s1.2.6 2.8.7c5.9.3 15.7 1.2 15.7 1.3 0 .2 5.8.7 14.7 1.4 3.7.2 7.2.7 7.8 1.1.5.3 1 0 1-.7 0-.8.3-.9.8-.3.4.6 2.7 1 5.2 1 2.5-.1 4.9.1 5.3.3.5.2 3.6.5 7 .6 3.4.1 6.8.5 7.5.9.6.5 1.2.4 1.2-.2 0-1 2.5-.9 3.6.1.3.4 1.7.3 3-.2 1.4-.6 2.6-.6 2.9 0 .4.6 1.3.7 2.3.1.9-.4 2.6-.6 3.7-.4 1.1.3 4.1.5 6.7.5 3.2.1 4.5.5 4.1 1.2-.4.6.1.5 1-.2.9-.8 2-1.1 2.5-.9.4.3 1.4.2 2.2-.3.8-.5 2.1-.5 3.1.1 1.2.6 2 .5 2.5-.2.4-.8.9-.7 1.5.2.7 1.1.9 1.1.9.1s.5-1 2-.2c1.1.6 2 .7 2 .3 0-.4 1.5-.8 3.3-.9 6-.1 24.2-2.7 24.2-3.4 0-.1 1-.3 2.3-.6 4.9-.9 18.3-6.7 24.3-10.5 17.8-11.3 30.3-32.7 28.6-48.9-.8-7.5-2.2-9.3-6.5-8.7-5.7.8-6.6 1.1-7.9 2.7-.7.8-1.3 1.2-1.3.8 0-.4-4.7 1.7-10.5 4.7s-11.3 5.5-12.3 5.5-6.5-5-12.3-11.2c-5.7-6.1-12.8-13.4-15.8-16.2-5.1-4.8-9.5-12.1-8.5-13.8.3-.4.1-.8-.4-.8-.8 0-.8-11.8.1-26.5.1-2.8.1-5.4-.2-5.9-.2-.5-.6-3.1-.8-5.8-.5-7.7-1.2-15.3-1.3-15.3-.1 0-.3-2.9-.5-6.5s-.7-9.7-1-13.5c-.4-3.9-.8-8.8-1-11-.1-2.2-.6-7.2-1-11-.4-3.9-.8-8.8-1.1-11-.9-9.8-1.6-16.3-2-20-.3-2.2-.7-5.8-.9-8-.2-2.2-.6-5.8-.9-8-.3-2.2-.8-5.8-1-8-.3-2.2-.7-5.6-1.1-7.6-.7-4-1.4-9.7-1.9-14.9-.2-1.9-.5-3.5-.6-3.5-.1 0-.3-1.4-.5-3-.2-1.7-.6-4.4-.9-6-.2-1.7-.7-4.6-.9-6.5-.5-3.4-1-6.4-2.3-13.3-.9-5.2-1.5-9-1.8-12-.2-1.5-.6-3-1-3.4-.3-.3-.6-2.1-.6-3.9 0-1.8-.5-3.6-1-3.9-.6-.4-.8-1-.5-1.5.3-.5-.1-4-1-7.7-.8-3.7-1.7-7.9-1.9-9.3-.2-1.4-.9-4.5-1.5-7-.5-2.5-1.2-5.6-1.5-7-1.5-6.9-4.1-18.2-5.2-22.3-.3-1.2-.8-3.3-1.1-4.7-.2-1.4-.7-3.2-1-4-.3-.8-.8-2.6-1-4-.2-1.4-1-4.1-1.8-6.1s-1.2-3.9-.9-4.1c.2-.3-.3-2.1-1.1-4.1-.8-2.1-1.2-3.7-.9-3.7.4 0 .1-.6-.5-1.4-.6-.8-1.1-1.8-1-2.2.1-.5 0-1.2-.1-1.7-.4-1.1-.6-1.9-1.4-5.2-.4-1.7-1.1-3.8-1.7-4.7-.5-1-.9-2.4-.9-3.1 0-1.2-8.2-27.9-9.7-31.7-.3-.8-.5-2.1-.4-2.8.1-.6-.3-1.2-.9-1.2-.5 0-1-1.1-1-2.3 0-1.3-.3-2.7-.7-3.1-.4-.3-.8-1.2-.9-1.9-.6-3.5-16.3-44.9-17.5-46.2-.5-.5-.9-1.4-.9-2.1 0-.7-1-3.4-2.2-6.1-1.2-2.6-2.2-5-2.3-5.3 0-.3-1.1-2.7-2.3-5.4-1.2-2.7-2.2-5-2.2-5.2 0-.2-1.2-2.9-2.7-6.1-1.5-3.2-2.8-6-2.8-6.3-.1-.3-1.5-3.2-3-6.5-1.6-3.3-2.9-6.2-3-6.5-.4-1.8-14.1-28.8-15.3-30.3-.8-.9-1.2-1.7-.8-1.7.4 0-.2-1.3-1.3-2.9-1.2-1.6-2.1-3.2-2.1-3.6 0-3.1-34.1-58.4-40.1-65.1-1.1-1.1-1.9-2.3-1.9-2.7 0-.4-.8-1.6-1.7-2.6-1-1.1-2.3-2.6-2.8-3.3-.6-.7-2.6-3.3-4.5-5.8-1.9-2.4-3.9-5-4.5-5.6-.5-.6-2.8-3.3-5-6-2.2-2.6-5.2-6.1-6.7-7.6-1.4-1.5-2.4-2.8-2.2-2.8.8 0-38.1-38.6-43.4-43-3-2.5-6.4-5.4-7.6-6.5-4.2-3.8-12.9-11-15-12.4-1.2-.8-2.3-1.8-2.6-2.1-1.2-1.5-25-19-25.9-19-.5 0-1.1-.4-1.3-.8-.4-1-19.8-14.4-19.8-13.6 0 .2-1-.4-2.2-1.6-1.2-1.1-3.4-2.6-5-3.2-1.5-.7-2.8-1.6-2.8-2 0-.5-.7-.8-1.5-.8s-1.5-.5-1.5-1c0-.6-.5-1-1-1-.6 0-3.9-1.7-7.3-3.8-8.1-5.1-15.5-9.3-19.2-11.2-1.6-.8-3.4-1.8-4-2.2-1.6-1.3-30.2-15.9-39.5-20.1-17.2-7.9-40.6-17.9-45-19.2-.3-.1-2.3-.9-4.5-1.9-2.2-1-4.4-1.9-5-2-1.2-.4-4.2-1.4-7.5-2.8-4.1-1.6-23.4-8-25.5-8.4-1.1-.2-2.9-.8-4-1.3-1.9-.9-8-2.5-8-2.1 0 .1-1.8-.5-4-1.3s-5.9-2-8.2-2.6c-2.6-.7-4.3-1.8-4.3-2.6s-.9-2.5-2-3.7c-1-1.3-1.9-2.7-1.9-3.2s-.3-1.2-.8-1.5c-.5-.3-2.2-2.9-3.8-5.6-3.2-5.7-9.8-12.4-18.2-18.7-3.2-2.4-5.9-4.6-6.1-5.1-.2-.4-1-.7-1.8-.7s-1.4-.4-1.4-.8c0-.5-1.9-1.9-4.1-3.3-2.3-1.3-5.3-3.2-6.8-4.1-5.2-3.4-18-9.8-19.5-9.8-.8 0-1.6-.4-1.8-.8-.2-.6-15.1-5.9-19.3-6.9-.5-.1-2.1-.4-3.5-.7-11.5-2.6-32.8-2.9-44-.6zM55.1 1167.2c-4.6 5.3-6.2 7.5-6.7 9-.3 1-1 1.8-1.6 1.8-.6 0-.9.3-.5.6.3.3-.6 2.8-2 5.6-1.4 2.7-2.6 5.5-2.8 6.2-.2 1-.6 2.2-2.2 6.3-.3 1-.7 2.7-.8 3.8-.1 1.1-.3 2.2-.4 2.5-.8 1.8-1.2 5.9-1.5 15.8-.4 12.1-.9 14.9-1.5 7.4-1-14.9.5-31.2 3-31.2.5 0 .6-.7.3-1.5-.4-.8 0-2.3.7-3.2.8-.9 1.3-1.8 1.1-2-.4-.5 4.9-10.5 6.4-12.1.8-.7 1.8-2.1 2.4-3.1 1.3-2.5 6.3-8.1 6.8-7.6.2.2-.1 1-.7 1.7z"/><path d="M587.5 1202.9c-.3.5-.2 1.2.3 1.5.5.3.9-.1.9-.9 0-1.7-.3-1.9-1.2-.6zM615.5 1203.1c-.4.6-.5 1.2-.2 1.5.2.3.7-.2 1-1.1.7-1.7.1-2-.8-.4zM831.5 1218.9c-.3.5-.2 1.2.3 1.5.5.3.9-.1.9-.9 0-1.7-.3-1.9-1.2-.6zM1135.5 1218.9c-.3.5-.2 1.2.3 1.5.5.3.9-.1.9-.9 0-1.7-.3-1.9-1.2-.6zM1187 1226.4c0 .2.8 1 1.8 1.7 1.5 1.3 1.6 1.2.3-.4s-2.1-2.1-2.1-1.3zM1203.3 1231.5c0 .8.4 1.2.9.9.5-.3.6-1 .3-1.5-.9-1.3-1.2-1.1-1.2.6zM1266.5 1244c-.3.6.1.7.9.4 1.8-.7 2.1-1.4.7-1.4-.6 0-1.3.4-1.6 1zM1291.5 1248c.3.5.8 1 1.1 1 .2 0 .4-.5.4-1 0-.6-.5-1-1.1-1-.5 0-.7.4-.4 1zM1411.6 1259.3c.3 1 .9 1.5 1.2 1.2.3-.3 0-1.1-.7-1.8-1-.9-1.1-.8-.5.6z"/></svg>