<svg height="420" viewBox="-10 -10 420 420" width="420" xmlns="http://www.w3.org/2000/svg"><circle cx="200" cy="200" fill="#fff" r="205" stroke="#000" stroke-width="2"/><path d="m182.89 399.6c-.21-.2-3.07-.64-6.34-.98-35.57-3.76-74.52-20.25-103.05-43.64-8.533-6.99-25.405-24.31-31.643-32.48-22.303-29.2-36.2299-63.02-40.5631-98.5-.99035-8.11-1.03693-37.13-.0747-46.5 3.6838-35.85 20.3228-75.36 43.8008-104 6.994-8.533 24.313-25.405 32.48-31.643 28.79-21.99 66.11-37.1874 99.74-40.6165 9.39-.95801 37.36-.95433 45.88.0061 34.31 3.8655 70.75 18.7584 99.38 40.6074 9.03 6.889 26.94 24.615 33.99 33.646 9.47 12.114 16.95 24.113 23.52 37.71 9.21 19.08 13.68 33.98 18.53 61.79 1.08 6.22 1.37 39.28.4 47-4.7 37.62-18.23 70.95-40.8 100.5-6.48 8.48-23.28 25.63-32.14 32.78-28.51 23.04-58.3 35.94-100 43.28-3.83.68-42.48 1.61-43.11 1.04zm65.51-48.08c7.65-1.33 14.29-2.81 14.77-3.29.5-.5-1.72-17.3-5.11-38.8-3.29-20.86-9.63-61.11-14.09-89.43l-8.1-51.5 1.57-34c.87-18.7 1.58-34.562 1.57-35.25-.04-4.93 3.44 3.74 15.6 38.87 7.73 22.34 14.5 40.36 15.27 40.66 1.79.69 22.41-4.64 23.26-6.01.65-1.05-3.12-12.57-22.15-67.77-5.59-16.225-11.09-32.362-12.21-35.861-4.1-12.786-10.69-17.151-27.28-18.046l-10.99-.593-1.75-3.724c-.96-2.048-2.77-4.356-4.01-5.128-2.86-1.785-7.98-2.739-9.54-1.778-.9.558-1.26 16.399-1.45 64.68l-.26 63.95h-3-3l-.26-63.72c-.25-62.525-.29-63.738-2.25-64.786-1.4-.747-3.16-.757-5.84-.036-4.17 1.123-6.13 2.908-8.28 7.542l-1.39 3-10.99.593c-17.09.923-23.01 5.131-27.82 19.779-1.38 4.196-7.77 22.928-14.2 41.628-18.02 52.39-19.85 58.06-19.25 59.62.69 1.81 22.51 7.58 23.7 6.28.45-.5 6.33-16.87 13.06-36.4 14.22-41.22 14.78-42.668 15.93-41.43.47.51 1.96 15.55 3.32 33.43l2.46 32.5-14.66 90.28c-10.37 63.92-14.33 90.55-13.56 91.19.6.5 7.97 2.12 16.39 3.6 12.98 2.29 15.49 2.49 16.56 1.31.7-.76 7.46-33.11 15.04-71.88 7.58-38.78 14.17-70.92 14.64-71.43.48-.52 1.06-.74 1.3-.5s6.35 32.16 13.58 70.93c7.22 38.78 13.55 71.52 14.06 72.77.71 1.71 1.49 2.14 3.2 1.72 1.24-.3 8.52-1.64 16.16-2.97zm-34.23-257.372c-.75-.489-1.19-2.12-1-3.757l.33-2.891h8.5 8.5v3.5 3.5l-7.5.256c-4.13.142-8.1-.132-8.83-.608z" fill="#048"/></svg>