<svg height="575" width="575" xmlns="http://www.w3.org/2000/svg"><path d="m573.75 287.5a286.25 284.57 0 1 1 -572.49 0 286.25 284.57 0 1 1 572.49 0z" fill="#fff" stroke="#000" stroke-linecap="square"/><path d="m357.82 453.26c-2.49-3.33-13.58-19.01-24.65-34.85-11.06-15.84-21.68-30.94-23.59-33.55-3.08-4.21-12.92-45.83-12.92-54.65 0-6.79 32.96 28.13 49.64 52.6 8.78 12.86 21.47 31.36 28.21 41.09 10.35 14.94 12.09 18.57 11.18 23.29-1.48 7.63-7.47 12.13-16.16 12.13-5.92 0-7.97-1.06-11.71-6.06zm-169.56-2.58c-4.78-6.05-4.78-7.61-.04-34.23 2.1-11.78 5.54-31.49 7.63-43.79 4.28-25.13 3.4-23.5 29.61-55.04 9.83-11.82 20.15-24.4 22.94-27.95l5.08-6.46 10.46 10.99c5.75 6.04 10.07 11.91 9.61 13.04s-10.28 13.38-21.83 27.22c-11.55 13.83-21.3 25.99-21.68 27.02-.56 1.51-10.57 55.88-14.84 80.61-2.3 13.32-19 18.64-26.94 8.59zm202.26-156.75c-2.12-1.79-10.16-17.02-17.86-33.85l-13.99-30.58-18.34-18.34c-10.08-10.08-18.98-18.33-19.77-18.33-.8 0-1.44 20.61-1.44 45.81 0 30.16-.65 45.6-1.9 45.19-1.05-.35-15.36-13.95-31.81-30.23l-29.92-29.59v-16.52c0-9.09-.49-16.52-1.1-16.52s-4.57 2.94-8.8 6.55c-4.23 3.6-8.26 6.33-8.96 6.06-1.86-.73-15.97-13.68-17.39-15.96-.67-1.07 6.06-7.89 14.94-15.15l16.16-13.19h72.33l10.85 9.23c5.98 5.08 19.02 17.03 29 26.56l18.13 17.33 16.11 34.73c17.12 36.93 18.05 41.47 9.68 47.31-5.26 3.66-11.2 3.47-15.92-.51zm-263.98-42.62c-4.86-6.15-3.99-13.2 2.14-17.49 2.2-1.53 10.8-5.54 19.1-8.89 8.3-3.36 19.01-7.87 23.81-10.03l8.73-3.92 9.52 9.63c5.23 5.3 9.52 10.23 9.52 10.96 0 2.3-52.98 23.24-61.02 24.12-6.69.72-8.22.16-11.8-4.38zm146.37-104.99c-18.15-11.02-17.45-37.15 1.25-46.647 12.82-6.513 25.65-3.578 34.42 7.877 8.82 11.51 5.41 31.31-6.65 38.64-8.05 4.89-21.09 4.95-29.02.13z"/><path d="m287.48 9.1495c-68.53 0-131.28 24.9475-179.72 66.2505-1.27 1.083-2.53 2.175-3.78 3.281-.5.444-1 .895-1.5 1.344-1.07.96-2.13 1.929-3.189 2.906-.281.26-.563.519-.843.781-1.25 1.165-2.492 2.343-3.719 3.531-1.408 1.362-2.809 2.734-4.188 4.125-1.353 1.365-2.706 2.732-4.031 4.125-1.374 1.446-2.719 2.931-4.062 4.406-.154.171-.316.331-.469.501-1.162 1.28-2.3 2.57-3.438 3.87-1.242 1.43-2.442 2.87-3.656 4.32-.047.05-.109.1-.156.15-40.496 48.38-64.9061 110.73-64.9061 178.78 0 153.66 124.3771 278.34 277.6571 278.34 68.68 0 131.54-25.07 180.03-66.53l.03.03c.39-.33.78-.66 1.16-1 .16-.13.31-.27.47-.4.94-.82 1.88-1.64 2.81-2.47.74-.66 1.46-1.31 2.19-1.97.21-.19.42-.37.62-.56.97-.89 1.92-1.79 2.88-2.69.86-.81 1.71-1.62 2.56-2.44.12-.11.23-.23.35-.34 1.08-1.06 2.14-2.12 3.21-3.19.32-.31.63-.62.94-.94 1.25-1.26 2.49-2.55 3.72-3.84.12-.13.25-.25.38-.38 1.4-1.48 2.81-2.98 4.18-4.5 1.26-1.39 2.49-2.8 3.72-4.21.23-.27.46-.52.69-.79 1.05-1.21 2.09-2.45 3.12-3.68 40.33-48.33 64.63-110.55 64.63-178.44 0-153.66-124.41-278.3831-277.69-278.3831zm0 62.0625c119.11 0 215.78 96.908 215.78 216.308 0 50.85-17.51 97.62-46.84 134.56l-304.5-302.78c37.06-30.058 84.21-48.09 135.56-48.09zm-168.62 81.408 304.56 302.84c-37.12 30.24-84.42 48.37-135.94 48.37-119.11 0-215.75-96.91-215.75-216.31 0-51 17.636-97.91 47.13-134.91z" fill="#c00" stroke="#c00" stroke-width="2"/></svg>