<svg height="575" viewBox="-4 -4 1192 1192" width="575" xmlns="http://www.w3.org/2000/svg"><circle cx="592" cy="592" fill="#fff" r="592"/><g transform="translate(147.25 66.588)"><path d="m706.44 856.29c-.32 0-5.11 3.83-10.65 8.5l-10.07 8.5h-246.03-246.02l-8.33-6.14c-12.42-9.16-24.84-19.89-24.84-21.47 0-1.17 12.89-1.4 83.75-1.44 78.36-.05 83.59-.16 81.25-1.71-4.49-2.98-9.67-8.93-12.09-13.88-2.95-6.02-3.79-17.84-1.7-23.86.77-2.2 17.27-32.96 36.67-68.37 19.41-35.4 34.91-64.7 34.45-65.12-17.76-16.12-121.87-108.28-122.68-108.59-.68-.26-28.78 50.01-68.52 122.57-37.06 67.66-67.93 123.01-68.6 123.01-3.09 0-41.652-52.97-41.133-56.5.103-.7 41.573-76.92 92.143-169.36l91.96-168.09 46.77 46.75 46.77 46.75-9.59 17.47c-6.82 12.42-9.34 17.9-8.7 18.92.49.8 25.16 23.09 54.82 49.54 58.86 52.48 58.21 51.79 60.55 64.82 2.33 12.98 3.41 10.56-43.17 95.91-23.2 42.51-43.32 78.8-44.7 80.65-1.38 1.84-4.57 4.65-7.08 6.25l-4.56 2.89h128.69 128.7v-40.25-40.24c30.37 29.52 38.43 37.89 91.94 92.49zm-393.36-527.92 4.67-8.39c5.14-9.23 10.57-14.79 17.63-18.05l4.62-2.14 137.23-.26 137.24-.27.26-26.73.27-26.74 73.25-.26 73.25-.25v265.78 265.78m-147-146.82v-273.74l-86.11.26-86.12.25-17.84 32.5-17.85 32.5m-58.08-136.06c-25.33-5.46-43.97-28.54-43.97-54.44 0-20.24 11.83-39.93 29.57-49.23 48.97-25.67 101.29 26.65 75.63 75.63-7.14 13.63-20.06 23.59-35.83 27.63-8.91 2.27-16.2 2.39-25.4.41z"/><path d="m405.48 1115.7c-104.12-6.9-208.24-42.6-293-100.6-99.585-68.16-174.07-161.06-218.26-272.24-58.39-146.89-54.98-313.3 9.374-457.82 30.768-69.09 73.206-130.13 127.026-182.69 61.327-59.891 129.26-102.80602 210.86-133.198 103.76-38.641 224.87-46.331 334-21.206 137.85 31.734 255.69 107.971 341.45 220.914 40.34 53.11 73.96 118.69 93.07 181.5 40.9 134.5 33.9 275.48-19.97 404-46.4 110.72-126.7 206.07-227.11 269.64-85.93 54.5-180.46 85.3-281.92 91.8-18.27 1.2-57.07 1.2-75.52-.1zm85.5-114.3c57.93-5.99 110.53-20.69 161-44.99 27.8-13.39 60.62-33.66 84.33-52.09l11.32-8.81-20-20c-18.38-18.38-20.16-19.89-21.83-18.58-1.6 1.26-1.67 1.25-.65-.07.97-1.25-27.73-30.6-171.4-175.25-147.56-148.57-172.79-173.57-174.11-172.5-.85.69-1.25.77-.9.19.72-1.22-91.51-93.85-92.48-92.88-.35.35-.43-.2-.17-1.21.35-1.4-23.22-25.52-95.55-97.83-83.504-83.47-96.173-95.76-97.281-94.37-62.278 78.08-97.366 165.76-105.785 264.35-1.432 16.77-1.434 59.3 0 76 5.405 63.08 21.538 120.64 49.424 176.32 47.052 93.94 123.352 169.38 218.092 215.62 58.35 28.47 115.07 43.06 186.5 48 10.97.7 55.83-.5 69.5-1.9zm335.89-188.83c34.7-46.22 59.62-95.66 76.49-151.71 9.17-30.46 15.11-62.54 18.13-98 1.36-16.03 1.37-59.83.01-76-6.68-79.42-31.15-151.87-74.41-220.33-29.2-46.22-72.04-91.98-118.27-126.36-56.87-42.292-128.1-73.163-197.84-85.747-33.9-6.118-58.78-7.995-96.5-7.279-29.36.557-43.81 1.845-70.32 6.268-55.67 9.29-112.72 29.99-161.2 58.488-19.11 11.24-50.37 32.94-58.76 40.79l-2.78 2.6 86.22 86.22c76.11 76.12 86.36 86.03 87.48 84.54 1.15-1.54 1.22-1.51.78.31-.39 1.58 9.27 11.75 45.8 48.22 25.45 25.43 46.28 46.48 46.28 46.78 0 .74 405.81 406.2 406.71 406.37.39.07 5.87-6.75 12.18-15.16z" fill="#c00"/></g></svg>