<svg height="525" width="600" xmlns="http://www.w3.org/2000/svg"><path d="m597.6 499.6-283.8-491.6c-2.9-5-8.2-8-13.9-8s-11 3.1-13.9 8l-283.8 491.6c-2.9 5-2.9 11.1 0 16 2.9 5 8.2 8 13.9 8h567.6c5.7 0 11-3.1 13.9-8 2.9-5 2.9-11.1 0-16z"/><path d="m299.875 48.2 256 443.3h-512z" fill="#f6bd16" transform="matrix(1 0 0 .99591458 .125 2.033244)"/><path d="m300.42187 118.40625c-5.41456 0-9.78125 4.36669-9.78125 9.78125 0 3.29611 1.63074 6.19138 4.125 7.96875v10.71875c-3.87628 2.12308-6.5 6.23741-6.5 10.96875s2.62372 8.84567 6.5 10.96875v15.53125c0 4.3007 10.02409 15.28781 9 20-3 10-13.01018 4.99085-15.46875-3.59375-.51738-.69291-1.10607-4.72513-1.53125-4.40625-4 3-5.31429 12.94111-3 19 .66197 1.73303 3 6 6 8-1.15579 6.35137-12.22341 20.71895-28.40625 49.8125l-26.0625 46.84375-46.53125 17.34375v54l22 12 1 3 5 3 39.125-12.3125 39.875-14.6875v-60l7 6 1-102 55 141-56-39v57c-26.83342 8.33688-52.88936 18.69317-79 29l5 3 5-1 45 25v4l5 2 75.625-25.90625.375-53.09375 6 3-.5625 28.125v25.53125l-75.20312 25c-.35611 1.17523 2.80982 3.11569 5.76562 4.34375 1.33009.55263 4.63966-.7312 6 0 5.32284 2.86112 12.2029 7.77971 13 8 .7971.22015 16.98895-4.99647 38.09375-12.59375l38.375-13.8125-.0312-23.1875-.0312-23.1875-25.40635-18.21875-35.375-89.90625c-15.40661-39.10551-20.82503-50.91085-19.625-56.09375.36822-1.59035 6.8435-6.72208 8-8 5.29724-10.85581 2.34249-19.31686-5-25-1.75732-1.36018-8.20276-5.36393-8-8v-15.03125c4.41839-1.92775 7.5-6.34013 7.5-11.46875s-3.08161-9.541-7.5-11.46875v-9.96875c2.69214-1.74762 4.46875-4.77002 4.46875-8.21875 0-5.41456-4.39794-9.78125-9.8125-9.78125zm-5.65625 107.9375c.62889 0 1.35717 23.21606.875 48.71875l.125 47.28125-22.9375-15.5-14.75 5.59375-14.75 5.59375 8.375-14.96875c4.60647-8.23067 15.85002-28.31567 25-44.65625 9.14999-16.34058 17.43357-32.0625 18.0625-32.0625z"/></svg>