<svg height="575" width="575" xmlns="http://www.w3.org/2000/svg"><g transform="translate(-107.23 -241.31)"><path d="m-45.024 125.63c0 18.05-16.094 32.68-35.947 32.68-19.849 0-35.949-14.63-35.949-32.68s16.1-32.679 35.949-32.679c19.853 0 35.947 14.629 35.947 32.679z" fill="#fff" stroke="#000" stroke-linecap="square" stroke-width=".1" transform="matrix(7.9719 0 0 8.7691 1040.2 -572.86)"/><path d="m279.24 685.03c-.45-.75-5.96-19.47-12.25-41.59s-15.38-53.8-20.19-70.39-9.26-32.35-9.89-35.03c-.62-2.67-1.61-6.11-2.21-7.65-.81-2.12 1.29-3.5 8.59-5.66 5.32-1.57 10.6-2.85 11.73-2.85s3.29 4.73 4.8 10.51l2.75 10.51 14.37 1.31c17.01 1.54 24.43 3.7 37.09 10.79 5.18 2.9 11.23 5.27 13.46 5.27 2.22 0 9.56-3.25 16.3-7.22 11.21-6.61 22.67-10.46 29.7-9.98 4.9.33 9.18 2.9 9.18 5.51 0 1.4 1.04 2.57 2.3 2.61 2.57.06 9.81 9.08 7.3 9.08-.88 0-5.54-1.34-10.37-2.98-10.66-3.61-18.54-1.82-34.25 7.81-15.84 9.7-21.03 9.83-38.92 1.01-16.64-8.2-39.43-12.87-41.14-8.44-2.19 5.7 2.76 9.38 13.98 10.39 8.03.73 14.32 2.82 23.02 7.66 7.03 3.92 15.56 7.07 20.69 7.64 7.54.85 10.39.1 20.84-5.47 19.45-10.37 26.05-11.37 44.17-6.68 8.44 2.18 16.79 4.08 18.55 4.22 1.77.13 3.22 1.3 3.22 2.6 0 1.29 1.06 2.35 2.37 2.35 3.36 0 17.83 15.09 17.83 18.59 0 1.6-4.46 18.44-9.91 37.41-5.45 18.98-10.85 38-12.01 42.27l-2.1 7.77h-64.09c-35.25 0-64.46-.62-64.91-1.37zm114.81-35.19c10.1-34.89 16.27-59.02 15.32-59.97-1.98-1.97-29.38-9.37-34.96-9.44-3.03-.04-12.51 3.42-21.07 7.68-21.33 10.62-31.01 10.59-51.76-.15-14.08-7.29-27.25-10.04-27.25-5.71 0 1.04 4.96 19.25 11.02 40.46s11.02 38.89 11.02 39.28 21.2.49 47.12.22l47.12-.49 3.44-11.89zm49.17-100.1c-.03-.76-3.33-4.94-7.35-9.3-7.14-7.77-9.38-15.25-5.31-17.76 2.06-1.27 17.99 2.37 20.67 4.72 1.84 1.62-4.09 23.71-6.37 23.71-.87 0-1.61-.62-1.64-1.37zm-134.69-44.56c-1.71-8.51-1.39-29.03.45-29.03.89 0 5.03 3.7 9.22 8.23 4.19 4.52 7.99 8.23 8.44 8.23 1.88 0 15.24 15.6 14.45 16.88-.48.77-7.74 1.4-16.14 1.4h-15.27zm120.12-38.24c-5.52-1.99-13.12-5.76-16.9-8.37-6.31-4.35-8.14-4.69-22.25-4.09-13.47.57-16.22 1.28-22.12 5.77-4.16 3.15-7.62 4.56-9.04 3.65-1.26-.8-8.69-8.09-16.5-16.19l-14.2-14.73 7.77-7.43c11.74-11.2 15.74-12.07 61.04-13.25l40.4-1.05.56-7.77.56-7.77h-10.99c-9.68 0-11.44-.57-14.79-4.82-4.84-6.12-4.86-13.48-.06-18.6 3.61-3.87 5.03-4.01 41.24-4.01 36.22 0 37.63.14 41.25 4.01 4.7 5.02 4.8 12.58.24 18.18-2.82 3.46-5.79 4.49-15.15 5.23l-11.65.92v14.63l40.86.49 40.86.49v41.98h-26.49c-21.43 0-27.04.54-29.33 2.82-1.56 1.55-7.61 5.03-13.45 7.74-14.24 6.61-36.97 7.56-51.86 2.17z"/><path d="m394.72 250.47c-68.53 0-131.28 24.95-179.72 66.25-1.27 1.08-2.53 2.18-3.78 3.28-.5.45-1 .9-1.5 1.35-1.07.96-2.13 1.92-3.19 2.9-.28.26-.56.52-.84.78-1.25 1.17-2.49 2.35-3.72 3.53-1.41 1.37-2.81 2.74-4.19 4.13-1.35 1.36-2.71 2.73-4.03 4.12-1.37 1.45-2.72 2.93-4.06 4.41-.16.17-.32.33-.47.5-1.16 1.28-2.3 2.57-3.44 3.87-1.24 1.43-2.44 2.87-3.65 4.32-.05.05-.11.1-.16.15-40.5 48.38-64.91 110.73-64.91 178.78 0 153.66 124.38 278.34 277.66 278.34 68.68 0 131.54-25.07 180.03-66.53l.03.03c.39-.33.78-.66 1.16-1 .16-.13.31-.27.47-.4.94-.82 1.88-1.64 2.81-2.47.74-.66 1.46-1.31 2.19-1.97.21-.19.42-.37.62-.56.97-.89 1.92-1.79 2.88-2.69.86-.81 1.71-1.62 2.56-2.44.12-.11.23-.23.35-.34 1.08-1.06 2.14-2.12 3.21-3.19.32-.31.63-.62.94-.94 1.25-1.26 2.49-2.55 3.72-3.84.12-.13.25-.25.38-.38 1.4-1.48 2.81-2.98 4.18-4.5 1.26-1.39 2.49-2.8 3.72-4.21.23-.27.46-.52.69-.79 1.05-1.21 2.09-2.44 3.12-3.68 40.33-48.33 64.63-110.55 64.63-178.44 0-153.66-124.41-278.38-277.69-278.38zm0 62.06c119.11 0 215.78 96.91 215.78 216.31 0 50.85-17.51 97.62-46.84 134.56l-304.5-302.78c37.05-30.06 84.21-48.09 135.56-48.09zm-168.62 81.41 304.56 302.84c-37.12 30.24-84.42 48.37-135.94 48.37-119.11 0-215.75-96.91-215.75-216.31 0-51 17.64-97.91 47.13-134.91z" fill="#c00" stroke="#c00" stroke-width="2"/></g></svg>