<svg height="420" viewBox="-10 -10 420 420" width="420" xmlns="http://www.w3.org/2000/svg"><circle cx="200" cy="200" fill="#fff" r="205" stroke="#000" stroke-width="2"/><path d="m182.89 399.59c-.21-.19-3.24-.65-6.72-1.01-34.45-3.57-74.68-20.66-102.67-43.6-8.533-6.99-25.405-24.31-31.643-32.48-22.128-28.97-36.264-63.3-40.5631-98.5-.99596-8.15-1.03479-37.14-.0625-46.66 3.5497-34.74 19.0866-72.17 42.2756-101.84 7.058-9.031 24.967-26.757 33.993-33.646 28.83-22.001 66.11-37.1846 99.74-40.6135 9.38-.95619 37.38-.95512 45.76.0018 37.64 4.2986 75.26 20.4727 104.5 44.9257 22.86 19.118 38.95 39.604 52.09 66.332 9.54 19.41 14 34.13 18.95 62.5 1.08 6.22 1.37 39.28.4 47-4.62 36.97-18.61 71.45-40.8 100.5-6.48 8.49-23.29 25.63-32.14 32.78-11.58 9.35-24.26 17.38-38.5 24.37-18.72 9.18-35.4 14.31-61.5 18.91-3.84.68-42.48 1.6-43.11 1.03zm87.61-56.04c6.31-1.9 12.97-8.38 14.91-14.49 1-3.15 1.6-11.38 1.94-26.56.38-17.29.95-24.14 2.63-32 3.91-18.26 9.21-31.81 20.43-52.25 9.24-16.81 13.59-33.87 13.59-53.23 0-39.61-18.75-74.76-51.52-96.564-19.13-12.726-39.76-18.835-63.48-18.794-43.76.075-81.95 23.484-102.35 62.738-5.01 9.64-7.891 18.83-14.454 46.15-3.755 15.62-6.217 23.99-7.201 24.48-.822.4-2.844 1.14-4.493 1.63-4.008 1.19-5.06 3.77-7.059 17.34-2.021 13.72-1.541 36.71 1.043 49.89 4.127 21.05 17.991 52.96 23.657 54.44 1.143.3 11.657-.84 23.377-2.54 11.71-1.69 22.01-2.8 22.88-2.47 1.33.51 1.6 2.46 1.6 11.47 0 13.95 1.6 19.51 7.23 25.08 7.06 6.99 6.96 6.98 62.86 7.06 40.61.06 50.47-.19 54.41-1.38zm-107-11.71c-4.94-2.72-5.45-4.51-5.48-19.13l-.02-13.78 4.25-1.85c7.79-3.4 13.75-11.85 13.75-19.49 0-1.91.53-3.8 1.18-4.2 1.57-.97 99.1-2.41 100.09-1.48.43.4.32 3.94-.24 7.85-.55 3.91-1.31 16.16-1.68 27.21l-.67 20.1-3.37 2.97-3.38 2.96-51.21-.03c-35.32-.02-51.84-.37-53.22-1.13zm10.73-73.28c-1.07-1.74-7.13-41.05-6.43-41.7.39-.35 7.9-2.74 16.7-5.31 8.8-2.58 18.7-5.53 22-6.55 3.3-1.03 15.45-4.63 27-8s23.7-6.97 27-8c18.73-5.84 47.47-14 49.33-14 2.79 0 2.83 2.64.17 14-1.47 6.3-4.58 13.67-12.03 28.5-5.53 11-11.57 24.5-13.42 30l-3.36 10-15.35.71c-24.95 1.14-90.97 1.4-91.61.35zm-13.11-59.86c-2.94-4.76-10.05-9.48-16.78-11.13-3.35-.82-14.28-1.72-25.66-2.11-14.07-.49-19.964-1.04-20.294-1.9-.256-.66 2.454-13.02 6.034-27.45 5.32-21.5 7.38-28.09 11.37-36.43 17.47-36.43 52.6-58.587 93-58.658 18.19-.032 31.93 3.189 47.71 11.19 30.54 15.481 51.49 45.678 55.91 80.548.78 6.21 2.07 5.4-17.91 11.28-7.15 2.1-19.07 5.62-26.5 7.82s-19.57 5.8-27 8c-31.91 9.45-41.2 12.19-53 15.63-6.88 2.01-14.43 4.29-16.78 5.08-6.28 2.09-7.82 1.81-10.1-1.87zm-15.76-28.08c1.82-.76 4.32-2.67 5.57-4.25 1.88-2.38 2.19-3.77 1.84-8.13-.96-11.7-13.11-16.1-21.45-7.76-2.85 2.85-3.32 4.01-3.32 8.2 0 5.51 1.7 8.55 6.37 11.4 3.72 2.27 6.53 2.41 10.99.54z" fill="#048"/></svg>