<svg height="420" viewBox="-10 -10 420 420" width="420" xmlns="http://www.w3.org/2000/svg"><circle cx="200" cy="200" fill="#fff" r="205" stroke="#000" stroke-width="2"/><path d="m182.9 399.61c-.22-.2-3.08-.65-6.35-.99-28.98-3.06-60.08-14.4-86.05-31.37-13.195-8.62-21.855-15.84-34.073-28.4-30.738-31.59-49.8194-71.34-55.1331-114.85-.99596-8.15-1.03479-37.14-.0625-46.66 3.4292-33.56 18.7346-71.18 40.6256-99.84 6.867-8.99 23.538-25.83 33.143-33.478 29.39-23.405 67.15-39.2031 102.24-42.7815 9.39-.95801 37.36-.95433 45.88.0061 36.95 4.1634 75.49 20.7504 104.38 44.9194 31.67 26.498 54.08 60.824 64.85 99.334 2.19 7.84 3.29 13.09 6.18 29.5 1.09 6.19 1.38 39.25.41 47-4.63 37.05-18.56 71.39-40.8 100.5-6.48 8.49-23.29 25.63-32.14 32.78-28.38 22.93-59.14 36.24-100 43.27-3.91.67-42.48 1.62-43.1 1.06zm33.77-45.2c12.52-1.86 18.13-3.88 27.21-9.79 20.62-13.41 38.7-39.11 47.24-67.12 1.67-5.5 3.39-10.68 3.82-11.5.43-.84 2.71-1.73 5.17-2.02 5.66-.67 10.8-3.88 15.65-9.78 18.06-21.95 26.49-59.87 15.98-71.84-3.72-4.24-6.12-5.59-11.16-6.31l-3.93-.55.22-12c.85-46.41-24.36-87.451-66.37-108.089-23.9-11.738-51.02-14.905-76.67-8.95-38.97 9.049-71.5 38.145-84.683 75.729-4.613 13.15-6.348 23.58-6.534 39.27l-.167 13.96-3.973 1.04c-8.786 2.3-12.852 6.95-14.382 16.46-2.704 16.78 7.546 47.6 20.647 62.08 6.363 7.03 7.89 7.98 15.18 9.45l5.422 1.1 3.68 12.26c6.67 22.18 16.64 39.01 32.42 54.69 15.26 15.17 26.16 20.58 45.06 22.38 13.93 1.32 18.6 1.24 30.17-.47zm-37.12-12.41c-9.71-1.74-19.22-7.5-29.59-17.92-17.33-17.41-25.51-32.84-33-62.25-1.16-4.58-2.83-9.12-3.69-10.08-1.93-2.13-5.22-2.25-7.83-.28-2.77 2.09-5.548 1.86-8.539-.72-12.425-10.74-24.58-44.09-20.963-57.52.976-3.63 4.071-7.23 6.208-7.23.385 0 1.973 1.05 3.527 2.33 4.271 3.52 5.907 3.79 8.873 1.45 2.294-1.8 2.601-2.65 2.159-5.94-.283-2.11-.097-4.1.414-4.41.511-.32 4.261 1.22 8.321 3.41 4.07 2.19 7.66 3.73 7.98 3.41 1.29-1.3.48-7.03-1.22-8.57-.99-.9-5.16-3.35-9.25-5.45l-7.45-3.82.032-12.45c.049-19.39 5.298-36.1 16.688-53.13 13.91-20.8 34.53-35.876 59.5-43.503 8.12-2.481 10.17-2.689 27.28-2.755 16.36-.064 19.48.196 27 2.242 28.53 7.766 53.6 27.709 66.96 53.266 8.07 15.44 12.49 33.67 11.85 48.91l-.31 7.49-7.22 3.58c-9.68 4.8-11.28 6.37-11.28 11.09 0 2.12.19 3.85.42 3.85.24 0 3.76-1.8 7.84-4s7.71-3.7 8.08-3.33c.36.36.66 2.32.66 4.34 0 6.75 6.44 9.34 11.04 4.45 2.93-3.12 5.6-2.85 8.35.85 2.86 3.85 2.74 15.25-.28 26.13-2.98 10.71-9.98 25.01-15.11 30.83-5.71 6.48-7.13 7.12-11.6 5.25-4.56-1.9-7.81-1.94-9.33-.1-.65.78-2.24 6.07-3.53 11.75-8.19 36.08-31.6 68.12-56.29 77.06-4.87 1.77-8.49 2.13-23.75 2.37-9.9.15-20.23-.12-22.95-.6zm-9.48-97.69c7.31-3.26 13.7-10.7 16.09-18.75 1.32-4.48 1.06-46.59-.3-48.23-.87-1.04-6.42-1.31-25.73-1.26-28.92.08-39.81.87-41.26 2.96-.66.95-.8 9.19-.41 23.39.49 18.15.91 22.63 2.42 26.05 3.53 7.98 10.68 14.28 19.44 17.15 6.34 2.08 23.89 1.3 29.75-1.31zm-27.52-6.04c-2.73-.69-8.64-4.59-11.25-7.41-4.37-4.73-5.11-8.41-5.46-27.32l-.34-17.93 3.5-.89c3.79-.96 48.6-1.45 49.51-.54 1.2 1.2 1.74 33.35.62 37.42-1.78 6.48-6.56 12.22-12.44 14.96-4.3 2-6.66 2.4-13.69 2.31-4.68-.05-9.38-.32-10.45-.6zm22.07-5.18c5.13-2.33 8.86-7.14 10.45-13.43 1.48-5.91.72-29.27-1.01-31-1.56-1.56-38.46-1.36-42.41.22l-2.86 1.15.68 14.73c.37 8.11 1.1 16.12 1.62 17.81 1.17 3.78 6.23 8.82 10.91 10.84 5.09 2.2 17.45 2.02 22.62-.32zm99.61 10.59c3.2-1.57 7.44-4.77 9.68-7.32 6.45-7.32 7.16-10.91 7.18-35.85 0-11.96-.22-21.98-.5-22.26-1.9-1.89-65.82-3.31-66.95-1.48-.26.43-.63 10.89-.81 23.25-.36 24.57 0 26.87 5.38 34.76 6.08 8.9 14.8 12.33 30.3 11.94 8.63-.22 10.81-.64 15.72-3.04zm-27.73-5.53c-7.1-2.33-12.25-7.31-15.02-14.56-1.44-3.77-1.65-7.19-1.32-21.48.21-9.34.74-17.34 1.16-17.77 1.05-1.04 45.26-.69 49.68.4l3.5.87-.34 17.93c-.21 11.44-.79 19.03-1.6 20.95-2.02 4.84-6.46 9.43-11.66 12.06-4.11 2.08-6.15 2.44-13.62 2.35-4.83-.05-9.68-.39-10.78-.75zm22.48-5.4c2.42-1.24 5.76-3.95 7.42-6.04 2.96-3.73 3.02-4.04 3.85-19.9.54-10.43.49-16.47-.15-17.11-1.58-1.58-20.64-2.9-32.6-2.26-8.63.47-11.27.96-12.25 2.27-1.93 2.58-1.7 28.28.3 33.06 3.54 8.48 10.04 12.17 21.49 12.21 5.87.02 8.51-.48 11.94-2.23zm-144.33-20.41c-.36-5.86-.65-12.56-.65-14.9 0-3.96-.33-4.47-4.69-7.36-2.92-1.93-5.04-2.75-5.63-2.16-.95.95 2.64 24.17 4.51 29.08 1.26 3.32 3.77 6 5.62 6 1.27 0 1.4-1.57.84-10.66zm174.77 8.75c.94-1.05 2.35-4.31 3.11-7.25 2.33-8.93 4.63-25.08 3.71-26-.48-.48-2.86.46-5.4 2.15l-4.55 3-.64 7.66c-.36 4.21-.65 10.96-.65 15 0 7.88 1.04 9.17 4.42 5.44zm-80.68-23.81c.23-.67-.73-2.36-2.12-3.75-3.4-3.4-9.4-3.48-13.23-.19-1.83 1.57-2.51 2.9-2.07 4.04.55 1.44 1.89 1.66 8.83 1.41 5.34-.19 8.33-.72 8.59-1.51zm-.18-10.38c.38-.6-.21-2.29-1.29-3.75-3.17-4.26-13.05-4.3-15.32-.06-2.13 3.98-.62 4.91 7.96 4.91 4.72 0 8.25-.45 8.65-1.1zm-77.31-14.45c3.71-.33 6.75-.93 6.75-1.32 0-.85-31.92-4.55-32.68-3.79-.29.29 1.66 1.91 4.33 3.6 4.19 2.65 5.53 3 9.85 2.59 2.75-.26 8.04-.74 11.75-1.08zm158.32-1.05c5.83-3.41 5.72-4.82-.32-4.06-2.61.32-9.59 1.12-15.5 1.76-5.91.65-10.75 1.53-10.75 1.96s3.04 1.07 6.75 1.41c3.71.35 7.65.78 8.75.95 4.97.77 6.93.41 11.07-2.02z" fill="#048"/></svg>