<svg height="420" viewBox="-10 -10 420 420" width="420" xmlns="http://www.w3.org/2000/svg"><circle cx="200" cy="200" fill="#fff" r="205" stroke="#000" stroke-width="2"/><path d="m182.95 399.66c-.25-.23-3.3-.72-6.78-1.08-34.45-3.57-74.68-20.66-102.67-43.6-8.533-6.99-25.405-24.31-31.643-32.48-22.228-29.1-36.2444-63.14-40.5631-98.5-.99596-8.15-1.03479-37.14-.0625-46.66 3.5408-34.66 19.1436-72.24 42.2756-101.84 7.058-9.031 24.967-26.757 33.993-33.646 24.2-18.47 54.14-32.1673 82.5-37.7378 16.3-3.20271 16.4-3.21246 36-3.62342 25.7-.53884 43.25 2.00162 66.5 9.62622 30.97 10.157 59.2 28.107 82.52 52.479 14.84 15.508 24.55 29.521 34.57 49.902 9.33 18.97 14.55 36.22 18.94 62.5 1.07 6.45 1.37 39.41.42 47-5.97 47.59-26.39 88.88-60.09 121.53-17.02 16.48-31.76 26.73-53.14 36.95-18.68 8.93-34.41 13.69-59.72 18.07-4.17.72-42.4 1.7-43.05 1.11zm-8.77-39.83c4.17-1.25 9.45-6.42 10.32-10.1.29-1.23 2.26-16.46 4.38-33.86s4.17-32.14 4.55-32.75c.88-1.43 12.23-1.47 13.11-.05.36.58 2.42 15.55 4.57 33.25 2.16 17.7 4.18 33 4.49 34 1.15 3.62 6.59 8.65 10.51 9.71 9.96 2.68 19.89-4.55 19.89-14.49 0-1.95-1.58-16.68-3.52-32.72-1.94-16.05-3.18-29.51-2.75-29.91.42-.41 1.89-.89 3.27-1.08l2.5-.33.5-50 .5-50 16.5-.5 16.5-.5.3-3.09c.17-1.73-.3-3.58-1.07-4.22-.86-.72-7.24-1.24-17.22-1.41l-15.85-.28-5.87-21.92c-3.22-12.05-5.5-22.27-5.07-22.7.69-.69 34.77 10.31 36.22 11.7.31.3 6.89 10.75 14.62 23.23 14.91 24.05 17.71 27.19 24.19 27.19 8.16 0 14.25-6.06 14.25-14.18 0-3.98-1.63-7.11-15.56-29.88-8.56-13.99-17.01-26.82-18.78-28.51-2.62-2.49-8.67-4.88-32.29-12.79l-29.06-9.726-29.9.3-29.91.299-27.5 9.457c-21.77 7.49-28.17 10.1-30.7 12.5-2.67 2.53-28.159 42.64-32.957 51.85-4.906 9.43 2.035 20.67 12.759 20.68 6.672 0 9.343-2.99 24.098-26.96 7.6-12.35 14.16-22.8 14.58-23.22s7.93-3.25 16.69-6.29c15-5.21 20.6-6.52 20.48-4.78-.03.41-2.67 10.43-5.87 22.25l-5.81 21.5-15.82.28c-9.95.17-16.32.69-17.18 1.41-.77.64-1.24 2.49-1.07 4.22l.3 3.09 16.5.5 16.5.5.5 50 .5 50 2.5.33c1.37.19 2.84.66 3.25 1.05.41.4-.83 13.7-2.75 29.56-1.93 15.87-3.5 30.61-3.5 32.75 0 8.11 6.73 15.22 14.88 15.72.77.05 3.15-.44 5.3-1.08zm-12.28-7.94c-3.65-3.9-3.66-3.06.92-39.89l3.68-29.5 9.77-.29c8.15-.24 9.87-.02 10.37 1.3.33.86-1.07 15.62-3.12 32.78-4.51 37.74-4.87 38.71-14.7 38.71-3.2 0-4.6-.63-6.92-3.11zm62.46 1.65c-1.15-.8-2.59-2.72-3.2-4.25-1.09-2.71-8.16-58.52-8.16-64.37v-2.92h9.98c9.53 0 10.01.1 10.5 2.25 1.47 6.4 7.57 61.4 7.05 63.49-1.1 4.39-4.96 7.26-9.76 7.26-2.38 0-5.26-.66-6.41-1.46zm-140.178-172.04c-3.429-2.89-4.16-6.74-2.05-10.82 4.6-8.88 31.468-50.93 33.098-51.8 4.85-2.6 49.21-16.84 49.99-16.06.48.48.73 4.58.57 9.12l-.29 8.25-20 6.75-20 6.75-14 22.64c-7.7 12.45-14.902 23.53-16.003 24.63-3.435 3.41-7.66 3.62-11.315.54zm220.948-.15c-1.73-1.57-9.33-12.94-16.9-25.27l-13.76-22.42-19.98-6.66-19.99-6.66-.29-8.33c-.16-4.58.09-8.71.57-9.19.79-.79 45.15 13.47 50 16.06 3.05 1.63 34.22 52.84 34.22 56.22 0 3.64-3.69 7.75-7.62 8.5-2.52.48-3.73.05-6.25-2.25zm-126.91-69.08.28-12.77h21.5 21.5v12.5 12.5l-21.78.27-21.78.27zm31.2-26.673c5.05-2.111 11.66-8.547 13.86-13.508 5.98-13.473-1.55-30.42-15.34-34.514-6.58-1.954-9.24-1.971-15.55-.098-12.71 3.773-20.38 17.429-17.03 30.319 2.2 8.501 7.96 15.122 15.48 17.808 4.87 1.739 14.41 1.736 18.58-.007zm-17.41-5.128c-7.51-3.388-12.01-10.274-12.01-18.364 0-6.308 1.3-9.741 5.31-13.974 4.2-4.436 8.4-6.131 15.21-6.131 6.37 0 9.63 1.42 14.17 6.165 4.04 4.226 5.31 7.624 5.31 14.204 0 6.374-3.83 13.129-9.4 16.572-4.78 2.953-13.8 3.694-18.59 1.528z" fill="#048"/></svg>