<svg height="400" viewBox="0 0 200 200" width="400" xmlns="http://www.w3.org/2000/svg"><path d="m0 0h200v200h-200z" fill="#fff"/><path d="m5 100v-95h95 95v95 95h-95-95zm174.38814 56.3262c1.82988-2.90119-1.47338-5.48178-6.75215-5.27494l-4.32138.16932v-24.98928c0-13.7441-.29156-25.74907-.64791-26.677704-.53102-1.383809.20943-1.688428 4.10422-1.688428 6.0627 0 9.20919-2.819173 7.03398-6.302245l-1.39708-2.23708h-77c-67.804973 0-77.162003.194975-78.355235 1.63273-1.03612 1.24846-1.072273 2.253368-.15358 4.269662 1.019851 2.238339 1.930987 2.636933 6.027718 2.636933h4.826256v26.753672 26.75368l-2.935393-.22925c-5.64948-.44121-7.595229.0937-8.288729 2.27874-1.734999 5.46652-4.035589 5.32069 79.292093 5.02594 72.06106-.2549 77.48222-.40131 78.56736-2.12175zm-110.379104-12.37033c-7.045243-3.12247-8.503419-6.65417-8.503419-20.59522 0-19.12228 1.504106-20.1584 29.263373-20.1584 18.44629 0 19.83623.13752 20.86761 2.06466 1.42905 2.6702 1.41202 2.81287-.5724 4.79729-1.39322 1.39323-4.74903 1.67737-19.810186 1.67737-11.81673 0-17.903028.37181-17.473116 1.06742.421768.68243 15.852042 1.06741 42.782512 1.06741h42.12281l1.273 2.79393c1.12353 2.4659.98164 3.02986-1.20855 4.80337-2.27555 1.84263-4.60369 2.00945-28.04428 2.00945-16.77001 0-25.3358.36716-24.90302 1.06741.41119.66532 10.66126 1.06742 27.21017 1.06742 25.44263 0 26.5782.0874 27.21523 2.09451.36563 1.15198.14387 3.06783-.49279 4.25744-1.12878 2.10915-2.21173 2.16987-43.55633 2.44201-27.368173.18014-42.398753.65748-42.398753 1.34649 0 .6603 7.186217 1.17842 18.841713 1.35847 15.85228.24488 18.94243.55353 19.47652 1.94531.34913.90983.13927 2.58012-.46636 3.71174-1.02785 1.92057-2.39516 2.05252-20.543919 1.98248-10.693531-.0412-20.179451-.40151-21.079816-.80056zm-25.971827-14.1457c-3.676596-2.89202-3.75789-7.61349-.192476-11.17891 3.565424-3.56541 8.286914-3.48413 11.178916.19247 2.934721 3.73089 2.794207 7.3768-.40772 10.57872-3.201917 3.20192-6.847835 3.34244-10.57872.40772zm121.007731-69.257788v-7.425147l7.73877-.313617 7.73876-.313617v-8.005618-8.005618l-7.73876-.313617-7.73877-.313617v-7.425147-7.425147h-8.00562-8.00561v7.425147 7.425147l-7.73877.313617-7.73876.313617v8.005618 8.005618l7.73876.313617 7.73877.313617v7.425147 7.425147h8.00561 8.00562z" fill="#085"/></svg>