<svg height="575" viewBox="-4 -4 1192 1192" width="575" xmlns="http://www.w3.org/2000/svg"><circle cx="592" cy="592" fill="#fff" r="592"/><g transform="translate(187.32 15.498)"><path d="m511.44 750.73-107-.26-107.01-.25-.27-28.75-.26-28.75h78.24 78.24m-14.9-15h-78.75-78.75l-.28 93.25-.27 93.25-3.11 6.5c-4.56 9.52-10.14 15.27-19.15 19.73-7.38 3.64-8 3.77-18.21 3.77-9.91 0-10.99-.2-17.19-3.26-10.07-4.96-16.62-12.06-21.41-23.24-1.82-4.23-1.96-8.08-2.43-64.91l-.5-60.42-39.52 42.42c-38.04 40.82-39.8 42.55-47.04 46.24-14.06 7.16-30.284 5.92-43.14-3.29-6.662-4.77-13.127-13.91-15.426-21.82-2.534-8.72-1.578-21.06 2.267-29.24 3.56-7.57-3.208-.03 87.699-97.76 77.1-82.89 74.14-80.09 87.21-82.23 3.39-.56 31.95-.98 66.45-.98l60.5-.01m-19.99-152.99 36.48-52.13c24.81-35.47 38.07-53.54 41.49-56.56 6.51-5.75 21.15-12.97 30.02-14.83 13.97-2.91 27.57-1.31 40.66 4.79 17.56 8.18 29.03 20.85 35.52 39.22l2.82 8 .27 129.5.26 129.5m62.46 62.5h104.75 104.76v29 29h-75.75-75.75m-250.68-257.71-.32-2.74-1.83 2.81c-1.77 2.72-1.77 2.87 0 4.84l1.83 2.03.32-2.1c.17-1.16.17-3.33 0-4.84zm-230.78 92.66c-11.32-2.34-21.75-10.78-26.84-21.73-2.22-4.77-2.66-7.13-2.67-14.22-.01-7.46.37-9.31 3.13-15.15 3.68-7.8 9.3-13.78 16.25-17.31 3.09-1.56 22.98-6.91 52.26-14.05l47.28-11.53 30.23 30.22c16.63 16.63 30.08 30.39 29.89 30.58-.82.82-135.64 33.17-140.13 33.62-2.72.27-6.95.08-9.4-.43zm286.96-286.88c-35.7-4.96-61.31-34.02-61.29-69.57.01-32.31 20.94-59.52 52.42-68.13 8.64-2.36 26.09-2.35 34.87.02 24.79 6.7 43.99 25.9 50.61 50.61 2.14 8.01 2.41 25.27.51 33-1.97 8.05-9.23 22.64-14.56 29.28-8.08 10.06-23.32 19.67-36.63 23.09-7.33 1.88-19.08 2.65-25.93 1.7z"/><path d="m365.41 1166.8c-104.13-6.9-208.25-42.6-293.002-100.6-99.59-68.17-174.078-161.07-218.268-272.25-58.38-146.89-54.98-313.3 9.38-457.82 30.76-69.09 73.203-130.13 127.0231-182.69 61.3269-59.891 129.2669-102.806 210.8669-133.198 103.75-38.641 224.86-46.331 334-21.20573 137.85 31.73373 255.68 107.97373 341.45 220.91373 40.33 53.11 73.95 118.69 93.04 181.5 40.9 134.5 33.9 275.48-19.94 404-46.4 110.72-126.7 206.05-227.12 269.65-85.93 54.5-180.46 85.2-281.91 91.8-18.27 1.2-57.08 1.2-75.52-.1zm85.5-114.3c57.92-6 110.52-20.7 161-45 27.82-13.4 60.62-33.66 84.39-52.14l11.38-8.85-136.71-136.28-136.7-136.28-41.37-41.02-39.01-40.98-21.49-21.53-54.29-52.26c-16.64-16.6-29.91-30.31-29.48-30.45.43-.15-47.58-48.63-106.7-107.74-93.47-93.47-107.64-107.26-108.748-105.87-62.278 78.08-97.366 165.76-105.785 264.35-1.432 16.77-1.434 59.3 0 76 5.405 63.08 21.538 120.64 49.425 176.32 47.051 93.94 123.348 169.38 218.088 215.63 58.35 28.5 115.07 43.1 186.5 48 10.97.7 55.84-.5 69.5-1.9zm335.88-188.84c34.7-46.22 59.63-95.66 76.5-151.71 9.17-30.46 15.1-62.54 18.12-98 1.37-16.03 1.38-59.83.01-76-6.68-79.42-31.14-151.87-74.41-220.33-29.2-46.22-72.03-91.98-118.26-126.36-56.88-42.29-128.1-73.16-197.84-85.75-33.91-6.115-58.79-7.992-96.5-7.276-29.37.557-43.82 1.846-70.32 6.266-55.68 9.29-112.73 29.99-161.2 58.49-19.11 11.24-50.38 32.94-58.76 40.79l-2.78 2.6 116.23 116.24c63.94 63.94 116.37 116.12 116.52 115.97s12.06 11.56 26.48 26.01l32.33 32.27 190.44 191.04c104.75 105.07 190.79 191.04 191.21 191.04s5.92-6.88 12.23-15.29z" fill="#c00"/></g></svg>