<svg height="420" viewBox="-10 -10 420 420" width="420" xmlns="http://www.w3.org/2000/svg"><circle cx="200" cy="200" fill="#fff" r="205" stroke="#000" stroke-width="2"/><path d="m182.95 399.66c-.25-.23-3.3-.72-6.78-1.08-34.45-3.57-74.68-20.66-102.67-43.6-8.533-6.99-25.405-24.31-31.643-32.48-22.228-29.1-36.2444-63.14-40.5631-98.5-1.01214-8.29-1.03021-38.39-.0284-47.32 2.7923-24.88 12.2925-53.51 25.1955-75.94 11.732-20.393 29.888-41.792 47.539-56.029 29.58-23.862 66.49-39.2808 104.5-43.6575 8.28-.9534 41.34-.66371 47.5.4162 42.45 7.4395 73.09 20.9323 101.5 44.6963 22.87 19.13 38.95 39.608 52.09 66.334 9.52 19.36 14.28 35.09 18.93 62.5 1.08 6.39 1.38 39.38.43 47-4.65 37.03-18.62 71.46-40.81 100.5-6.48 8.49-23.29 25.63-32.14 32.78-24.57 19.85-56.12 34.75-86 40.61-5.78 1.13-12.07 2.33-14 2.66-4.17.72-42.4 1.7-43.05 1.11zm-80.26-95.87c.45-.67 8.01-21.03 16.81-45.25l16.01-44.04h64.44 64.45l15.72 43.5c8.65 23.93 16.21 44.29 16.81 45.25.94 1.52 2.78 1.75 14.02 1.75 7.11 0 13.14-.34 13.39-.75.26-.41-2.41-8.63-5.92-18.25-6.83-18.74-6.93-19.12-5.44-21.76 1-1.78 14.02-49.16 14.02-51.03 0-1.41-37.85-88.32-39.15-89.89-.68-.83-4.66-1.35-11.67-1.54l-10.62-.28-.17-3.29c-.09-1.82-.82-4.07-1.63-5-.81-.94-9.64-11.7-19.62-23.908-9.99-12.209-19.15-22.896-20.37-23.75-1.75-1.226-5.2-1.552-16.43-1.552-7.81 0-15.31.418-16.65.928-1.68.638-4.7 4.839-9.66 13.46-3.98 6.892-7.75 12.959-8.38 13.482s-6.75 3.391-13.6 6.374c-14.48 6.306-17.52 9.046-15 13.556 2.47 4.41 5.66 3.99 21.29-2.83 7.79-3.4 14.96-6.95 15.94-7.89.98-.93 3.46-4.564 5.5-8.065 2.05-3.501 4.28-6.549 4.97-6.773 1.76-.574 1.8 32.808.05 34.558-.89.89-11.15 1.2-39.98 1.2h-38.77l-1.45 2.25c-2.07 3.2-38.6 87.42-38.6 88.97 0 2.11 12.927 49.09 14.177 51.52.978 1.9.161 4.97-5.447 20.45-3.629 10.02-6.376 18.57-6.105 19.01.839 1.36 26.145.97 27.065-.41zm-11.053-50.57c-.888-1.44-10.637-37.47-10.637-39.32 0-1.79 34.58-81.68 36.21-83.65 1.52-1.83 69.64-1.81 70.34.02.27.7-4.22 13.86-9.98 29.25l-10.46 27.98-24.97.5c-13.74.28-25.18.72-25.42 1s-5.52 14.68-11.74 32c-6.212 17.32-11.625 31.88-12.025 32.34-.401.46-.994.41-1.318-.12zm214.523-1.31c-.5-1.32-5.7-15.64-11.55-31.82s-11.13-30.01-11.74-30.75c-.9-1.09-10.45-1.34-50.49-1.34-46.38 0-49.38-.11-49.33-1.75.02-.96 4.7-14.13 10.4-29.25l10.35-27.5h3.35c3.22 0 3.59.42 9.57 11 3.42 6.05 7.29 12.83 8.61 15.06 2.02 3.43 5.08 5.63 19.78 14.18 9.57 5.56 18.6 10.41 20.09 10.78 2.11.52 3.26.11 5.25-1.88 5.64-5.64 2.93-8.86-17.35-20.6l-15.4-8.92-4.85-8.69c-2.67-4.77-4.85-9.3-4.85-10.06 0-1.92 53.21-2.04 54.76-.12 1.41 1.74 36.24 82.05 36.24 83.55 0 2.22-10.18 38.68-11.06 39.61-.51.54-1.24-.09-1.78-1.5zm-83.96-131.11c-1.75-1.75-1.7-37.824.05-37.74 1.46.069 30.09 35.09 30.57 37.39.28 1.34-1.64 1.55-14.55 1.55-10.23 0-15.24-.37-16.07-1.2zm-10.11-61.349c3.72-1.92 6.9-6.977 6.9-10.951 0-7.148-7.44-13.256-14.54-11.925-3.94.74-9.39 6.27-9.56 9.71-.35 7.027 1.41 10.626 6.41 13.091 4.07 2.005 7.02 2.026 10.79.075z" fill="#048"/></svg>