<svg height="400" viewBox="0 0 200 200" width="400" xmlns="http://www.w3.org/2000/svg"><path d="m0 0h200v200h-200z" fill="#fff"/><path d="m5 5h190v190h-190z" fill="#085"/><g fill="#fff"><g><path d="m55.48 94.11c1.16-7.538 4.84-8.618 19.47-8.562 13.34.038 18.18.93 19.66 7.961.34.563.68 27.411.35 37.381-.1 3.07-8.11 5.02-8.51-.54-.09-11.85.01-21-.21-32.42 0 0-.8-.112-1.07.047l-.22 40.563c.2 12.16-.27 25.76-.23 36.54-.18 4.75-8.59 3.38-8.62 0l-.14-47.42s-1.83-.06-2.02-.04l-.38 47.37c0 5.22-8.64 4.12-8.63-.22l.09-37.32s-.26-39.116-.3-39.745c-.26-1.418-.89-.056-1.05-.056l-.22 33.411c-.35 3.79-8.03 4.2-8.28-.46z"/><path d="m68.65 69.543c2.89-3.455 8.31-3.37 11.85 0 3.15 3.004 2.71 8.618.15 11.002-3.4 3.154-8.8 3.004-12 0s-2.94-7.501 0-11.002z"/></g><g><path d="m70.835 21.837h8.358l-.116 11.643h8.955c4.278 0 4.776 6.014 4.776 7.751h-35.222c0-1.833.597-7.751 4.776-7.751h8.358z"/><path d="m164.38 58.592v-4.514h5.94 6.91v-9.027-9.027h-7.17-5.68v-4.514-9.027h-8.57-8.58v9.027 4.514h-4.28-8.57v9.027 9.027h4.28 8.57v4.514 9.027h10.05 7.1z"/><path d="m39.313 108.59a2.5761 2.4971 0 0 1 -5.152 0 2.5761 2.4971 0 1 1 5.152 0zm71.437.33a2.58 2.5009 0 0 0 5.16 0 2.58 2.5009 0 1 0 -5.16 0zm-33.297-63.634a2.5761 2.4971 0 0 1 -5.152 0 2.5761 2.4971 0 1 1 5.152 0zm.106 8.564a2.5761 2.4971 0 0 1 -5.152 0 2.5761 2.4971 0 1 1 5.152 0zm.182 8.685a2.5761 2.4971 0 0 1 -5.152 0 2.5761 2.4971 0 1 1 5.152 0zm-14.786 15.848a2.5761 2.4971 0 0 1 -5.152 0 2.5761 2.4971 0 1 1 5.152 0zm1.851-8.037a2.5765 2.4975 0 0 1 -5.153 0 2.5765 2.4975 0 1 1 5.153 0zm1.681-8.555a2.5761 2.4971 0 0 1 -5.152 0 2.5761 2.4971 0 1 1 5.152 0zm2.449-8.264a2.5761 2.4971 0 0 1 -5.152 0 2.5761 2.4971 0 1 1 5.152 0zm-32.565 63.463a2.5761 2.4971 0 0 1 -5.152 0 2.5761 2.4971 0 1 1 5.152 0zm5.875-16.06a2.5761 2.4971 0 0 1 -5.152 0 2.5761 2.4971 0 1 1 5.152 0zm3.023-8.102a2.5761 2.4971 0 0 1 -5.152 0 2.5761 2.4971 0 1 1 5.152 0zm3.202-7.836a2.5761 2.4971 0 0 1 -5.152 0 2.5761 2.4971 0 1 1 5.152 0zm3.27-7.817a2.5761 2.4971 0 0 1 -5.152 0 2.5761 2.4971 0 1 1 5.152 0zm3.214-8.325a2.5761 2.4971 0 0 1 -5.152 0 2.5761 2.4971 0 1 1 5.152 0zm2.706-7.474a2.5761 2.4971 0 0 1 -5.152 0 2.5761 2.4971 0 1 1 5.152 0zm3.04-8.269a2.5761 2.4971 0 0 1 -5.152 0 2.5761 2.4971 0 1 1 5.152 0zm3.143-7.385a2.5761 2.4971 0 0 1 -5.152 0 2.5761 2.4971 0 1 1 5.152 0zm6.906-.209a2.5761 2.4971 0 0 1 -5.152 0 2.5761 2.4971 0 1 1 5.152 0zm16.133 32.738a2.5761 2.4971 0 0 0 5.152 0 2.5761 2.4971 0 1 0 -5.152 0zm-1.793-8.064a2.5761 2.4971 0 0 0 5.152 0 2.5761 2.4971 0 1 0 -5.152 0zm-1.835-8.556a2.5761 2.4971 0 0 0 5.152 0 2.5761 2.4971 0 1 0 -5.152 0zm-1.864-8.101a2.5761 2.4971 0 0 0 5.152 0 2.5761 2.4971 0 1 0 -5.152 0zm32.629 63.46a2.58 2.5009 0 0 0 5.16 0 2.58 2.5009 0 1 0 -5.16 0zm-6.36-16.06a2.5761 2.4971 0 0 0 5.15 0 2.5761 2.4971 0 1 0 -5.15 0zm-2.88-8.127a2.5761 2.4971 0 0 0 5.15 0 2.5761 2.4971 0 1 0 -5.15 0zm-2.99-7.482a2.5761 2.4971 0 0 0 5.15 0 2.5761 2.4971 0 1 0 -5.15 0zm-3.482-8.489a2.5761 2.4971 0 0 0 5.152 0 2.5761 2.4971 0 1 0 -5.152 0zm-2.782-7.757a2.577 2.498 0 0 0 5.154 0 2.577 2.498 0 1 0 -5.154 0zm-3.023-7.877a2.5761 2.4971 0 0 0 5.152 0 2.5761 2.4971 0 1 0 -5.152 0zm-2.973-7.925a2.5761 2.4971 0 0 0 5.152 0 2.5761 2.4971 0 1 0 -5.152 0zm-2.93-7.728a2.5761 2.4971 0 0 0 5.152 0 2.5761 2.4971 0 1 0 -5.152 0zm-7.003-.046a2.5761 2.4971 0 0 0 5.152 0 2.5761 2.4971 0 1 0 -5.152 0z"/></g></g></svg>