<svg height="420" viewBox="-10 -10 420 420" width="420" xmlns="http://www.w3.org/2000/svg"><circle cx="200" cy="200" fill="#fff" r="205" stroke="#000" stroke-width="2"/><path d="m183.95 399.65c-.25-.23-3.46-.73-7.15-1.1-34.27-3.42-71.78-18.99-101.3-42.06-9.029-7.05-26.755-24.96-33.646-33.99-22.089-28.94-36.2712-63.38-40.5601-98.5-1.03055-8.44-1.02323-39.64.0112-47.99 4.2925-34.66 18.7279-69.76 40.5169-98.51 11.201-14.779 32.407-34.188 49.678-45.47 21.26-13.885 54.87-26.7109 77.5-29.5692 3.03-.3821 6.4-.907 7.5-1.1663 5.28-1.24409 37.7-1.08804 47.5.2286 39.26 5.2738 74.58 20.5049 103.5 44.6249 36.25 30.239 61.05 72.822 69.41 119.172 4.53 25.14 3.32 59.06-2.96 83.18-9.2 35.34-25.79 64.97-50.85 90.82-20.18 20.81-42.82 35.93-69.81 46.62-10.99 4.35-33.35 10.48-42.29 11.61-3.03.37-6.4.9-7.5 1.16-2.63.63-38.96 1.49-39.55.94zm37.17-40.72c1.72-.92 1.88-2.39 1.88-17.56 0-14.68.22-16.86 1.9-19.24 3.28-4.6 5.4-12.68 4.83-18.41l-.52-5.22 41.48-82.71c22.81-45.49 41.18-83.19 40.81-83.78-.36-.6-9.24-5.37-19.72-10.62-15.66-7.84-19.28-9.3-20.31-8.21-.68.72-19.57 37.91-41.97 82.63-37.48 74.83-41.03 81.5-44.45 83.66-8.91 5.62-15.05 16.27-15.05 26.11 0 5 2.38 12.71 5.12 16.57 1.66 2.35 1.88 4.61 1.88 19.2 0 12.13.33 16.75 1.25 17.34 3.48 2.25 38.75 2.45 42.87.24zm-27.74-39.37c-1.72-.74-4.4-3.03-5.97-5.08-5.72-7.51-2.53-19.44 6.19-23.09 10.82-4.52 21.39 2.46 21.39 14.11 0 11.67-10.86 18.74-21.61 14.06zm-38.57-139.06c13.3-7.7 24.17-14.45 24.16-15-.01-1.33-57.14-34.37-58.51-33.85-1.21.47-4.46 5.66-4.46 7.13 0 .53 7.2 5.13 16 10.22s16 9.65 16 10.13-16.55.87-36.8.87c-27.289 0-37.11.31-38 1.2-1.804 1.8-1.527 8.46.382 9.19.87.34 17.97.61 37.998.61 21.92 0 36.42.37 36.42.93 0 .52-6.71 4.82-14.92 9.56s-15.44 9.23-16.06 9.99c-1.3 1.56.94 6.99 3.21 7.78 1.4.49.59.93 34.58-18.76zm66.61-49.11c1.41-.54 1.58-5.44 1.58-45.022v-44.418l-2.75-1.141c-3.96-1.643-38.04-1.633-41 .012l-2.25 1.249v43.765c0 32.705.3 44.065 1.2 44.965 1.27 1.27 40.07 1.8 43.22.59z" fill="#048"/></svg>