<svg height="575" viewBox="-268 -122 1220 1220" width="575" xmlns="http://www.w3.org/2000/svg"><circle cx="342" cy="483" fill="#fff" r="600" stroke="#000" stroke-width="4"/><path d="m556.07 764.22-6.11-.36h-5.75v43.28 43.28l-10 5.29-10 5.3v-48.57-48.58h-69-69v67.94 67.94l-4.25.51c-2.33.29-6.83.77-10 1.07l-5.75.56v-69.01-69.01h-16c-8.8 0-16-.36-16-.79 0-.44-2.25-15.07-5-32.51s-5-31.93-5-32.21c0-.27 9.45-.49 21-.49h21v-5.5-5.5h10 10v5.5 5.5h51.74 51.73m-23.93-24h-15.27-15.27v2.53c0 3.63-2.66 9.51-5.8 12.81-4.13 4.36-9.44 6.66-15.34 6.66-10.37 0-18.83-6.76-20.9-16.69l-1.1-5.32-91.18.26-91.17.25-7.5 14.17c-4.13 7.79-8.5 15.52-9.72 17.16-1.76 2.38-6 5-13.94 8.6-.09.04 1.55 10.87 3.63 24.07s3.58 24.34 3.34 24.75-12.56.75-27.37.75h-26.95v40.5c0 22.28-.33 40.48-.75 40.45-.41-.03-4.8-2.62-9.75-5.77l-9-5.72-.26-34.73-.26-34.73h-10.97-10.973l-.266 26.62-.267 26.62-9.749-7.87-9.75-7.87v-18.75l-.001-18.75h-18.949-18.949l-3.116-3.25c-5.569-5.81-21.5058-26-28.58072-36.22-8.48418-12.25-16.40528-24.68-16.40528-25.74 0-.43 19.3503-.79 43-.79h43v-12-12h-49.991-49.99l-5.01-9.98c-2.755-5.49-5.009-10.21-5.009-10.5 0-.28 24.753-.52 55.005-.52h55.006l-.256-188.49-.255-188.5 10.261 10.26 10.261 10.27-.016 178.23-.016 178.23h11.006 11v-167.24-167.25l10.02 10.02 10.01 10.01-.02 157.25-.02 157.26 19.22-.28 19.22-.27 17.81-33.5c9.81-18.42 18.9-36.2 20.21-39.5 1.32-3.35 7.75-32.3 14.53-65.5 9.9-48.49 12.09-60.75 11.83-66.24l-.31-6.75 20.7 20.68c11.38 11.38 20.54 19.5 20.35 19.81s-4.45 23.38-9.47 49.5c-5.01 26.13-10.02 51.1-11.13 55.5-2.32 9.23-3.6 11.93-20.28 43l-12.35 23 83 .26c45.65.14 83.19.07 83.42-.16s-2.72-16.03-6.54-35.11l-6.95-34.71m-263.25 103.22v-12h-11-10.996v12 12h10.996 11zm41.18 5.75c-.28-5.4.09-7.06 2.7-12l3.02-5.75h-13.45-13.45v12 12h10.75l10.75.01zm276.04-54.67c-.36.36 1.31 10.26 2.42 14.17.41 1.44 8.02 1.38 13.5 1.38m79.86-54.13v-219.75-219.75h-196.53-196.53l.28 23.99.28 23.98-10.25-10.22-10.25-10.21v-13.77-13.77h-11-10.996v2.71c0 2.69-.024 2.69-4.471-1.68l-4.472-4.39 11.222-8.31c9.917-7.34 11.717-8.31 15.467-8.32 3.99-.01 4.25-.18 4.25-2.81 0-2.21.9-3.37 4.25-5.48 2.34-1.47 6.73-4.23 9.75-6.14l5.5-3.47.5 8.7.5 8.69 196.25.25 196.25.26v-16.51c0-9.07.34-16.49.75-16.48.42 0 4.8 2.19 9.75 4.85l9 4.84.29 11.65.28 11.64 18.72.01 18.71.01 13 9.74 13 9.74-31.75.27-31.75.26v229.75 229.74c11.51 11.5 23.02 22.99 34.53 34.48h51.73 51.74l.25-207.14.25-207.14 7.1 10.39c3.91 5.72 8.29 12.46 9.75 14.98l2.65 4.59v192.16 192.16h11.5c6.33 0 11.5.24 11.5.52 0 .29-2.25 5.01-5 10.5l-5.01 9.98h-6.49-6.5v12.04 12.03l-6.14 9.72c-6.5 10.26-15.71 23.43-22.15 31.65l-3.86 4.94m-455.08-454.12 4.37-2.97c7.8-5.31 7.61-5.29 60.26-5.27 56.01.03 53.91-.26 61.21 8.59 2.22 2.69 15.24 19.71 28.95 37.81 17.96 23.73 26.05 33.65 29.01 35.52 2.26 1.43 22.06 10.7 44 20.58 43.59 19.65 45.95 21.1 48.36 29.71 3.6 12.86-6.15 26.1-19.17 26.03-4.66-.02-10.46-2.37-51.26-20.74-28.41-12.8-47.57-22-50.11-24.07-2.26-1.84-13.28-15.46-24.5-30.25l-20.39-26.9-.26 30.59-.27 30.58m357.03 286.53v-12h-41.23-41.23c7.97 8 15.95 16 23.93 24h29.27 29.26zm-523.5-192.86c-5.15-2.34-10.12-8.01-11.5-13.14-.73-2.72-.98-20.97-.78-56.26l.3-52.24 2.45-6.28 2.45-6.28 17.79 17.77 17.79 17.77v40.58c0 45.24-.31 47.95-6.22 53.67-6.4 6.2-14.72 7.84-22.28 4.41zm114.28-222.17c-12.22-2.06-24.4-11.34-30.06-22.89-3-6.14-3.22-7.28-3.22-17.08 0-9.31.31-11.15 2.7-16.25 1.48-3.16 5.04-8.23 7.91-11.27 23.28-24.61 64.21-11.59 68.96 21.95 1.07 7.61-.54 17.66-3.89 24.21-5.22 10.22-16.1 18.39-27.75 20.86-7.61 1.61-7.84 1.62-14.65.47z"/><path d="m311.56 1074c-2.48-.2-10.8-.9-18.5-1.5-64.9-4.9-134.56-23.2-197.505-51.9-78.449-35.71-151.687-91.67-207.105-158.21-83.74-100.57-131.01-222.78-137-354.18-6.43-140.94 38.95-281.35 126.74-392.15 81.645-103.058 194.118-175.69 321.37-207.534 39.39-9.856 78.24-15.336 119.75-16.876 23.82-.88 61.72.02 79.75 1.91 99.7 10.442 188 41.748 269.95 95.723 116.73 76.878 203.07 194.337 242.03 329.277 41.71 144.44 26.93 298.86-41.49 433.5-47.25 92.98-121.03 174.23-208.58 229.69-80.01 50.65-166.95 80.65-262.59 90.35-14.34 1.5-75.77 2.8-86.82 1.9zm77.5-114.88c91.68-9.52 176.39-43.18 246.31-97.86l10.31-8.07-44.81-44.82-44.81-44.81-2.14-1.13-31.93-31.93-31.92-31.94-.06-1.02-11.96-11.99-11.96-11.99-2.49-1.5-9.27-9.21-9.27-9.21-.05-1.08-7.92-7.97c-4.36-4.39-8.06-7.84-8.21-7.69-.16.16-11.87-11.34-26.04-25.54-20.63-20.69-25.89-25.47-26.45-24.06-.51 1.3-.71 1-.76-1.14-.09-3.4-2.53-6-60.54-64.35-21.47-21.59-39.49-39.25-40.06-39.25-.56 0-10.02-9.23-21-20.5-10.99-11.28-30.32-31.09-42.97-44.03l-23-23.53-1.5.54-17.5-17.48c-9.63-9.62-17.5-17.93-17.5-18.47 0-1.31-18.17-19.53-19.47-19.53-.55 0-5.17-4.16-10.27-9.23l-9.26-9.23-1-3.01-10.24-10.27c-5.624-5.64-10.711-10.26-11.3-10.26s-5.547-4.74-11.018-10.54c-13.578-14.38-105.792-107.47-106.433-107.44-.282.01-4.299 4.95-8.926 10.98-80.113 104.41-113.903 235.78-93.993 365.45 20.37 132.66 97.038 252.24 208.905 325.82 70.225 46.2 148.435 72.66 232.505 78.66 17.08 1.23 60.35.46 78-1.37zm330.75-181.93c82.97-105.91 117.1-242.46 94.14-376.63-21.97-128.4-99.08-246.04-207.98-317.308-69.42-45.431-144.91-71.088-228.81-77.7693-19.01-1.5137-68.17-.6639-86.6 1.4969-78.76 9.2334-148.87 34.7534-213.128 77.5784-14.817 9.874-37.808 26.882-37.855 28.012-.012.28 9.408 9.93 20.933 21.44l20.955 20.94 15.331 15.12 14.264 14.83 1.5.52 51.63 52.09c39.04 39.38 51.93 51.82 52.89 51.03.93-.78 1.23-.64 1.12.52-.08.86 80.89 82.84 180.28 182.53l180.42 180.97 2.21 1.02 9.45 9.49 9.46 9.49.09 1.02 11.96 11.99 11.95 11.99 2.47 1.5 22.34 22.25c12.28 12.24 22.08 22.25 21.79 22.25-.3 0 8.9 9.45 20.44 21s21.25 21 21.59 21c.33 0 3.55-3.77 7.16-8.37zm-47.25-37.13c1.27-1.69 2.35-1.65 1 0-.69.82-1.47 1.5-1.75 1.5-.27 0 .06-.68.75-1.5z" fill="#c00"/></svg>