<svg height="575" width="575" xmlns="http://www.w3.org/2000/svg"><path d="m574.07 287.5c0 158.27-128.3 286.57-286.57 286.57s-286.57-128.3-286.57-286.57 128.3-286.57 286.57-286.57 286.57 128.3 286.57 286.57z" fill="#fff" stroke="#000" stroke-linecap="square"/><path d="m89.071 383.33-14.939-41.887 143.21.5044 18.082 20.362 259.73-.85732-9.2866 22.242zm167-35.628h-17.884l81.708-57.351 2.9741-50.716-30.431 21.833c-.32355 0-20.283-21.073-22.015-23.207-11.657-42.967 14.06-74.464 37.681-89.098 14.996 22.497 30.345 45.114 45.237 67.685l-22.075 17.218 15.895 8.3007 74.3-53.002c45.347-39.991 76.68 19.879 46.962 41.906l-123.69 85.741c-1.9382-2.1136-3.4111-4.673-5.2819-6.9481-.58389-.80787 23.444-17.816 120.29-84.437 24.989-18.871-.7897-50.877-22.263-35.495l-78.958 57.163 10.984 5.8707 81.415-56.08c-.44156 4.8229-1.116 8.4566-1.9191 13.58-40.618 28.868-81.284 57.662-121.93 86.484zm84.879-132.9-35.468-52.012c-24.764 18.366-37.498 59.512-19.3 91.15zm-34.247-21.702c14.657-2.1774 23.899 9.2247 18.947 23.004-1.4549 4.0504-6.3371 8.3534-10.11 9.8127-13.54 3.1026-19.616-5.4233-21.456-13.401-2.2757-9.8649 5.8188-18.388 12.619-19.416zm6.9594 22.947c3.2593-1.7425 4.4648-5.8942 2.7176-9.36-2.5205-5.0001-9.1213-5.2199-12.048-.40112-1.5702 3.2317-.56017 6.7838 1.3373 8.6277 2.6348 2.2581 4.8018 2.2779 7.9931 1.1334zm7.5695-76.86 55.58-42.084 5.1315 7.2399-47.501 36.685 34.789 52.024c2.9855-1.5986 50.491-34.462 50.953-34.599l5.292 6.7282-58.185 41.152z"/><path d="m287.48 9.1495c-68.53 0-131.28 24.948-179.72 66.25-1.27 1.083-2.53 2.175-3.78 3.281-.5.444-1 .895-1.5 1.344-1.07.96-2.13 1.929-3.189 2.906-.281.26-.563.519-.843.781-1.25 1.165-2.492 2.343-3.719 3.531-1.408 1.362-2.809 2.734-4.188 4.125-1.353 1.365-2.706 2.732-4.031 4.125-1.374 1.446-2.719 2.931-4.062 4.406-.154.171-.316.331-.469.501-1.162 1.28-2.3 2.57-3.438 3.87-1.242 1.43-2.442 2.87-3.656 4.32-.047.05-.109.1-.156.15-40.496 48.38-64.906 110.73-64.906 178.78 0 153.66 124.38 278.34 277.66 278.34 68.68 0 131.54-25.07 180.03-66.53l.03.03c.39-.33.78-.66 1.16-1 .16-.13.31-.27.47-.4.94-.82 1.88-1.64 2.81-2.47.74-.66 1.46-1.31 2.19-1.97.21-.19.42-.37.62-.56.97-.89 1.92-1.79 2.88-2.69.86-.81 1.71-1.62 2.56-2.44.12-.11.23-.23.35-.34 1.08-1.06 2.14-2.12 3.21-3.19.32-.31.63-.62.94-.94 1.25-1.26 2.49-2.55 3.72-3.84.12-.13.25-.25.38-.38 1.4-1.48 2.81-2.98 4.18-4.5 1.26-1.39 2.49-2.8 3.72-4.21.23-.27.46-.52.69-.79 1.05-1.21 2.09-2.45 3.12-3.68 40.33-48.33 64.63-110.55 64.63-178.44.01-153.66-124.4-278.38-277.68-278.38zm0 62.062c119.11 0 215.78 96.908 215.78 216.31 0 50.85-17.51 97.62-46.84 134.56l-304.5-302.78c37.06-30.058 84.21-48.09 135.56-48.09zm-168.62 81.408 304.56 302.84c-37.12 30.24-84.42 48.37-135.94 48.37-119.11 0-215.75-96.91-215.75-216.31 0-51 17.636-97.91 47.13-134.91z" fill="#c00" stroke="#c00" stroke-width="2"/></svg>