<svg height="420" viewBox="-10 -10 420 420" width="420" xmlns="http://www.w3.org/2000/svg"><circle cx="200" cy="200" fill="#fff" r="205" stroke="#000" stroke-width="2"/><path d="m182.95 399.66c-.25-.23-3.13-.7-6.4-1.04-35.1-3.71-71.09-18.71-101.05-42.13-9.031-7.05-26.757-24.96-33.646-33.99-22.243-29.14-36.2414-63.14-40.5601-98.5-.99596-8.15-1.03479-37.14-.0625-46.66 3.4292-33.56 18.7346-71.18 40.6256-99.84 6.867-8.99 23.538-25.83 33.143-33.478 29.39-23.405 67.15-39.2031 102.24-42.7815 9.38-.95619 37.38-.95512 45.76.0018 58.45 6.6751 112.13 40.0947 144.96 90.2577 15.95 24.38 27.85 57.93 30.82 86.94.96 9.36.92 36.28-.06 45.06-4.09 36.54-20.75 75.15-44.89 104-19.15 22.9-40.79 39.84-67.04 52.5-18.71 9.02-35.73 14.22-60.79 18.55-4.16.72-42.39 1.7-43.05 1.11zm12.85-78.86c1.34-1.34 1.6-8.62.38-10.54-.6-.95-11.9-1.3-48.73-1.5l-47.95-.26v-10-10l47.41-.26c32.98-.18 47.82-.6 48.75-1.37.81-.68 1.34-3.2 1.34-6.41 0-9.31 4.96-8.46-49.64-8.46h-48.428l.284-10.75.284-10.75 14-.5 14-.5.26-87.13c.2-68.079.52-87.343 1.5-88.091 1.14-.879 15.93-4.744 18.24-4.769.66-.006 1.17 30.98 1.5 89.99l.5 90h23 23l.28-45 .27-45-20.73-46.75c-17.67-39.822-21.04-46.744-22.78-46.708-1.12.023-8.79 1.767-17.04 3.874l-15 3.833-.77 11.375c-2.73 40.186-8.02 61.286-19.64 78.376l-4.085 6-.003 75.05c-.001 57.04.286 75.34 1.198 76.25.9.9 13.22 1.2 49.3 1.2s48.4-.3 49.3-1.2zm105.62.59c1.42-.54 1.58-8.26 1.58-76.99v-76.38l-3.62-4.74c-11.07-14.51-19.38-48.33-19.38-78.901 0-6.118-.41-9.458-1.25-10.115-1.73-1.356-30.26-8.508-32.3-8.097-1.12.224-8.47 15.557-22.57 47.083l-20.9 46.75.26 44.75.26 44.75h23 23l.26-89.46c.14-49.2.59-89.79 1-90.205.78-.779 15.28 2.582 18.44 4.275 1.69.903 1.8 5.641 2.04 88.17l.26 87.22 14.5.5 14.5.5v10.5 10.5l-48.5.5-48.5.5v7.5 7.5l48.5.5 48.5.5v10 10l-48.5.5-48.5.5-.31 4.87c-.17 2.68-.07 5.5.22 6.25.44 1.15 8.68 1.38 48.48 1.38 26.37 0 48.66-.27 49.53-.61zm-86.45-203.96c16.86-35.963 17.46-37.331 16.82-37.974-.29-.287-4.07.497-8.41 1.743-6.67 1.919-10.25 2.265-23.38 2.262-11.56-.003-17.03-.436-21.5-1.704-3.3-.935-7.08-2.008-8.4-2.384-2.16-.615-2.33-.439-1.78 1.781.34 1.356 3.5 8.513 7.02 15.905 3.52 7.391 7.31 15.471 8.44 17.941 9.06 19.92 15.36 32.12 16.41 31.77.67-.22 7.32-13.43 14.78-29.34z" fill="#048"/></svg>