<svg height="575" viewBox="-265 -50 1210 1210" width="575" xmlns="http://www.w3.org/2000/svg"><circle cx="340" cy="555" fill="#fff" r="600" stroke="#000" stroke-width="4"/><path d="m561.95 842.68c.28.55 3.21 12.71 6.92 26.18 3.72 13.48 6.97 25.06 7.23 25.75.37.98-5.02 1.25-24.89 1.25h-25.36l-9.28-33.25c-5.1-18.29-9.74-34.94-10.29-37l-1.02-3.75h-164.9-164.91l-1.02 3.75c-.56 2.06-5.19 18.71-10.29 37l-9.27 33.25h-25.22c-19.77 0-25.13-.27-24.76-1.25 1.06-2.84 19.47-70.34 19.47-71.4 0-.83-7.26-1.28-25.753-1.62-28.29-.51-31.519-1.04-45.09-7.3-18.261-8.42-32.609-23.17-40.288-41.43-1.995-4.74-51.872-202.36-51.872-205.52 0-.26 10.783-.48 23.962-.48h23.9611l.9989 3.75c.865 3.25 9.088 36.65 10.586 43 .48 2.04 1.119 2.25 6.761 2.24 8.359-.02 14.744-1.85 27.601-7.93 13.414-6.34 22.765-8.47 33.63-7.66 10.549.79 13.853 1.76 27.503 8.07 13.26 6.14 18.88 7.53 30.34 7.53 10.58 0 17.76-1.9 30.16-7.98 12.49-6.13 23.47-8.56 34.54-7.63 9.83.82 16.34 2.78 27.04 8.15 11.05 5.55 18.58 7.46 29.42 7.46 10.95 0 17.48-1.69 30.59-7.91 5.72-2.72 12.94-5.6 16.04-6.39l5.62-1.44zm-189.23-189.81c-.55.01-7.36-2.23-12.86-4.98-12.46-6.22-19.42-8.03-31-8.03-11.35 0-18.17 1.74-31.57 8.05-22.16 10.44-36.71 10.44-58.86 0-13.41-6.31-20.22-8.05-31.57-8.05-11.36 0-18.25 1.78-30.98 7.98-21.85 10.64-38.71 10.48-60.77-.6-10.74-5.4-18.645-7.35-29.753-7.35-11.201 0-19.02 1.96-30.135 7.54-5.032 2.53-12.347 5.42-16.256 6.42-5.982 1.54-7.074 2.15-6.889 3.82.423 3.82 23.354 94.43 24.734 97.74 1.724 4.12 8.626 11.72 13.242 14.57 8.021 4.96-1.767 4.74 217.797 4.82l206 .06zm80.14-53.28 8.31 1.57c5.43 1.02 12.02 3.31 19 6.6 13.39 6.3 20.32 8.1 31.19 8.1 10.73 0 18.01-1.83 29.54-7.43 13.62-6.61 19.23-8.04 31.46-7.98 12.64.06 16.12.95 31 7.92 6.32 2.97 12.73 5.69 14.25 6.05l2.75.66-.01-157.86c0-155.75-.03-157.9-1.99-161.12-4.11-6.75-13.18-9.26-19.51-5.39-3.2 1.94-18.49 18.28-18.49 19.75 0 .47 3.23 8.21 7.18 17.19l7.19 16.33-9.62 9.62-9.63 9.63-14.31-13.65c-7.87-7.5-24.59-23.67-37.14-35.93l-22.84-22.29 9.84-9.68 9.83-9.68 16.97 6.97 16.97 6.96 10.53-10.56c5.79-5.81 12.55-11.91 15.03-13.55 13.17-8.75 33.52-9.34 49-1.44 10.26 5.25 19.34 16.39 22.99 28.19 1.97 6.4 2.01 9.08 2.01 164.9 0 170.39-.3 160.96 4.87 156.64 1.58-1.31 3.1-5.96 6.15-18.75 2.23-9.35 4.5-18.69 5.05-20.75l1-3.75h23.97c14.91 0 23.96.37 23.96.98 0 2.83-48.47 196.54-50.59 202.15-3 7.97-7.89 16.27-13.56 23.05l-4.19 5.01zm167.27 162.01c1.17-1.24 3-4.28 4.07-6.75 2.16-5.01 25.64-99.84 24.9-100.58-.26-.26-3.77.04-7.8.67-13.01 2.02-22.1.26-38.94-7.54-13.34-6.18-18.87-7.54-30.66-7.54-10.94 0-18.39 1.96-30.84 8.09-9.97 4.92-20.41 7.86-28 7.89l-4 .02 108.57 108c.32 0 1.54-1.02 2.7-2.26zm-134.47-186.7c-8.91-5.42-8.24-19.99 1.11-24.43 6.93-3.29 14.48-1.01 18.65 5.63 1.57 2.49 1.95 4.43 1.62 8.2-.36 4.22-1.01 5.48-4.52 8.75-3.56 3.32-4.7 3.81-8.87 3.81-2.99 0-6-.74-7.99-1.96zm-45-43.93c-4.64-2.92-6.69-6.61-6.69-12.05 0-8.07 6.01-14.06 14.09-14.05 12.39.01 18.4 15.77 9.34 24.46-4.02 3.84-11.98 4.62-16.74 1.64zm64.72-3.81c-10.03-5.19-10.6-19.84-.98-24.82 6.94-3.59 16.77-.56 19.52 6.01 5.21 12.47-6.96 24.81-18.54 18.81zm-40.43-38.35c-6.02-5.29-7.08-13.52-2.48-19.37 8.48-10.78 25.34-4.69 25.13 9.07-.12 7.96-5.95 13.34-14.46 13.35-3.83 0-5.36-.57-8.19-3.05zm-72.34-4.76c-9-4.8-10.35-16.38-2.7-23.1 3.01-2.64 4.3-3.09 8.95-3.09 4.62 0 5.94.45 8.9 3.05 1.91 1.68 4 4.64 4.64 6.59 3.85 11.65-8.94 22.34-19.79 16.55zm132.14-3.27c-3.75-1.09-8.21-5.35-9.04-8.63-.33-1.33-.37-4.44-.09-6.92 1.54-13.68 20.33-16.32 25.94-3.64 3.48 7.88.51 15.57-7.21 18.66-4.48 1.79-5.14 1.83-9.6.53zm-99.39-30.81c-12.65-6.94-7.85-26.44 6.5-26.44 10.07 0 17.2 10.83 12.98 19.72-3.51 7.41-12.54 10.52-19.48 6.72zm68 1.24c-3.2-1.28-7.08-5.93-8.1-9.7-2.02-7.51 3.1-15.81 10.62-17.22 13.76-2.58 22.52 14 12.61 23.9-2.45 2.45-3.97 3.05-8.31 3.31-2.93.17-6 .04-6.82-.29zm44.3-14.25c-8.91-5.59-8.33-20.01.98-24.43 14.97-7.1 27.68 11.37 15.72 22.83-3.98 3.82-11.96 4.58-16.7 1.6zm-195-1.05c-4.47-2.73-6.64-6.48-6.64-11.5 0-6.14 2.95-10.61 8.51-12.92 15.25-6.32 26.71 12.37 14.28 23.28-2.87 2.52-4.39 3.09-8.24 3.09-2.91 0-5.94-.75-7.91-1.95zm117.2-18.14c-6.39-1.98-9.5-6.43-9.5-13.6 0-4.43.47-5.78 3.09-8.76 11.69-13.31 31.93 2.28 22.21 17.11-2.92 4.45-10.38 6.93-15.8 5.25zm53.8-3.87c-8.07-4.91-8.44-16.85-.72-22.92 8.49-6.68 21.13-1.17 22.17 9.67.86 8.95-4.79 15.2-13.75 15.2-2.71 0-5.78-.77-7.7-1.95zm-131-5c-4.14-2.52-6.3-6.8-6.3-12.45 0-3.61.61-5.22 3.05-7.99 9.49-10.81 26.25-3.82 24.66 10.28-.42 3.7-1.28 5.26-4.58 8.33-3.52 3.3-4.68 3.79-8.84 3.79-2.99 0-6-.74-7.99-1.96zm173.34-11.07c-11.09-3.32-13.01-19.1-3.11-25.58 1.45-.95 4.54-1.72 6.92-1.72 8.73 0 15.07 6.72 14.23 15.07-.58 5.65-2.97 9.04-8.01 11.32-4.57 2.08-5.78 2.19-10.03.91zm-260.05-7.02c-6.7-5.89-7.14-14.33-1.06-20.41 5.81-5.82 14.08-5.68 19.82.31 8.98 9.37 2.58 23.15-10.75 23.15-3.63 0-5.23-.61-8.01-3.05zm190.15-4.17c-4.94-2.86-8.13-9.21-7.18-14.28 2.67-14.2 22.99-15.48 27.52-1.74 2.12 6.43-1.09 13.6-7.46 16.62-4.61 2.18-8.38 2.01-12.88-.6zm-62.24-3.14c-4.81-2.22-7.68-6.04-8.23-10.93-1-8.85 4.93-15.7 13.61-15.7 17.64-.02 18.95 25.64 1.41 27.6-2.09.23-5.14-.21-6.79-.97zm-77.48-10.39c-7.12-3.58-9.84-11.61-6.39-18.88 1.92-4.06 4.5-6.05 9.63-7.43 3.09-.84 4.56-.67 8.22.95 6.19 2.74 8.74 7.04 8.24 13.87-.44 5.92-3.03 9.57-8.44 11.87-4.27 1.82-7.07 1.73-11.26-.38zm180.28-2.21c-8.91-5.42-8.24-19.99 1.11-24.43 15.26-7.24 27.72 12.17 14.99 23.34-2.82 2.48-4.35 3.05-8.19 3.05-2.91 0-5.94-.75-7.91-1.96zm-69.8-12.03c-8.79-5.78-8.41-18.33.74-24.07 2.49-1.57 4.42-1.95 8.19-1.62 4.23.36 5.48 1.01 8.75 4.51 3.32 3.57 3.82 4.71 3.81 8.88 0 5.71-2.61 10.53-6.9 12.74-4.18 2.17-10.95 1.96-14.59-.44zm-62.04-4.06c-1.67-.49-4.37-2.29-6-3.99-2.65-2.76-2.96-3.76-2.96-9.46 0-5.69.31-6.69 2.95-9.45 6.95-7.25 18.75-5.45 23.01 3.5 2.99 6.32.41 14.94-5.36 17.88-3.84 1.96-8.2 2.53-11.64 1.52zm104.96-9.83c-7.38-4.5-8.45-15.56-2.13-21.88 9.27-9.26 24.53-1.96 23.39 11.2-.36 4.22-1.01 5.48-4.52 8.75-3.56 3.32-4.7 3.81-8.87 3.81-2.92 0-6-.74-7.87-1.88zm-65-8.03c-3.24-1.4-7.1-6.58-7.84-10.52-.48-2.56-.11-4.86 1.33-8.11 1.64-3.69 2.88-4.92 6.69-6.61 14.99-6.63 27.24 11.3 15.44 22.61-2.38 2.28-4.08 2.94-8.27 3.2-2.9.18-6.21-.08-7.35-.57zm40.04-17.09c-5-2.47-7.46-6.49-7.46-12.15.01-15.25 21.14-19.51 26.55-5.35 2.9 7.58-.11 15.17-7.19 18.12-4.48 1.88-7.14 1.74-11.9-.62z"/><path d="m302.12 1145.6c-104.13-6.9-208.253-42.7-293.0044-100.7-99.5896-68.11-174.0756-161.01-218.2656-272.19-58.39-146.88-54.98-313.3 9.38-457.81 30.76-69.09 73.2-130.13 127.021-182.69 61.327-59.895 129.264-102.81 210.869-133.20146 103.75-38.64154 224.86-46.33054 334-21.20654 137.84 31.7345 255.68 107.971 341.45 220.908 40.33 53.12 73.95 118.7 93.04 181.5 40.87 134.5 33.91 275.49-19.94 404-46.41 110.73-126.7 206.08-227.12 269.69-85.93 54.4-180.46 85.2-281.92 91.8-18.26 1.2-57.07 1.1-75.51-.1zm85.5-114.3c57.92-6 110.52-20.7 161-45.04 27.75-13.36 60.62-33.66 84.22-52.01l11.23-8.73-135.73-135.82c-95.14-95.22-136.58-136.04-138.57-136.54-1.56-.39-2.37-1.01-1.78-1.37.6-.37-9.59-11.3-23.41-25.11-13.45-13.45-24.46-24.9-24.46-25.46 0-.55-78.52-79.52-174.48-175.48-151.7149-151.71-174.642-174.27-175.75-172.88-62.302 78.12-97.36 165.73-105.79 264.35-1.43 16.77-1.43 59.31 0 76 5.41 63.09 21.54 120.64 49.429 176.33 47.051 93.94 123.352 169.38 218.091 215.61 58.35 28.45 115.07 43.05 186.5 47.95 10.97.8 55.83-.4 69.5-1.8zm335.88-188.87c34.7-46.22 59.62-95.66 76.49-151.72 9.17-30.46 15.11-62.54 18.13-98 1.36-16.03 1.37-59.82.01-76-6.68-79.41-31.15-151.87-74.41-220.32-29.2-46.22-72.03-91.98-118.27-126.36-56.87-42.3-128.1-73.167-197.83-85.751-33.91-6.118-58.79-7.995-96.5-7.279-29.37.558-43.82 1.845-70.33 6.268-55.67 9.29-112.72 29.992-161.197 58.492-19.108 11.23-50.371 32.93-58.759 40.79l-2.782 2.6 207.778 207.78c161.95 161.95 208.34 207.8 210.28 207.86 1.38.05 1.89.33 1.14.63-.89.35 8.09 10.01 25.49 27.42l26.86 26.87.48 1.5 53.98 53.96 53.98 53.96 1.13.16 16.24 16.22 16.24 16.22.05 1.06 29.45 29.46c16.2 16.21 29.77 29.46 30.17 29.46.39 0 5.87-6.87 12.18-15.28z" fill="#c00"/></svg>