<svg height="525" width="600" xmlns="http://www.w3.org/2000/svg"><path d="m597.6 499.6-283.8-491.6c-2.9-5-8.2-8-13.9-8s-11 3.1-13.9 8l-283.8 491.6c-2.9 5-2.9 11.1 0 16 2.9 5 8.2 8 13.9 8h567.6c5.7 0 11-3.1 13.9-8 2.9-5 2.9-11.1 0-16z"/><path d="m555.88 491.5h-512.005l256.005-443.3z" fill="#f6bd16" transform="matrix(1 0 0 .99591458 .125 2.033244)"/><path d="m1326.4 1120.6 6.1 13.3 5.4 13.7 4.8 14.2 4.1 14.3 3.4 14.6 2.6 14.8 1.9 15.1 1.2 15.3.4 15.5-.4 15.6-1.2 15.3-1.9 15.1-2.6 14.9-3.4 14.6-4.1 14.2-4.8 14.1-5.4 13.8-6.1 13.3-6.7 13-7.3 12.7-7.8 12.3-8.5 11.8-9 11.5-9.5 11-10 10.4-10.5 10.1-11 9.5-11.5 9-11.8 8.4-12.2 8-12.7 7.1-13 6.8-13.5 6-13.7 5.5-14 4.7-14.3 4.2-14.6 3.3-14.9 2.7-15.1 2-15.4 1.1-15.4.4-15.5-.4-15.4-1.1-15-2-14.91-2.7-14.62-3.3-14.36-4.2-13.97-4.7-13.71-5.5-13.45-6-13.06-6.8-12.66-7.1-12.14-8-11.88-8.4-11.5-9-10.96-9.5-10.45-10.1-10.05-10.4-9.53-11-9.01-11.5-8.36-11.8-7.96-12.3-7.31-12.7-6.66-13-6.01-13.3-5.48-13.8-4.7-14.1-4.18-14.2-3.39-14.6-2.61-14.9-1.96-15.1-1.18-15.3-.39-15.6.39-15.5 1.18-15.3 1.96-15.1 2.61-14.8 3.39-14.6 4.18-14.3 4.7-14.2 5.48-13.7 6.01-13.3 6.66-13 7.31-12.7 7.96-12.3 8.36-11.8 9.01-11.4 9.53-11 10.05-10.6 10.45-10 10.96-9.4 11.5-9 11.88-8.5 12.14-7.84 12.66-7.31 13.06-6.66 13.45-6.14 13.71-5.35 13.97-4.83 14.36-4.05 14.62-3.39 14.91-2.74 15-1.83 15.4-1.18 15.5-.39 15.4.39 15.4 1.18 15.1 1.83 14.9 2.74 14.6 3.39 14.3 4.05 14 4.83 13.7 5.35 13.5 6.14 13 6.66 12.7 7.31 12.2 7.84 11.8 8.5 11.5 9 11 9.4 10.5 10 10 10.6 9.5 11 9 11.4 8.5 11.8 7.8 12.3 7.3 12.7z" fill-rule="evenodd" transform="matrix(.28721703 -.00035349 .00099715 .10181843 -85.428364 312.83248)"/><ellipse cx="217.5276" cy="438.76822" fill="#f6bd16" fill-rule="evenodd" rx="68.124023" ry="20.552731" stroke-width=".14677"/><circle cx="203.19627" cy="374.76071" fill="#0e1313" r="23.396698"/><path d="m158.819 450.53394 21.06328-34.6357 5.31475-4.78327 51.55304-15.41277 41.45503-17.3615-23.03057-43.04945s-2.39567-9.44191 7.79496-13.46404c10.19063-4.02212 13.9955 3.72034 13.9955 3.72034s19.90598 37.64072 28.87679 55.27336c2.87143 6.42365-.62744 11.82252-4.42895 13.10971l-57.57643 24.27067 12.57824 41.10072-56.33632.17715-6.55486-22.32193-14.70413 21.96762z" fill="#0b0000" fill-rule="evenodd" stroke="#000" stroke-width="1.04169"/><path d="m457.38118 459.64011c-5.65994 3.75647-11.66819 4.40459-16.4639 1.77605-2.68054-1.46922-9.18689-15.77676-18.14639-39.9048-13.27886-35.75935-13.93974-38.64092-13.40163-58.43992l.56604-20.8255-10.75435 14.38827c-21.80116 29.16812-25.13777 34.40876-25.3032 39.74231-.15085 4.85577-3.08903 31.43059-6.28191 56.80566-1.58509 12.60198-6.80185 18.39658-15.95775 17.72497-8.06405-.59169-13.09294-8.64169-11.88393-19.02356.50907-4.37289 1.37291-15.31815 1.91921-24.3223.54642-9.00436 1.98575-23.69958 3.19844-32.65537l2.20428-16.28324 15.67921-21.3688c24.8324-33.84332 24.71265-27.82452 1.16294-58.26588-11.15629-14.42176-21.17304-26.70916-22.25794-27.30381-1.08528-.59484-3.24299.12561-4.79489 1.60091-1.55199 1.47537-5.91655 3.86261-9.69913 5.30506-3.78258 1.44246-14.79036 6.59739-24.46221 11.45541-9.67133 4.8579-19.82824 8.54069-22.57013 8.18263-2.7424-.35713-16.28931-1.29919-30.10341-2.09286-13.814-.79386-26.73693-2.33154-28.71792-3.41733-5.63479-3.08845-6.79482-10.63737-2.58549-16.8236 3.51308-5.16307 5.54585-5.41499 33.21106-4.1157l29.4686 1.38446 18.00476-9.19555c9.9026-5.05754 20.38333-10.06652 23.29017-11.13125 2.90738-1.06468 10.12853-5.80636 16.04696-10.53664 5.91856-4.73073 15.61758-12.46476 21.55266-17.18565 13.60317-4.55121 27.1526 4.24911 27.09866 14.02713.34448 1.11928 11.11806 15.60089 23.94055 32.18064 12.82238 16.57994 24.03979 32.14394 24.92725 34.58721.88716 2.44309 1.40254 20.27112 1.14501 39.61783-.46067 34.70656-.33753 35.52802 9.28798 61.62396 5.36556 14.54645 10.91692 28.80153 12.33658 31.67779 3.88919 7.88178 3.1115 17.64668-1.65779 20.81202z" stroke-width="1.157593"/><path d="m335.78247 233.00847c-18.11566 10.26136-44.16054-9.34148-36.56143-29.51846 5.16846-18.28473 33.63049-25.04164 44.64567-8.26029 9.20599 11.99368 3.22697 29.43472-8.08357 37.7791z" stroke-width="1.241415"/></svg>