<svg height="525" width="600" xmlns="http://www.w3.org/2000/svg"><path d="m597.6 499.6-283.8-491.6c-2.9-5-8.2-8-13.9-8s-11 3.1-13.9 8l-283.8 491.6c-2.9 5-2.9 11.1 0 16 2.9 5 8.2 8 13.9 8h567.6c5.7 0 11-3.1 13.9-8 2.9-5 2.9-11.1 0-16z"/><path d="m43.875 491.5 256-443.3 256 443.3z" fill="#f6bd16" transform="matrix(1 0 0 .99591458 .125 2.033244)"/><path d="m326.54999 340.80001c0 14.746-11.954 26.7-26.7 26.7-14.74601 0-26.7-11.954-26.7-26.7 0-14.74601 11.95399-26.7 26.7-26.7 14.746 0 26.7 11.95399 26.7 26.7zm40.20001-115.80001-46.8 81.1c.8.5 1.6.9 2.4 1.5 1.1.7 2.1 1.5 3.1 2.3s1.9 1.7 2.9 2.6c.9.9 1.8 1.9 2.6 2.8.8 1 1.6 2 2.3 3.1s1.4 2.2 2 3.3 1.2 2.3 1.7 3.5 1 2.4 1.4 3.7.7 2.5 1 3.8.5 2.6.6 4c.1 1.3.2 2.7.2 4.1h93.6c-.2-49.2-24.4-91.2-67-115.8zm-133.7 0c-42.6 24.6-66.8 66.6-66.8 115.8h93.6c0-1.4.1-2.8.2-4.1s.4-2.7.6-4c.3-1.3.6-2.6 1-3.8.4-1.3.8-2.5 1.4-3.7.5-1.2 1.1-2.4 1.7-3.5s1.3-2.2 2-3.3 1.5-2.1 2.3-3.1 1.7-1.9 2.6-2.8 1.9-1.8 2.9-2.6 2-1.6 3.1-2.3l2.4-1.5zm46.8 150.5-46.8 81.1c42.6 24.6 91.1 24.6 133.7 0l-46.8-81.1c-.3.2-.6.4-.9.6-1.1.6-2.3 1.2-3.5 1.7s-2.4 1-3.7 1.4-2.5.7-3.8 1-2.6.5-4 .6c-1.3.1-2.7.2-4.1.2s-2.7-.1-4.1-.2c-1.3-.1-2.7-.3-4-.6s-2.6-.6-3.8-1c-1.3-.4-2.5-.8-3.7-1.4-1.2-.5-2.4-1.1-3.5-1.7-.4-.2-.7-.4-1-.6z"/></svg>