<svg height="420" viewBox="-10 -10 420 420" width="420" xmlns="http://www.w3.org/2000/svg"><circle cx="200" cy="200" fill="#fff" r="205" stroke="#000" stroke-width="2"/><path d="m182.89 399.59c-.21-.19-3.24-.65-6.72-1.01-34.52-3.58-74.59-20.6-102.67-43.6-8.529-6.99-25.402-24.31-31.643-32.48-22.228-29.1-36.2444-63.14-40.5631-98.5-.99508-8.15-1.03512-37.14-.0645-46.64 1.5832-15.49 8.0157-40.21 14.2726-54.86 6.901-16.15 18.842-35.977 29.518-49 6.994-8.533 24.313-25.405 32.48-31.643 28.79-21.99 66.11-37.1874 99.74-40.6165 9.39-.95801 37.36-.95433 45.88.0061 35.92 4.0475 74.01 20.1444 102.88 43.4724 8.86 7.156 25.66 24.299 32.14 32.781 21.39 28 34.72 60.05 40.37 97 1.09 7.18 1.39 39.81.43 47.5-4.62 36.97-18.61 71.45-40.8 100.5-6.48 8.49-23.29 25.63-32.14 32.78-24.66 19.92-56.02 34.73-86 40.61-5.78 1.13-12.07 2.33-14 2.67-3.84.68-42.48 1.6-43.11 1.03zm56.61-66.09v-9l-39-.26c-44.74-.31-41.5-1.04-41.5 9.37 0 10.39-4.18 9.45 40.86 9.15l39.64-.26zm35-41v-9h-74.5-74.5l-.29 7.91c-.17 4.35-.07 8.52.22 9.26.42 1.11 13.32 1.3 74.79 1.09l74.28-.26zm30.29-41.75c.16-4.81.16-8.85 0-8.98-.16-.12-21.89-.46-48.29-.75l-48-.52-.5-93.5-.5-93.5h-7.5-7.5l-.5 93.5-.5 93.5-48 .52c-26.4.29-48.112.63-48.25.75-.584.53-.19 16.96.421 17.57.369.37 47.509.55 104.749.41l104.08-.25z" fill="#048"/></svg>