<svg height="525" width="600" xmlns="http://www.w3.org/2000/svg"><path d="m597.7 500.3-283.8-491.6c-2.9-5-8.2-8-13.9-8s-11 3.1-13.9 8l-283.8 491.6c-2.9 5-2.9 11.1 0 16 2.9 5 8.2 8 13.9 8h567.6c5.7 0 11-3.1 13.9-8 2.9-5 2.9-11.1 0-16z"/><path d="m299.88 48.2 256 443.3h-512.005z" fill="#f6bd16" transform="matrix(1 0 0 .99591458 .225 2.73324)"/><g stroke="#000" transform="matrix(.99713765717 0 0 .99713765717 768.19267909798 20.56053240431)"><path d="m-501.18 175.99-92.65 234.62-41.071-12.975-5.0243 15.605c18.917 4.5648 38.838 13.073 57.575 17.624l6.2377-21.562h25.406c.75683 14.134 8.9195 28.421 24.088 28.455 15.236 1.2808 28.699-9.6512 29.467-27.705l61.273-.23767c-1.8048 20.282 20.959 27.14 30.492 27.431 13.443 0 29.724-11.957 30.492-27.193l35.321-.23767.51234-75.768c-1.223-13.743-6.9086-19.236-19.488-19.744h-32.219l.19983-89.108c.44117-8.9421-7.1692-15.879-16.312-16.917l-65.498.23954c-8.3026 1.917-11.841 4.2538-15.838 12.9-20.424 51.952-37.549 95.269-56.235 146.35l-13.369-.25617 71.576-186.16zm25.912 50.779c.99833-2.1049 1.4462-4.2885 7.0519-5.7352l56.644-.66894c4.473.0866 6.6344 3.4047 7.4288 7.3892v86.549h-9.4062l-.7685-47.951c-.003-2.6837-2.8595-4.8717-5.7932-5l-6.6403-.25617c-2.4095-.0929-6.5513 3.4396-7.4739 5.1531l-10.812 21.104-23.845-6.148c-5.2118-1.572-8.9752 8.1123-3.3055 10.025l28.317 8.9926c6.7546 2.2663 4.377-.54081 5.6276-1.3323l4.6945-9.5863v18l-29.827.25617c-2.1721.36168-3.1832 1.8512-3.6365 3.7862l-12.044 38.213-33.82-.25617 35.164-51.87 6.8063 6.2627c5.9506 1.3813 3.0076-2.1783 3.4185-3.8746l-14.707-18.518c-2.9681-.34367-5.7492-.46923-4.6994 3.8746l5.8943 7.1752-37.289 56.438-10.261.51233zm18.461 94.071 7.233-.7685 1.0247 29.232-16.67.25617zm-67.506 76.963c7.4686.00001 13.5 6.0631 13.5 13.531-.00001 7.4682-6.0314 13.531-13.5 13.531s-13.531-6.0631-13.531-13.531c0-7.4682 6.0626-13.531 13.531-13.531zm118.67-8.7097c11.873-1.2661 17.855 9.9056 17.855 17.374-.00001 7.4682-4.7506 16.349-16.574 17.117-7.4529.48442-18.148-9.1551-17.63-16.605.7685-11.055 5.8891-16.77 16.349-17.886z"/><path d="m-426.16 235.53c-8.4176-.4144-12.347 11.494-6.0625 16.562 5.6393 6.9769 18.987 1.6265 17.656-7.5938-.17628-5.733-6.2011-9.6474-11.594-8.9688z" stroke-width="2.628272"/></g></svg>