<svg height="420" viewBox="-10 -10 420 420" width="420" xmlns="http://www.w3.org/2000/svg"><circle cx="200" cy="200" fill="#fff" r="205" stroke="#000" stroke-width="2"/><path d="m182.95 399.66c-.25-.23-3.3-.72-6.78-1.08-34.45-3.57-74.68-20.66-102.67-43.6-8.533-6.99-25.405-24.31-31.643-32.48-22.157-29.01-36.2583-63.25-40.5631-98.5-.99596-8.15-1.03479-37.14-.0625-46.66 3.5408-34.66 19.1436-72.24 42.2756-101.84 7.058-9.031 24.967-26.757 33.993-33.646 29.44-22.473 64.59-36.6831 100.5-40.6382 8.52-.93805 36.7-.91886 45.12.0308 36.95 4.1634 75.49 20.7504 104.38 44.9194 22.87 19.13 38.95 39.608 52.09 66.334 9.33 18.97 14.55 36.22 18.94 62.5 1.07 6.45 1.37 39.41.42 47-4.98 39.69-20.58 76.18-45.12 105.5-19.46 23.26-41.01 40.03-68.11 52.98-18.68 8.93-34.41 13.69-59.72 18.07-4.17.72-42.4 1.7-43.05 1.11zm48.29-40.89c7.2-5.5 6.76 1.78 6.76-110.7 0-87.58.2-101.21 1.45-101.69 1.29-.49 17.73 11.22 19.78 14.09.41.57.75 12.06.77 25.53.03 23.48.13 24.67 2.27 28.5 2.42 4.32 9.16 8.5 13.73 8.5 4.96 0 11.33-4.16 13.78-9 2.25-4.43 2.28-4.96 2-35-.23-24.72-.56-31.06-1.78-33.46-.82-1.63-6.68-6.94-13-11.8s-12.68-9.85-14.13-11.09l-2.63-2.26 2.87-10.94c3.68-14.039 5.81-28.454 6.58-44.498l.61-12.758-4.11-2.097c-7.18-3.663-7.19-3.654-7.21 10.153-.02 13.811-1.8 28.97-4.99 42.56-2.44 10.41-3.09 10.86-8.95 6.22-2.06-1.63-4.97-3.43-6.46-4-1.62-.62-13.75-1.03-30.18-1.03-22.52 0-28.13.28-31.17 1.55-2.28.95-10.42 8.23-21.25 19l-17.55 17.45h-25.25c-19.058 0-26.044.33-28.509 1.36-4.799 2.01-8.433 6.87-9.262 12.39-.603 4.02-.326 5.44 1.796 9.25 4.646 8.34 5.176 8.46 38.485 8.81 19.63.2 30.57-.07 33.42-.84 3.35-.9 6.66-3.52 15.89-12.55 6.42-6.28 11.96-11.42 12.33-11.42s.66 11.59.65 25.75l-.02 25.75-20.64 16.5c-28.25 22.58-29.79 24.03-31.31 29.45-.9 3.23-.98 5.59-.27 8.28 2.15 8.19 25.6 67.96 27.8 70.88 3.47 4.6 8.64 6.71 15.14 6.17 6-.5 9.57-2.62 13.07-7.77 4.22-6.21 3.38-10.5-7.75-39.56-5.5-14.35-10-26.55-10-27.09 0-1.23 36.36-30.36 37.89-30.36.8 0 1.12 16.68 1.15 59.75.05 62.96.15 64.43 4.61 69.46 4.03 4.53 7.52 5.92 13.98 5.55 4.75-.26 6.91-.93 9.61-2.99zm-18.13-4.33c-1.68-1.41-3.51-4.23-4.08-6.25-.64-2.33-1.02-25.63-1.02-63l-.01-59.3 3.25-2.99c4.05-3.73 14.34-8.89 18.29-9.18l2.96-.22.26 67.29c.22 58.66.06 67.66-1.27 70.23-3.22 6.22-12.91 8.02-18.38 3.42zm-52.69-29.33c-3.84-2.34-3.64-1.89-18.5-40.94l-12.3-32.33 1.44-4.15c1.26-3.63 4.24-6.43 23.44-21.99 12.1-9.8 22.82-18.28 23.83-18.84 1.53-.85 3.06.29 9.73 7.31 4.35 4.58 7.8 8.85 7.68 9.49-.13.63-8.48 7.75-18.55 15.81-10.06 8.06-18.51 15.21-18.77 15.88s4.27 13.58 10.06 28.68c12.15 31.71 12.54 33.89 6.99 39.44-2.93 2.93-4.26 3.53-7.75 3.53-2.36-.01-5.58-.83-7.3-1.89zm110.34-108.68c-5.4-2.93-5.76-4.98-5.76-32.82v-25.49l-11.75-9.04c-6.46-4.98-12.49-9.06-13.39-9.06-.9-.01-2.7.84-4 1.89-2.34 1.89-2.36 2.13-2.86 26.75l-.5 24.84-2.25.32c-1.43.2-2.5-.32-2.92-1.41-.91-2.35 1.32-47.58 3.19-64.91 1.78-16.53 2.55-18.93 5.73-17.92 1.23.39 12.66 8.75 25.4 18.58 17.72 13.67 23.42 18.6 24.26 21 .69 1.99 1.09 13.59 1.09 31.62 0 26.86-.12 28.67-2.03 31.76-1.91 3.1-6.3 5.51-9.87 5.42-.88-.02-2.83-.71-4.34-1.53zm-73.66-8.01c-4.8-5.26-6.08-7.44-4.35-7.41.41.01 3.14.65 6.07 1.43s8.21 1.73 11.75 2.1c3.54.38 6.41.98 6.38 1.33-.06.97-11.87 8.13-13.4 8.13-.74 0-3.64-2.51-6.45-5.58zm2.56-16.85c-4.86-1.29-9.3-2.81-9.87-3.38-.84-.84-1.18-16.26-.8-36.44.02-1.18 27.79-.91 28.53.28.35.57.32 10.25-.08 21.5l-.72 20.47-4.11-.05c-2.26-.02-8.09-1.1-12.95-2.38zm-112.334-23.67c-3.462-1-7.326-6.18-7.326-9.82 0-3.01 2.542-7.65 5.217-9.52 1.882-1.32 6.321-1.56 28.603-1.56h26.37l18.56-18c10.2-9.9 19-18 19.54-18 .63 0 .73 5.28.28 14.75l-.71 14.75-12.66 12.75c-6.96 7.01-14.09 13.42-15.83 14.25-2.6 1.23-8.17 1.48-31.02 1.41-15.32-.05-29.278-.5-31.024-1.01zm112.924-27.65c-7.92-.22-11.28-.68-11.35-1.53-.31-3.59.29-26.48.72-27.97.46-1.57 2.13-1.75 16.36-1.75 10.39 0 15.98.37 16.21 1.07.54 1.61-2.25 26.09-3.27 28.68-.69 1.77-1.57 2.2-4.15 2.04-1.8-.12-8.33-.36-14.52-.54zm19.27-45.709c8.08-4.733 12.4-16.196 9.46-25.09-3.12-9.475-14.07-16.304-23.8-14.849-6.02.9-13.05 5.928-15.95 11.398-3.46 6.53-2.89 16.148 1.31 22.207 4.33 6.249 12.22 10.118 19.26 9.439 3.11-.301 7.12-1.579 9.72-3.105zm-18.12-3.446c-13.71-6.228-11.97-27.173 2.59-31.093 10.39-2.798 21.01 5.549 21.01 16.516 0 4.288-1.82 8.03-5.66 11.668-5.38 5.087-11.1 6.015-17.94 2.909z" fill="#048"/></svg>