<svg height="400" viewBox="0 0 200 200" width="400" xmlns="http://www.w3.org/2000/svg"><g><path d="m0 0h200v200h-200z" fill="#fff"/><path d="m5 5h190v190h-190z" fill="#085"/><g fill="#fff"><path d="m77.84 38.97c-4.456 0-8.094.232-8.094.5s7.285 10.085 16.188 21.844c22.066 29.138 29.576 38.15 31.066 41.686l-2 6c.61 1.7 2.92 4.78 6.47 9.5 3.69 4.92 6.55 9.47 6.34 10.09-.8.42-1.81 1.41-1.81 1.41l-13.78.34v10.03 10.04h-23.376-23.344v-13.79-13.81l-15.125.03c-8.319.01-15.629.36-16.25.78-.621.43-2.219 3.9-3.563 7.69-1.343 3.8-5.653 12.68-5.562 14.69v22h5c1-1 .857-3.45 1.375-3.72 3.374-11.26 20.248-11.13 23.688.19l1.218 4 27.688-.03 27.721-.06 2.12-4.47c2.72-5.73 8.03-8.8 13.44-7.78 5.75.87 10.31 5.48 11.28 12.46l10.47-.09 8-3.5s-.22.01-.22-7.13v-7.46h-9.03l-8.75-.41.19-4.78 1.34-1.22c.46-.41 2.91 4 3.47 4h8l2.22-7.97 2.34-7.72-29.5-39.404-7.97-10.625-10-13.062-5.06-6.906-6.967-9.282c-5.988-7.983-9.063-13.031-10.063-14.031 0 0-4.813-.031-9.156-.031zm-1.84 3.03h7l-2 6zm11 4 6 8h-9zm1 12h7l-2 6zm11 3 6 8h-9zm0 12h7l-2 6zm11 3 6 8h-9zm1 13h7l-2 6zm11 3 6 8h-9zm0 12h7l-2 6zm11 3 6 8h-9zm1 13h7l-2 6zm11 2 6 8h-9zm-93.281 6.28.281 15.72-23 2c.044-2.56 4.777-15.88 6-17zm94.281 6.72h6l-2 5z"/><path d="m50.56 175.81c4.177-4.18 4.386-9.04.584-13.56-3.121-3.71-7.403-4.96-11.57-3.37-7.353 2.79-9.277 11.14-3.898 16.9 4.329 4.63 10.269 4.64 14.884.03z"/><path d="m131.85 176.69c1.87-1.61 2.97-3.85 3.38-6.85.53-3.95.23-4.82-2.64-7.69-8.25-8.25-21.59.57-16.64 11 2.9 6.12 10.84 7.89 15.9 3.54z"/><path d="m62.3 118.31c-.024-3.89-1.3-5.31-3.3-5.31-2.277 0-4.112 2.01-4.112 4.53 0 1.51-.441 3.05.112 3.47h7c.405-.36.308-1.78.302-2.69z"/><path d="m126.25 81.244 13.8-13.855 1.91 2.659h10.37l-11.2-11.276-11.2-11.275h3.58 3.57v2.819c0 2.481.31 3.121 2.57 5.325 1.41 1.377 2.81 2.504 3.11 2.504.31 0 .55-3.328.55-7.397 0-10.19.37-9.828-10.13-9.828h-8.35l-9.5 9.552c-1.95 3.293-.63 8.766-.94 13.148l-10.06.201c-5.028 0-6.036 5.507 0 5.519l13.52-.24c.8-.012 2.39-.372 2.57-1.254v-12.07l4.49 5.037c2.76 3.098 5.56 5.739 5.32 5.997l-11.21 11.752.39 17.436c0 5.032 7.1 4.462 7.04 0z"/><path d="m174.71 49.22.06-26.15-25.39-.001h-25.38v8.495l-.04 7.883h4.2l.07-6.2-.07-6.42h21.4 21.16v22.236 22.239l-32.57-.054-3.99 4.2 20.07.09 20.43-.168.06-26.15z"/><path d="m128.36 66.677-4.36-5.019.11 9.59z"/><path d="m118.81 45.476c1.89-1.73 2.28-3.923 1.13-6.372-1.75-3.709-5.81-4.562-8.97-1.886-3.23 2.726-2.48 7.683 1.4 9.351 2.32.998 4.56.618 6.44-1.093z"/></g></g></svg>