<svg height="420" viewBox="-10 -10 420 420" width="420" xmlns="http://www.w3.org/2000/svg"><circle cx="200" cy="200" fill="#fff" r="205" stroke="#000" stroke-width="2"/><path d="m184 399.44c-1.38-.24-6.55-.94-11.5-1.56-32.64-4.07-67.19-18.52-95-39.74-9.022-6.88-26.933-24.61-33.993-33.64-42.0829-53.84-54.55-123.47-33.455-186.85 6.983-20.97 18.455-42.67 31.805-60.15 6.869-8.992 23.539-25.831 33.143-33.477 29.65-23.604 64.44-38.0791 102.02-42.4524 16.89-1.96504 28.91-1.98376 45.49-.0708 74.44 8.5922 136.95 56.9902 164 126.9702 4.99 12.91 9.73 31.11 11.6 44.53 1.71 12.19 1.71 41.75.01 54-4.59 33.14-17.72 65.19-37.69 92.03-31.1 41.79-75.39 68.94-127.43 78.11-10.91 1.92-42.56 3.4-49 2.3zm-20-74.67v-34.23l-15.12-22.73c-9.42-14.15-14.91-23.3-14.54-24.25.32-.84 1.16-1.29 1.87-1.01.71.29 9.39 12.74 19.29 27.67 9.9 14.94 19.11 28.49 20.46 30.11 6.03 7.24 18.32 9.62 27.54 5.32 6.72-3.13 73.12-41.25 77.36-44.41 4.06-3.04 8.12-11.32 8.13-16.62.04-15.26-14.91-27.06-28.62-22.6-2.13.7-15.21 7.78-29.08 15.75-13.86 7.96-25.83 14.24-26.59 13.94-.77-.29-11.41-16.88-23.64-36.87-12.24-19.99-23.32-37.76-24.63-39.49-4.69-6.21-8.3-7.09-36.29-8.8-35.874-2.19-39.62-2.11-45.862 1-2.813 1.4-6.335 4.15-7.825 6.1-5.32 6.97-5.453 8.51-5.457 62.76l-.005 50.09 5.564 8.2c15.068 22.21 41.715 44.08 67.445 55.35 9.8 4.29 23.78 8.86 27.25 8.91l2.75.04zm168.85-107.34c16.31-12.96 29.65-24.09 29.65-24.73 0-1.8-63.64-27.95-65.67-26.99-4.07 1.92-63.74 42.89-63.77 43.79-.03.55 4.72 3.1 10.55 5.67 10.39 4.59 10.66 4.65 14.61 3.25 5.15-1.82 10.14-1.8 16.35.05 6.45 1.93 11.82 6.47 15.65 13.26 2.34 4.16 4.08 5.92 7.19 7.31 2.25 1 4.47 1.85 4.94 1.89s14.19-10.54 30.5-23.5zm-123.93.32c7.38-2.35 13.58-4.76 13.78-5.36.36-1.07-25.13-32.55-26.92-33.25-1.28-.49-21.97 6.85-23.64 8.4-1.14 1.05.27 3.92 8.37 17.11 11.59 18.86 11.34 18.53 13.38 17.88.89-.28 7.65-2.43 15.03-4.78zm53.05-33.98c16.45-11.15 30.1-20.72 30.31-21.27.22-.55-4.37-12.93-10.19-27.5-7.68-19.22-11.03-26.5-12.19-26.5-1.91 0-64.65 38.52-65.27 40.07-.37.92 19.54 47.32 23.27 54.26.75 1.39 1.83 2.1 2.7 1.77.8-.31 14.91-9.68 31.37-20.83zm-41.97 12.88c0-.19-4.95-11.08-11-24.2-6.05-13.11-11-24.36-11-24.99s13.05-9.13 29.01-18.9c15.95-9.76 29.98-18.54 31.17-19.51l2.17-1.75-2.24-3.15c-1.24-1.73-2.96-3.15-3.83-3.15-2.04 0-77.28 44.15-77.28 45.34 0 1.17 41.26 50.62 42.25 50.64.41.01.75-.14.75-.33zm-88.36-44.14c22.39-6.65 35.78-32.47 28.32-54.62-12.61-37.439-64.056-40.503-80.406-4.789-10.688 23.349 1.258 50.569 25.936 59.099 6.29 2.18 19.35 2.33 26.15.31z" fill="#048"/></svg>