<svg height="575" viewBox="-4 -4 1192 1192" width="575" xmlns="http://www.w3.org/2000/svg"><circle cx="592" cy="592" fill="#fff" r="592"/><g transform="translate(172.8 59.728)"><path d="m389.86 961.13-4-.62-.26-45.75-.26-45.75h-116.97-116.96l-7.28-6.2c-14.05-11.96-26.77-24.04-26.77-25.42 0-1.18 22.35-1.35 150.25-1.14l150.25.26v62.5 62.5l-12 .12c-6.6.06-13.8-.16-16-.5zm134.15-257.05c.29 1.65 3.5 16.4 4.9 24.93 1.4 8.52 9.27 50.17 17.49 92.55 10.05 51.8 14.96 79.25 14.96 83.72 0 9.09-2.87 16.32-9.23 23.29-5.65 6.18-11.61 9.62-19.57 11.31-6.46 1.37-9.2 1.32-15.82-.29-10.4-2.52-19.47-10.09-23.92-19.96-2.5-5.56-31.98-156.19-37.4-191.12-3.81-24.58-8.03-62.28-10.63-85l-2.58-22.59m-163.55 196.28c-8.8-3.14-16.22-9.37-20.2-16.96-.66-1.25-16.75-44.67-35.77-96.5-33.58-91.49-34.59-94.45-34.68-101.73-.15-12.54 5.6-23.95 15.37-30.5 2.66-1.78 30.72-12.75 68.98-26.95 35.47-13.17 67.49-25.21 67.79-25.64.29-.42 10.96 13.33 27.06 29.44l29.27 29.28-16.81 6.24c-78.96 29.32-108.31 40.49-108.31 41.23 0 .48 12.24 34.06 27.21 74.63l27.2 73.77.05 9.5c.03 8.25-.31 10.24-2.63 15.19-3.43 7.31-10.41 14.26-17.64 17.58-7.61 3.49-19.36 4.11-26.89 1.42zm-8.94-500.24c.24-.25 2.89-5.63 5.88-11.95 3-6.33 7.57-14.3 10.16-17.72 5.69-7.5 15.88-15.37 24.28-18.74 3.41-1.37 34.68-8.85 69.5-16.64 56.45-12.62 64.29-14.15 72.32-14.1 4.95.02 11.3.67 14.11 1.44 2.81.76 36.74 14.86 75.41 31.32 65.47 27.88 70.67 30.27 75.7 34.84 2.97 2.7 6.45 6.98 7.72 9.5 1.28 2.53 16.21 36.32 33.19 75.1l30.86 70.5v8c.01 6.54-.47 9.01-2.61 13.58-3.19 6.81-8.23 12.01-15.17 15.66-4.62 2.44-6.29 2.75-14.71 2.75-8.39 0-10.1-.32-14.63-2.7-10.63-5.6-10.9-6.11-42.82-79.22l-29.22-66.93-52.72-22.44c-28.99-12.34-52.99-22.17-53.32-21.83-.33.33 8.26 39.65 19.09 87.36 24.43 107.57 26.31 117.67 28.47 152.59l.79 12.82m-180.07-180.14c.07 0-.91-4.62-2.18-10.25-3.84-17.08-3.12-16.16-6.91-8.75l-3.33 6.5m-223.853 160.7c-7.648-2.74-12.839-6.76-17.246-13.36-8.496-12.73-7.596-28.16 2.351-40.29 1.852-2.26 5.556-5.3 8.231-6.75 2.675-1.46 30.657-13.94 62.187-27.74 63.04-27.6 64.11-28.1 69.24-32.14l3.57-2.8 24.82 24.83 25.61 24.43-4.18 3.44c-6.58 5.41-13.4 9.06-84.3 40.2-67.17 29.51-71.29 31.18-78 31.6-5.27.33-8.414-.04-12.283-1.42zm255.703-290.9c-17.45-2.92-36.15-16.38-44.18-31.8-5.6-10.76-7.23-17.42-7.23-29.5 0-17.93 5.64-31.52 18.29-44.05 12.4-12.28 26.21-18.12 43.12-18.22 10.74-.07 17.36 1.45 27.73 6.39 14.83 7.06 25.95 19.64 31.66 35.83 2.66 7.52 3.02 9.87 3.02 19.55 0 7.7-.53 12.79-1.79 17-6.51 21.7-23.38 37.93-45.23 43.52-7.17 1.84-18.64 2.42-25.39 1.28z"/><path d="m379.93 1122.6c-104.12-6.9-208.25-42.7-292.997-100.7-99.59-68.1-174.076-161-218.263-272.18-58.39-146.89-54.98-313.3 9.37-457.82 30.769-69.09 73.208-130.13 127.0276-182.69 61.3264-59.891 129.2624-102.806 210.8624-133.198 103.75-38.641 224.86-46.331 334-21.206 137.85 31.734 255.68 107.971 341.45 220.914 40.34 53.11 73.95 118.69 93.04 181.5 40.88 134.5 33.88 275.48-19.94 404-46.4 110.72-126.7 206.07-227.11 269.68-85.93 54.4-180.47 85.2-281.92 91.8-18.27 1.2-57.07 1.1-75.52-.1zm85.5-114.3c57.93-6 110.53-20.73 161-45.03 27.84-13.41 60.62-33.66 84.42-52.16l11.41-8.88-139.41-139.05c-76.68-76.48-149.72-149.76-162.32-162.83-20.7-21.49-23.15-23.71-25.5-23.17-1.48.34-2.07.25-1.38-.22.83-.56-7.8-9.83-27.25-29.27-15.66-15.65-28.47-28.91-28.47-29.47s-14.4-15.41-32-33c-17.6-17.6-32-31.55-32-31 0 .54-11.2-10.21-24.88-23.89-17.83-17.81-25.28-24.64-26.25-24.05-1.08.65-1.06.45.06-.94 1.31-1.61-6.04-9.23-86-89.19-48.081-48.09-87.649-87.42-87.925-87.41-.277.01-4.327 5-9.002 11.09-56.719 73.9-89.967 160.19-98.011 254.39-1.432 16.77-1.434 59.3 0 76 5.404 63.08 21.537 120.64 49.4242 176.32 47.0508 93.94 123.3538 169.38 218.0938 215.62 58.35 28.47 115.06 43.04 186.5 47.94 10.96.8 55.83-.4 69.5-1.8zm335.89-188.87c34.69-46.22 59.62-95.66 76.49-151.71 9.17-30.46 15.1-62.54 18.13-98 1.36-16.03 1.37-59.83.01-76-6.68-79.42-31.15-151.87-74.41-220.33-29.21-46.22-72.04-91.98-118.27-126.36-56.88-42.29-128.1-73.163-197.84-85.747-33.9-6.118-58.78-7.995-96.5-7.279-29.36.557-43.81 1.845-70.32 6.268-55.67 9.29-112.72 29.99-161.2 58.488-19.11 11.24-50.37 32.94-58.76 40.79l-2.78 2.6 51.78 51.85c28.48 28.52 74.51 74.26 102.28 101.64 27.78 27.39 50.73 50.14 51 50.56.28.42 43.52 43.57 96.11 95.89 52.58 52.32 95.67 95.58 95.75 96.13.17 1.19 275.33 276.5 276.35 276.5.39 0 5.87-6.88 12.18-15.29z" fill="#c00"/></g></svg>