<svg height="525" width="600" xmlns="http://www.w3.org/2000/svg"><path d="m597.6 499.6-283.8-491.6c-2.9-5-8.2-8-13.9-8s-11 3.1-13.9 8l-283.8 491.6c-2.9 5-2.9 11.1 0 16 2.9 5 8.2 8 13.9 8h567.6c5.7 0 11-3.1 13.9-8 2.9-5 2.9-11.1 0-16z"/><path d="m555.875 491.5h-512l256-443.3z" fill="#f6bd16" transform="matrix(1 0 0 .99591458 .125 2.033244)"/><g stroke="#000"><path d="m-729.35696-165.50763c.0679-.0509 0 .16968 0 0z" fill="none"/><path d="m290.48435 168.61048-50.51092 171.94072 73.87885-38.09379-15.80744 115.72278-15.10334-22.05969 11.64027 72.56433 42.35765-61.18092-21.4523 13.33856 44.53945-163.98217-79.65065 43.86557 58.29504-132.17388-48.18661.0585z" fill-rule="evenodd" stroke-width="1.048261"/></g></svg>