<svg height="575" width="575" xmlns="http://www.w3.org/2000/svg"><path d="m574.06 287.5a286.57 285.05 0 1 1 -573.13 0 286.57 285.05 0 1 1 573.13 0z" fill="#fff" stroke="#000" stroke-linecap="square"/><g transform="matrix(.92583 0 0 .92383 -71.957 -194.37)"><path d="m403.36 314.86c.36 6.16.84 11.04 1.49 12.61 11.02 26.43 19.76 15.66 13.03 67.72 98.59-34.99 121.91 94.14 44.15 115.41 0 0-.38 44.97 44.74 63.8 32.86 14.31 50.58 44.93 56.68 63.88" fill="none" stroke="#000" stroke-linecap="round" stroke-linejoin="round" stroke-width="9"/><path d="m289.86 703.91c5.82-39.63 11.2-102.07-.35-163.82-1.09-17.31-20.19-74.1 6.12-108.78 42.88-37.95 101.09-13.61 102.82 23.75 9.35 13.6 29.47 41.14 39 40.81 3.79 11.29 29.92 31.51-32.31 85.88-25.43 48.34-40.53 107.3-48.67 144.3" fill="none" stroke="#000" stroke-linecap="round" stroke-linejoin="round" stroke-width="9"/><path d="m326.07 706.74c-16.14-2.96 15.3-163.25 15.3-163.25s18.92-57.43 28.06-71.42c4.21-9.72-6.35-25.61 26.47-20.5 3.18.52-1.03-13.64 4.14-10.09 17.76-39.82 40.98-45.63 77.13-27 19.56 10.09 37.04 83.25-41.51 84.21 1.61 24.75-8.03 16.74-16.06 22.69-7.27 5.38-48.1 21.11-59.52 77.38-3.77 15.33-19.35 111.91-34.01 107.98z" fill-rule="evenodd"/></g><path d="m287.48 9.1495c-68.53 0-131.28 24.9475-179.72 66.2505-1.27 1.083-2.53 2.175-3.78 3.281-.5.444-1 .895-1.5 1.344-1.07.96-2.13 1.929-3.189 2.906-.281.26-.563.519-.843.781-1.25 1.165-2.492 2.343-3.719 3.531-1.408 1.362-2.809 2.734-4.188 4.125-1.353 1.365-2.706 2.732-4.031 4.125-1.374 1.446-2.719 2.931-4.062 4.406-.154.171-.316.331-.469.501-1.162 1.28-2.3 2.57-3.438 3.87-1.242 1.43-2.442 2.87-3.656 4.32-.047.05-.109.1-.156.15-40.496 48.38-64.9061 110.73-64.9061 178.78 0 153.66 124.3771 278.34 277.6571 278.34 68.68 0 131.54-25.07 180.03-66.53l.03.03c.39-.33.78-.66 1.16-1 .16-.13.31-.27.47-.4.94-.82 1.88-1.64 2.81-2.47.74-.66 1.46-1.31 2.19-1.97.21-.19.42-.37.62-.56.97-.89 1.92-1.79 2.88-2.69.86-.81 1.71-1.62 2.56-2.44.12-.11.23-.23.35-.34 1.08-1.06 2.14-2.12 3.21-3.19.32-.31.63-.62.94-.94 1.25-1.26 2.49-2.55 3.72-3.84.12-.13.25-.25.38-.38 1.4-1.48 2.81-2.98 4.18-4.5 1.26-1.39 2.49-2.8 3.72-4.21.23-.27.46-.52.69-.79 1.05-1.21 2.09-2.45 3.12-3.68 40.33-48.33 64.63-110.55 64.63-178.44 0-153.66-124.41-278.3831-277.69-278.3831zm0 62.0625c119.11 0 215.78 96.908 215.78 216.308 0 50.85-17.51 97.62-46.84 134.56l-304.5-302.78c37.06-30.058 84.21-48.09 135.56-48.09zm-168.62 81.408 304.56 302.84c-37.12 30.24-84.42 48.37-135.94 48.37-119.11 0-215.75-96.91-215.75-216.31 0-51 17.636-97.91 47.13-134.91z" fill="#c00"/></svg>