<svg height="575" width="575" xmlns="http://www.w3.org/2000/svg"><path d="m574.07 287.5c0 158.27-128.3 286.57-286.57 286.57s-286.57-128.3-286.57-286.57 128.3-286.57 286.57-286.57 286.57 128.3 286.57 286.57z" fill="#fff" stroke="#000" stroke-linecap="square"/><path d="m132.07 407.1c0-1.05 2.84-6.2 6.3-11.44 16.89-25.57 26.11-52.24 35.61-103.08 3.66-19.57 8.79-42.92 11.39-51.89s4.73-16.9 4.73-17.63 5.83 4.45 12.95 11.5c7.12 7.06 12.67 13.76 12.32 14.91-2.17 7.26-2.63 12.35-1.11 12.35.96 0 2.31-2.52 2.99-5.61.68-3.08 1.45-5.6 1.71-5.6s16.51 16.03 36.11 35.64l35.64 35.63-2.5 13.12c-1.38 7.21-2.99 19.14-3.58 26.51l-1.07 13.39 19.38 12.62c10.67 6.94 19.9 12.61 20.52 12.61.61 0 2.55-6.63 4.31-14.73 3.65-16.9 5.42-20.72 8.25-17.89 1.32 1.31.65 8.37-2.12 22.41-2.23 11.27-4.25 20.77-4.5 21.11-.64.89-7.52-2.97-10.45-5.85-4.82-4.77-32.05-21.87-34.82-21.87-2.42 0-2.71 4.82-2.08 34.88.46 22.28.04 35.07-1.15 35.4-24.82-18.05-129.05-41.96-148.83-46.49zm218.37-88.23c-.58-1.52 4.67-14.08 11.68-27.91 13.32-26.3 32.73-56.78 55.69-87.46 16.06-21.47 17.53-24.02 17.53-30.39 0-6.07-4.01-7.73-11.35-4.69-7.58 3.14-15.59 10.81-30.93 29.65-7.02 8.62-13.07 14.77-13.44 13.66s6.02-11.53 14.21-23.15c21.43-30.44 26.41-41.37 19.98-43.83-4.76-1.83-11.32.84-20.19 8.18-9.03 7.48-27.62 29.18-33.65 39.27-1.99 3.34-4.78 6.08-6.19 6.08-3.46 0-1.87-3.78 8.25-19.62 11.99-18.76 20.74-36.89 21.33-44.17.47-5.87.08-6.34-5.57-6.89-5.11-.49-7.66.92-16.09 8.87-8.92 8.43-22.91 28.78-32.03 46.6-2.11 4.11-3.86 5.65-5.06 4.46-1.19-1.2 1.22-7.87 6.97-19.22 13.11-25.92 16.12-41.06 8.17-41.06-7.27 0-26.56 25.54-37.52 49.67-5.18 11.4-9.16 15.39-9.16 9.17 0-4.51 10.25-25.89 17.99-37.54 9.35-14.05 24.25-28.77 29.15-28.77 6.52 0 11.14 7.03 9.69 14.74l-1.24 6.65 11.83-10.7c13.76-12.43 19.78-13.72 26.17-5.61 4.4 5.58 4.02 13.41-1.13 23.35-1.49 2.87-1.91 5.21-.94 5.21s2.05-.64 2.39-1.42c1.52-3.43 16.68-13.66 21.77-14.67 10.97-2.19 17.01 10.23 10.78 22.16-2.04 3.9-2.12 5.14-.36 5.14 1.27 0 3.23-.9 4.34-2.01 3.38-3.38 12.16-1.12 16.07 4.14 5.41 7.27 2.77 13.01-20.95 45.53-23.56 32.29-45.93 68.75-56.89 92.71-7.69 16.81-9.38 18.88-11.3 13.87zm-18.99-17.79c-.64-1.03 3.22-6.28 8.56-11.68 17.6-17.77 35.42-46.05 35.43-56.2 0-6.03-3.7-10.63-8.54-10.63-6.15 0-27.24 10.72-40.12 20.38-5.66 4.25-10.59 6.84-10.95 5.76-.97-2.92 2.9-6.87 15.56-15.88 29.26-20.85 51.54-20.71 49.17.31-1.85 16.38-19.25 44.12-39.38 62.8-8.48 7.86-8.16 7.69-9.73 5.14zm-41.2-41.13-11.11-11.21 4.42-17.56c2.43-9.66 6.62-22.07 9.3-27.57 3.99-8.16 5.87-10.12 10.2-10.61 7.12-.82 10.47 3.98 10.54 15.08.06 8.93-8.47 56.34-10.93 60.72-.9 1.61-4.81-1.18-12.42-8.85zm-24.82-25.29c-5.39-5.61-9.8-10.88-9.8-11.69 0-3.12 9.8-35.25 12.5-40.98 3.07-6.51 7.8-8.95 13.71-7.08 7.64 2.43 7.84 6.69 1.75 37.77-3.17 16.24-6.36 30.12-7.07 30.85-.71.74-5.7-3.25-11.09-8.87zm-24.22-23.77-9.6-9.81 3.54-11.31c1.95-6.24 5.7-13.35 8.36-15.84 4.53-4.25 5.15-4.35 9.88-1.72 3.17 1.78 5.26 4.7 5.64 7.9.6 5.18-4.64 34.04-6.95 38.25-.86 1.58-4.37-.83-10.87-7.47zm-21.19-21.07c-1.98-2.38-1.86-2.65.71-1.67 1.69.65 3.07 1.93 3.07 2.85 0 2.4-1.08 2.07-3.78-1.18z"/><path d="m287.48 9.1495c-68.53 0-131.28 24.9475-179.72 66.2505-1.27 1.083-2.53 2.175-3.78 3.281-.5.444-1 .895-1.5 1.344-1.07.96-2.13 1.929-3.189 2.906-.281.26-.563.519-.843.781-1.25 1.165-2.492 2.343-3.719 3.531-1.408 1.362-2.809 2.734-4.188 4.125-1.353 1.365-2.706 2.732-4.031 4.125-1.374 1.446-2.719 2.931-4.062 4.406-.154.171-.316.331-.469.501-1.162 1.28-2.3 2.57-3.438 3.87-1.242 1.43-2.442 2.87-3.656 4.32-.047.05-.109.1-.156.15-40.496 48.38-64.9061 110.73-64.9061 178.78 0 153.66 124.3771 278.34 277.6571 278.34 68.68 0 131.54-25.07 180.03-66.53l.03.03c.39-.33.78-.66 1.16-1 .16-.13.31-.27.47-.4.94-.82 1.88-1.64 2.81-2.47.74-.66 1.46-1.31 2.19-1.97.21-.19.42-.37.62-.56.97-.89 1.92-1.79 2.88-2.69.86-.81 1.71-1.62 2.56-2.44.12-.11.23-.23.35-.34 1.08-1.06 2.14-2.12 3.21-3.19.32-.31.63-.62.94-.94 1.25-1.26 2.49-2.55 3.72-3.84.12-.13.25-.25.38-.38 1.4-1.48 2.81-2.98 4.18-4.5 1.26-1.39 2.49-2.8 3.72-4.21.23-.27.46-.52.69-.79 1.05-1.21 2.09-2.45 3.12-3.68 40.33-48.33 64.63-110.55 64.63-178.44 0-153.66-124.41-278.3831-277.69-278.3831zm0 62.0625c119.11 0 215.78 96.908 215.78 216.308 0 50.85-17.51 97.62-46.84 134.56l-304.5-302.78c37.06-30.058 84.21-48.09 135.56-48.09zm-168.62 81.408 304.56 302.84c-37.12 30.24-84.42 48.37-135.94 48.37-119.11 0-215.75-96.91-215.75-216.31 0-51 17.636-97.91 47.13-134.91z" fill="#c00" stroke="#c00" stroke-width="2"/></svg>