<svg height="420" viewBox="-10 -10 420 420" width="420" xmlns="http://www.w3.org/2000/svg"><circle cx="200" cy="200" fill="#fff" r="205" stroke="#000" stroke-width="2"/><path d="m182.89 399.59c-.21-.19-3.24-.65-6.72-1.01-34.45-3.57-74.68-20.66-102.67-43.6-8.533-6.99-25.405-24.31-31.643-32.48-21.895-28.67-36.3092-63.67-40.5631-98.5-.99596-8.15-1.03479-37.14-.0625-46.66 3.6136-35.37 20.5156-75.45 43.7886-103.84 6.994-8.533 24.313-25.405 32.48-31.643 28.79-21.99 66.11-37.1874 99.74-40.6165 9.39-.95801 37.36-.95433 45.88.0061 34.31 3.8655 70.75 18.7584 99.38 40.6074 9.03 6.889 26.94 24.615 33.99 33.646 9.47 12.114 16.95 24.113 23.52 37.71 9.21 19.07 13.7 34.05 18.52 61.79 1.09 6.24 1.38 39.29.41 47-4.62 37-18.61 71.45-40.8 100.5-6.48 8.49-23.29 25.63-32.14 32.78-11.58 9.35-24.26 17.38-38.5 24.37-18.72 9.18-35.4 14.31-61.5 18.91-3.84.68-42.48 1.6-43.11 1.03zm14.59-35.64c-.87-2.75 1-4.76 5.12-5.54 4.72-.88 8.82 1.78 7.97 5.17-.47 1.88-.21 2.42 1.16 2.4 3.81-.04 23.57-2.95 24.15-3.56.34-.35-.39-1.32-1.63-2.15-5.28-3.55-.53-8.43 6.52-6.69 3.08.76 3.79 1.41 4.06 3.76.28 2.53.61 2.77 3 2.17 6.07-1.51 15.11-6.72 19.03-10.97 3.33-3.62 4.14-5.23 4.14-8.27-.01-6.57-5.01-12.15-15.87-17.72-3.16-1.62-3.27-1.84-1.7-3.39 1.56-1.55 2.21-1.38 9.56 2.49 4.33 2.28 8.13 3.89 8.44 3.58.32-.31.57-6.36.57-13.45v-12.89l3.87-5.69c5.85-8.63 11.59-20.67 15.12-31.75 4.67-14.59 4.59-14.45 7.74-14.47 8.58-.07 18.38-9.51 26.17-25.2 9.92-19.99 12.94-41.09 7.45-52-1.78-3.53-8.07-7.78-11.52-7.78-1.49 0-3.04-.54-3.45-1.19-.4-.66-.62-5.76-.48-11.34.57-22.91-6.58-46.72-20.03-66.721-5.4-8.032-20.59-23.219-28.62-28.62-34.94-23.493-77.24-26.456-114.52-8.021-29.87 14.773-51.02 41.261-59.409 74.392-2.006 7.92-2.6 13.06-2.861 24.74-.181 8.11-.574 15.14-.873 15.62-.298.48-2.321 1.16-4.494 1.51-5.088.81-10.507 5.85-11.975 11.14-3.672 13.23 1.611 36.53 12.387 54.63 7.316 12.28 15.735 18.83 24.225 18.85 1.62.01 2.4.77 2.85 2.76 3.18 14.05 9.88 29.92 17.8 42.17l4.62 7.14v13.47c0 10.77.28 13.47 1.38 13.47.76 0 1.86-.58 2.45-1.29s3.77-2.59 7.07-4.16c4.98-2.38 6.27-2.65 7.54-1.6 1.94 1.61 1.25 2.72-2.76 4.45-5.19 2.22-11.49 7.33-13.25 10.74-6.79 13.12 11.94 25.91 44.42 30.34 14.41 1.96 15.41 1.93 14.63-.53zm-35.87-6.83c-1.59-1.76-1.59-1.99-.04-3.55 2.2-2.2 10.27-1.79 11.77.6 2.73 4.35-8.02 7.05-11.73 2.95zm25.97-2.44c-.99-.72-1.64-2.15-1.44-3.17.71-3.66 10.16-4.26 13.01-.83 3.01 3.62-7.24 7.17-11.57 4zm21.51-.5c-2.24-4.19 6.87-7.16 11.47-3.74 3.29 2.44.73 5-5.35 5.36-4.18.25-5.27-.04-6.12-1.62zm17.35-4.62c-1.55-1.16-1.72-1.8-.83-3.25.84-1.38 2.37-1.81 6.39-1.81s5.55.43 6.39 1.81c1.51 2.46-1.53 4.69-6.39 4.69-1.99 0-4.49-.65-5.56-1.44zm-56-1c-1.53-1.14-1.71-1.81-.86-3.21 2.37-3.86 11.59-3.67 13.11.28 1.44 3.76-8.06 6.04-12.25 2.93zm82.79-2.56c-1.25-.52-2.56-1.7-2.91-2.62-1.51-3.93 7.5-5.97 11.62-2.63 1.83 1.49 1.96 2.01.86 3.49-1.6 2.13-6.52 3.04-9.57 1.76zm-107.37-3-2.36-2 2.36-2c2.83-2.4 6.87-2.58 9.92-.44 2.95 2.06 2.81 4.27-.35 5.46-3.93 1.5-6.98 1.18-9.57-1.02zm53.58.56c-1.55-1.16-1.72-1.8-.83-3.25.84-1.38 2.37-1.81 6.39-1.81s5.55.43 6.39 1.81c1.51 2.46-1.53 4.69-6.39 4.69-1.99 0-4.49-.65-5.56-1.44zm29.31-3.64c-4.55-2.65-.25-6.2 6.93-5.72 5.29.34 7.58 2.57 5.39 5.22-1.51 1.81-9.51 2.14-12.32.5zm-59.82-1.5c-.95-1.15-1.03-2.04-.26-3.25 1.56-2.48 12.18-2.37 13.72.14.89 1.45.72 2.09-.83 3.25-2.67 1.98-10.94 1.89-12.63-.14zm43.29-5.98c-1.74-1.22-2.01-1.96-1.25-3.38 2.13-3.98 14.03-3.12 14.03 1 0 3.81-8.49 5.39-12.78 2.38zm-25.23-1.25c-2.1-1.7-2.13-1.91-.54-3.5 2.26-2.26 10.79-2.31 13.03-.07 4.28 4.29-7.46 7.65-12.49 3.57zm53.19-1.25c-3.49-1.4-2.57-5.12 1.57-6.3 4.24-1.21 9.61.29 10.1 2.83.73 3.8-5.92 5.78-11.67 3.47zm-77.17-.8c-3.08-.9-3.85-4.05-1.43-5.82 2.15-1.58 7.79-1.73 10.49-.28 1.9 1.02 2.65 4.4 1.17 5.31-1.61 1-7.86 1.48-10.23.79zm39.34-7.13c-3.38-1.37-3.91-3.14-1.51-5.08 1.19-.96 2.16-2.08 2.16-2.49s-5.51-.39-12.25.04c-18.14 1.17-21.02 1.15-21.46-.14-.71-2.08 8.78-3.45 28.07-4.03 12.59-.39 22.29-.15 29.17.69 11.45 1.42 13.67 2.2 11.71 4.16-.98.98-3.26.98-10.99.03-5.36-.67-11.44-1.2-13.5-1.2-4.02.01-5.03 1.47-1.75 2.51 2.55.81 2.59 4.11.07 5.46-2.3 1.23-6.73 1.25-9.72.05zm-63.68-39.68c-2.2-2.19-.28-4.44 6.58-7.71 32.45-15.45 88.95-14.85 120.57 1.29 2.81 1.43 4.18 2.79 4.18 4.14 0 3.15-2.37 3.3-7.84.53-13.13-6.65-29.95-10.32-51.66-11.25-23.18-1-46.79 2.86-62.35 10.2-7.78 3.67-8.43 3.86-9.48 2.8zm-36.93-52.38c-11.226-12.83-20.075-40.54-16.746-52.43 1.899-6.78 5.869-8.01 9.961-3.07 1.791 2.15 6.385 1.94 8.505-.4 1.56-1.73 1.64-2.67.65-8.33-.61-3.51-1.11-12.24-1.11-19.4 0-20.47 5.12-37.84 16.21-54.98 12.97-20.041 34.78-35.79 58.79-42.461 7.44-2.066 10.69-2.363 26-2.37 19.49-.01 24.71.943 39.82 7.266 11.67 4.887 22.33 12.14 31.76 21.609 13 13.064 21.74 27.956 26.48 45.116 2.75 9.98 3.78 33 1.97 44.22-1.08 6.69-1.03 7.63.54 9.36 2.4 2.65 6.32 2.4 9.47-.62 2.23-2.13 3.05-2.37 5.25-1.54 10.52 4 1.2 43.11-14.15 59.33-3.82 4.04-7.31 4.81-10.67 2.35-2.86-2.09-3.37-9.61-4.07-60.6-.35-25.03-1.04-46-1.53-46.62-1.56-1.95-23.36-6.39-46.87-9.54-14.99-2.01-62.4-1.74-79.12.46-16.8 2.2-41.48 7.12-43.29 8.62-1.07.89-1.47 10.28-1.97 46.35-.72 51.43-1.24 59.25-4.08 61.32-3.79 2.78-7.08 1.76-11.8-3.64zm45.76-34.74c-19.21-9.31-23.13-30.16-8.25-43.87 12.24-11.28 34.15-11.06 46.08.46 10.9 10.52 11.42 25 1.3 35.98-6.49 7.05-12.37 9.53-23.63 9.97-8.84.34-9.92.16-15.5-2.54zm85.09.37c-6.69-2.81-12.75-8.18-15.9-14.08-3-5.63-2.98-16.39.05-22.13 2.99-5.68 10.35-11.88 17.11-14.43 4.57-1.72 7.19-2.05 13.65-1.7 10.65.57 17.06 3.41 23.41 10.35 9.8 10.73 9.39 24.88-1.03 35.3-6.15 6.14-11.87 8.4-22.38 8.82-7.83.31-9.77.04-14.91-2.13z" fill="#048"/></svg>