<svg height="575" viewBox="0 0 1183.4 1183.1" width="575" xmlns="http://www.w3.org/2000/svg"><g transform="translate(180.3 70.67)"><path d="m372.43 1111.8c-104.13-6.9-208.25-42.7-293.001-100.6-99.59-68.19-174.075-161.09-218.269-272.27-46.22-116.27-54.03-245.28-22.26-367.5 35.15-135.18 118.192-254.43 233.529-335.317 105.391-73.915 235.261-111.941 362.751-106.219 77.94 3.498 146.46 19.493 216.99 50.656 90.92 40.172 169.95 103.064 231.71 184.38 82.34 108.43 125.02 245.58 118.72 381.73-3.99 85.24-23.74 161.75-61.69 238.77-27.98 56.82-69.43 113.95-114.64 158.04-103 100.43-234.84 159.13-378.32 168.43-18.27 1.2-57.08 1.1-75.52-.1z" fill="#c00"/><path d="m384.43 560.43-171.25-171.25c-94.19-94.18-171.475-171.24-171.75-171.23-.276.02-4.287 4.96-8.914 10.99-52.483 68.4-85.732 149.42-96.024 233.99-4.569 37.55-4.378 83.28.505 120.79 6.78 52.08 22.767 103.96 46.842 152.03 47 93.85 124.031 170.01 218.091 215.64 59.05 28.65 115.05 43.05 186.5 47.95 10.97.76 55.83-.45 69.5-1.86 79.59-8.24 150.34-33.22 216-76.27 11.54-7.57 29.98-20.98 37.77-27.47l2.78-2.31-113.48-113.45c-99.48-99.46-113.28-112.9-111.87-109" fill="#fff"/><path d="m489.13 668.98c2.61 7.2 2.14 17.33-1.13 24.62-1.52 3.37-4.06 7.39-5.66 8.92s-2.91 3.75-2.91 4.92c0 4.06-3.12 11.27-6.67 15.42-3.49 4.07-11.69 9.07-14.88 9.07-.89 0-1.44.34-1.23.75 3.93 7.64 4.28 9.12 4.31 18.28.03 7.31.43 10.08 1.74 11.95 5.29 7.55 6.18 22.35 1.86 30.78-2.06 4.02-2.09 4.43-.57 7.36 4.65 9 2.34 21.55-5.57 30.2-3.99 4.37-4.99 6.16-4.99 8.95 0 11.19-10.46 24.4-22.09 27.88l-3.68 1.1-.43 8.63c-.27 5.4-1.07 9.82-2.12 11.83-1.63 3.09-1.61 3.38.56 7.5 3.41 6.49 3.69 18.75.57 24.67-2.22 4.2-2.99 4.68-20.31 12.73-9.9 4.61-18.81 8.38-19.81 8.38-4.55.03-8.07-16.51-5.37-25.22 1.36-4.37 1.33-5.03-.38-8.38-1.02-2.01-2.14-5.5-2.48-7.77l-.61-4.12h-10.68c-9.92 0-11.15-.22-17.39-3.18-5.84-2.77-7.43-3.1-12.22-2.61-10.77 1.11-20.15-4.02-25.06-13.7-1.59-3.14-3.24-4.98-4.84-5.38-3.85-.96-12.26-9.18-14.19-13.87-.98-2.39-1.8-7.11-1.86-10.76-.08-4.96-.67-7.4-2.48-10.31-5.2-8.35-4.7-18.31 1.26-25.31 2.6-3.05 3.42-5.07 3.87-9.5.31-3.09 1.48-7.41 2.59-9.59 2.35-4.59 8.1-9.99 11.59-10.86 1.66-.42 3.24-2.29 5.04-5.98 3.4-6.95 10.32-13.04 17.04-15l5.2-1.51-1.34-5.72c-.74-3.14-1.36-7.3-1.37-9.23 0-2.04-1.01-5-2.4-7.03-7.1-10.45-7.29-25.52-.46-35.16 1.73-2.44 1.81-3.3.76-9-2.66-14.44 4.73-28.26 18.06-33.78 1.98-.83 3.25-2.19 3.61-3.89 1.45-6.84 3.83-11.32 7.94-14.93 4.04-3.56 9.93-6.2 13.84-6.2 1.12 0 1.64-.87 1.64-2.77 0-1.53.67-3.74 1.49-4.91 1.36-1.95 1.27-2.52-.99-6.48-1.84-3.23-2.48-5.81-2.49-10.12-.01-7.13 1.93-11.98 6.54-16.33l3.54-3.34-1.54-4.56c-2.13-6.25-1.95-14.42.45-20.73l2-5.26"/><path d="m360.42 853.25c4.6.54 4.87.44 6.03-2.38 1.05-2.52.92-3.65-.9-7.87-1.29-3-2.12-7.05-2.12-10.31 0-4.66-.4-5.76-2.96-8.22-5.92-5.67-8.61-15.41-6.65-24.11.59-2.63.34-3.23-1.77-4.19-2.18-.99-2.88-.73-6.11 2.32-2.01 1.89-4.74 3.71-6.08 4.05-2.13.54-2.43 1.18-2.45 5.25-.03 4.93-2.6 11.77-5.27 13.97-1.46 1.21-1.41 1.69.54 5.44 1.18 2.26 2.33 6.68 2.56 9.82.38 5.29.61 5.75 3.16 6.26 3.61.72 8.46 4.87 9.99 8.55 1.13 2.73 1.42 2.87 4.21 1.89 1.66-.57 5.17-.79 7.82-.47z" fill="#fff"/><path d="m438.45 478.75c1.34 3.59 30.26 32.96 172.04 174.75 93.74 93.74 170.75 170.43 171.14 170.43s5.87-6.87 12.18-15.28c34.7-46.22 59.63-95.66 76.5-151.72 9.17-30.46 15.1-62.54 18.12-98 1.37-16.03 1.38-59.82.02-76-6.69-79.42-31.15-151.87-74.41-220.32-29.18-46.17-72.09-92.01-118.27-126.36-56.88-42.297-128.1-73.168-197.84-85.752-33.91-6.118-58.79-7.995-96.5-7.279-29.37.558-43.82 1.845-70.32 6.268-55.67 9.29-112.72 29.991-161.2 58.493-19.11 11.23-50.37 32.93-58.76 40.78l-2.78 2.61 139.78 139.79 139.78 139.79" fill="#fff"/><path d="m387.93 430.95 1.67-3.91c1.51-3.54 1.52-4.32.16-8.26-2.73-7.86-2.78-13.67-.19-21.35l2.36-7-2.25-4.46c-2.9-5.75-3.05-15.67-.34-21.65 1.83-4.02 1.83-4.25.01-9.5-2.34-6.79-2.36-13.92-.06-20.59 1.61-4.65 1.65-5.55.35-8.5-1.99-4.53-1.89-16.3.18-21.34 1.51-3.68 1.52-4.44.14-8.38-1.96-5.55-1.96-15.61 0-21.15 1.37-3.89 1.37-4.73 0-8.15-1.92-4.79-1.97-13.78-.11-18.24 1.23-2.94 1.23-4.05 0-8.13-1.77-5.9-1.83-15.41-.12-21.99 1.06-4.1 1.07-5.93.02-9.97-1.68-6.5-1.66-16 .05-21.7 1.17-3.88 1.17-5.37 0-9.88-1.74-6.73-1.75-14.97-.02-21.65 1.15-4.43 1.14-6.01-.07-10.47-1.69-6.24-1.2-20.05.86-24.36 1.06-2.23 6.29-5.69 22.87-15.14 21.4-12.202 21.5-12.246 23.21-10.17 4.1 4.947 5.01 17.66 1.87 25.93-1.8 4.73-1.82 5.23-.27 8.27 2.53 4.97 2.78 17.13.48 23.22-1.81 4.8-1.82 5.19-.15 9.5 2.44 6.32 2.36 17.27-.16 22.83-1.88 4.15-1.89 4.46-.23 7.5 2.49 4.54 2.46 20.85-.04 25.42-1.67 3.07-1.68 3.43-.08 6.5 2.64 5.06 2.98 17.15.67 23.25-1.82 4.8-1.83 5.18-.16 9.5 2.29 5.93 2.29 17.08 0 23-1.67 4.32-1.66 4.71.16 9.5 2.31 6.11 1.97 18.2-.67 23.25-1.6 3.07-1.59 3.43.08 6.5 2.5 4.57 2.53 20.89.04 25.43-1.66 3.04-1.65 3.35.23 7.5 2.56 5.64 2.66 16.07.21 22.56-1.71 4.54-1.71 4.97-.05 9.26 2.36 6.1 2.36 16.65 0 22.85-1.72 4.52-1.74 5.09-.25 7.76 2.35 4.25 2.23 20.73-.18 25.14-1.67 3.07-1.68 3.43-.08 6.5 2.64 5.06 2.98 17.15.67 23.25-1.78 4.7-1.8 5.27-.29 9.32"/><g fill="#fff"><path d="m415.1 813.72c.88-.68.7-1.96-.73-5.1-2.7-5.94-2.51-13.92.48-20.34l2.39-5.15-2.94-2.82c-1.71-1.63-3.58-5-4.45-8-1.36-4.67-1.31-6.9.24-12.63.33-1.21-.1-1.75-1.39-1.75-1.22 0-2.3 1.2-3.11 3.44-1.51 4.18-7.29 9.44-11.23 10.23l-2.9.58 2.64 3.13c5.54 6.57 7.79 15.66 5.41 21.92-.82 2.16-.45 2.77 3.36 5.45 2.77 1.95 5.15 4.8 6.68 8.01 2.27 4.76 2.87 5.09 5.55 3.03z"/><path d="m391.97 722.93h3.21l-1.34-6.25c-.74-3.43-1.38-10.52-1.42-15.75-.07-9.22-.17-9.6-3.29-13.13l-3.21-3.63-4.71 4.26c-4.49 4.07-4.67 4.42-3.75 7.63 1.48 5.15 1.16 10.36-1.02 16.85l-2 5.92 2.69 4.32 2.69 4.31 4.47-2.26c2.46-1.25 5.92-2.27 7.68-2.27z"/><path d="m444.42 671.79c.01-.35-1.23-.93-2.74-1.3-1.51-.36-3.54-.89-4.5-1.17-1.44-.43-1.75.12-1.75 3.11 0 2-.47 4.51-1.04 5.57-.83 1.56-.5 2.62 1.7 5.37l2.73 3.43 2.8-7.18c1.54-3.95 2.8-7.48 2.8-7.83z"/></g><path d="m435.72 616.93h4.12l-4.41-4.5c-4.79-4.87-5.25-4.73-6.44 1.89-.61 3.35-.48 3.8.95 3.25.91-.35 3.51-.64 5.78-.64z"/></g></svg>