<svg height="575" width="575" xmlns="http://www.w3.org/2000/svg"><path d="m574.07 287.5c0 158.27-128.3 286.57-286.57 286.57s-286.57-128.3-286.57-286.57 128.3-286.57 286.57-286.57 286.57 128.3 286.57 286.57z" fill="#fff" stroke="#000" stroke-linecap="square"/><path d="m262.33 99.136h52.19v108.734h-52.19z"/><path d="m375.54 183.34-97.83 196.48c-14.51 4.52-25.04 18.05-25.04 34.04 0 9.41 3.65 17.96 9.61 24.34v43.35h52.22v-43.5-.03c5.87-6.35 9.46-14.84 9.46-24.16 0-2.92-.36-5.76-1.02-8.48l98.73-198.24zm-87.22 194.88c.62 0 1.22.03 1.84.06-.61-.03-1.23-.06-1.84-.06zm0 17.82c9.84 0 17.82 7.99 17.82 17.82 0 9.84-7.99 17.83-17.82 17.83-9.84 0-17.82-7.99-17.82-17.83-.01-9.83 7.98-17.82 17.82-17.82zm8.03 52.56c-.28.07-.56.12-.85.18.29-.06.57-.11.85-.18z"/><path d="m287.48 9.1495c-68.53 0-131.28 24.9475-179.72 66.2505-1.27 1.083-2.53 2.175-3.78 3.281-.5.444-1 .895-1.5 1.344-1.07.96-2.13 1.929-3.189 2.906-.281.26-.563.519-.843.781-1.25 1.165-2.492 2.343-3.719 3.531-1.408 1.362-2.809 2.734-4.188 4.125-1.353 1.365-2.706 2.732-4.031 4.125-1.374 1.446-2.719 2.931-4.062 4.406-.154.171-.316.331-.469.501-1.162 1.28-2.3 2.57-3.438 3.87-1.242 1.43-2.442 2.87-3.656 4.32-.047.05-.109.1-.156.15-40.496 48.38-64.9061 110.73-64.9061 178.78 0 153.66 124.3771 278.34 277.6571 278.34 68.68 0 131.54-25.07 180.03-66.53l.03.03c.39-.33.78-.66 1.16-1 .16-.13.31-.27.47-.4.94-.82 1.88-1.64 2.81-2.47.74-.66 1.46-1.31 2.19-1.97.21-.19.42-.37.62-.56.97-.89 1.92-1.79 2.88-2.69.86-.81 1.71-1.62 2.56-2.44.12-.11.23-.23.35-.34 1.08-1.06 2.14-2.12 3.21-3.19.32-.31.63-.62.94-.94 1.25-1.26 2.49-2.55 3.72-3.84.12-.13.25-.25.38-.38 1.4-1.48 2.81-2.98 4.18-4.5 1.26-1.39 2.49-2.8 3.72-4.21.23-.27.46-.52.69-.79 1.05-1.21 2.09-2.45 3.12-3.68 40.33-48.33 64.63-110.55 64.63-178.44 0-153.66-124.41-278.3831-277.69-278.3831zm0 62.0625c119.11 0 215.78 96.908 215.78 216.308 0 50.85-17.51 97.62-46.84 134.56l-304.5-302.78c37.06-30.058 84.21-48.09 135.56-48.09zm-168.62 81.408 304.56 302.84c-37.12 30.24-84.42 48.37-135.94 48.37-119.11 0-215.75-96.91-215.75-216.31 0-51 17.636-97.91 47.13-134.91z" fill="#c00" stroke="#c00" stroke-width="2"/><g fill="none" stroke="#000" stroke-width="8"><path d="m420.34 304.77 48.78 24.94-48.51 26.04m-43.49-25.49 86.88-.55"/><path d="m233.91 304.77-48.79 24.94 48.52 26.04m43.49-25.49-86.88-.55"/></g></svg>