<svg height="575" width="575" xmlns="http://www.w3.org/2000/svg"><path d="m574.07 287.5a286.57 284.89 0 1 1 -573.13 0 286.57 284.89 0 1 1 573.13 0z" fill="#fff" stroke="#000" stroke-linecap="square"/><path d="m287.48 9.1495c-115.66-1.7573-226.12 77.6405-262.42 187.2905-36.874 102.56-5.663 224.74 75.76 297.09 80.58 75.35 207.63 94.27 306.53 45.07 101.63-47.36 167.21-160.66 157.01-272.49-7-111.07-87.77-212.503-194.33-244.453-26.66-8.326-54.64-12.5535-82.55-12.5095zm0 62.0625c97.86-1.811 189.84 71.918 210.25 167.478 14.92 63.22-.55 132.76-41.31 183.39-101.5-100.93-203-201.85-304.5-302.78 37.9-30.96 86.6-48.294 135.56-48.088zm-168.62 81.408c101.52 100.95 203.04 201.89 304.56 302.84-73.51 62.05-189.04 64.47-265.01 5.38-77.595-56.09-108.14-166.33-70.965-254.46 7.804-19.31 18.435-37.5 31.415-53.76z" fill="#c00" stroke="#c00" stroke-width="2"/></svg>