<svg height="420" viewBox="-10 -10 420 420" width="420" xmlns="http://www.w3.org/2000/svg"><circle cx="200" cy="200" fill="#fff" r="205" stroke="#000" stroke-width="2"/><path d="m182.9 399.6c-.22-.2-3.25-.66-6.73-1.02-34.45-3.57-74.68-20.66-102.67-43.6-8.533-6.99-25.405-24.31-31.643-32.48-22.228-29.1-36.2444-63.14-40.5631-98.5-.99596-8.15-1.03479-37.14-.0625-46.66 3.6067-35.3 20.5596-75.5 43.7886-103.84 6.994-8.533 24.313-25.405 32.48-31.643 28.79-21.99 66.11-37.1874 99.74-40.6165 9.39-.95801 37.36-.95433 45.88.0061 35.92 4.0475 74.01 20.1444 102.88 43.4724 8.86 7.156 25.66 24.299 32.14 32.781 13.45 17.603 25.01 39.48 31.77 60.1 3.39 10.33 5.53 19.61 8.62 37.4 1.09 6.24 1.38 39.29.41 47-4.62 37-18.61 71.45-40.8 100.5-6.48 8.49-23.29 25.63-32.14 32.78-28.38 22.93-59.14 36.24-100 43.27-3.93.67-42.48 1.62-43.1 1.05zm-28.95-85.29c18.73-10.83 34.03-20.16 34.01-20.75-.02-.58-15.43-9.9-34.25-20.7-24.64-14.15-34.65-19.42-35.78-18.81-.86.45-2.42 2.71-3.45 5-2.31 5.11-3.89 3.7 18.77 16.63 9.21 5.26 16.75 9.96 16.75 10.44 0 .49-17.86.88-40.46.88-38.988 0-40.508.07-41.505 1.93-1.405 2.63-1.308 8.4.165 9.87.894.89 11.507 1.2 41.58 1.2 30.5 0 40.29.29 39.99 1.18-.21.64-8.57 5.92-18.58 11.73-10 5.8-18.19 11.15-18.19 11.87 0 2.12 4.38 9.2 5.7 9.21.65.01 16.52-8.85 35.25-19.68zm130.8 15.44c1.24-2.34 2.25-4.72 2.25-5.29s-8.18-5.75-18.17-11.52c-10-5.76-18.36-11.02-18.58-11.69-.32-.95 8.75-1.29 40.42-1.49l40.83-.26v-6-6l-40.75-.26c-22.41-.14-40.75-.65-40.75-1.12s7.55-5.18 16.77-10.46c22.91-13.12 21.24-11.57 18.38-17.03-1.3-2.47-2.9-4.7-3.56-4.96-1.72-.66-69.6 38.58-69.32 40.08.26 1.4 66.41 40.09 68.73 40.19.83.03 2.52-1.85 3.75-4.19zm19.33-95.33 2.42-2.58v-43.39-43.4l-2.28-2.27-2.27-2.28-42.47-.28c-48.19-.32-47.54-.41-49.5 6.84-.72 2.69-.98 17.56-.78 44.58l.3 40.54 2.81 2.41 2.8 2.41h43.27 43.27zm-67.85-23.26c-.98-.62-1.21-5.86-1-22.73l.27-21.93h22.5 22.5l.27 21.93c.21 16.87-.02 22.11-1 22.73-.7.45-10.5.81-21.77.81-11.28 0-21.07-.36-21.77-.81zm38.27-22.16v-16.5h-16.5-16.5l-.28 15.46c-.15 8.5-.05 16.05.23 16.77.4 1.03 4.05 1.26 16.78 1.04l16.27-.27zm-132.42 41 5.22-6h18.9c18.81 0 18.9-.01 21.39-2.5l2.49-2.49-.29-31.09c-.27-29.43-.39-31.16-2.23-32.5-1.51-1.11-6.06-1.42-20.53-1.42h-18.59l-6.46-6.52-6.46-6.52-20.51.27-20.51.27-.5 6-.5 6-26.281.27-26.281.26-.933 2.46c-.514 1.35-1.958 7.53-3.21 13.73-1.905 9.44-2.278 14.48-2.286 30.88-.007 15.06.306 19.97 1.351 21.23 1.19 1.44 4.861 1.67 29.5 1.9l28.14.27.282 4.5c.468 7.46-.986 7 22.118 7h20.96zm-39.62-3.25c-.27-.69-.37-18.35-.22-39.25l.26-38h4 4l.26 39.25.26 39.25h-4.04c-2.32 0-4.25-.53-4.52-1.25zm52-19c-.28-.72-.38-9.62-.23-19.78l.27-18.47h11.5 11.5v19.5 19.5l-11.27.28c-8.59.22-11.39-.03-11.77-1.03zm209.71 15c.87-1.57 1.25-8.02 1.26-21.25.02-19.59-1.55-32.68-5.28-44l-1.65-5h-23-23l-.26 34.99c-.15 19.25-.05 35.56.22 36.25.36.97 6.34 1.26 25.47 1.26 24.89 0 25.01-.01 26.24-2.25z" fill="#048"/></svg>