<svg height="400" viewBox="0 0 200 200" width="400" xmlns="http://www.w3.org/2000/svg"><g><path d="m0 0h200v200h-200z" fill="#fff"/><path d="m5 98.819v-95.0001h95 95v95.0001 95.001h-95-95z" fill="#085"/><g fill="#fff"><path d="m51.966 165.82c0 5.42.387 9.85.86 9.85.472 0 3.114-2.35 5.87-5.23l5.012-5.23v-15.05-15.05h-14.293-14.292l-5.989 5.89c-3.293 3.25-5.988 6.11-5.988 6.37s4.373.61 9.719.78l9.719.3-9.977 9.83-9.977 9.84 4.226 4.32 4.226 4.33 10.442-10.4 10.442-10.4z"/><path d="m116.54 142.95.28-28.92 1.21.03.1 29.38c.09 3.2 5.52 2.86 6.94.39 1.26-1.05.65-3.73.65-25.51 0-16.99.25-26.174.24-26.857 0-.171 1.08-.21 1.05.004l-.07 18.853c.92 2.85 6.62 2.51 6.81.1.14-1.71.06-.68.06-10.38 0-10.182.23-11.602-2.11-14.322-2.3-2.671-3.37-3.009-10.68-3.379-10.04-.506-14.53.283-17.53 3.081-2.11 1.964-2.6 3.262-2.6 13.767 0 5.533.01 10.993.09 11.333.56 2.51 6.15 2.25 6.15-.11l.03-18.203c0-.072 1.31-.008 1.31-.008l.36 50.731c.97 4.33 7.53 2.4 7.71.02z"/><path d="m87.47 78.262c4.26-3.85.97-11.309-4.98-11.309-5.87 0-9.05 6.845-5.18 11.123 2.21 2.433 7.57 2.531 10.16.186z"/><path d="m122.99 77.656c2.18-3.112 2.1-5.392-.3-8.351-2.41-2.97-8.49-3.169-10.55-.345-1.88 2.565-1.72 7.364.31 9.391 2.55 2.551 8.54 2.156 10.54-.695z"/><path d="m105.83 65.856c2.08-2.8 2.1-3.125.45-5.87-2.62-4.368-6.57-5.429-10.19-2.74-3.85 2.864-4.27 6.306-1.18 9.594 3.25 3.468 7.92 3.048 10.92-.984z"/><path d="m82.96 142.95-.27-28.92-1.21.03-.1 29.38c-.09 3.2-5.52 2.86-6.94.39-1.26-1.05-.65-3.73-.65-25.51 0-16.99-.18-26.038-.18-26.721 0-.17-1.45-.209-1.42.004l-.03 18.917c-.93 2.85-6.21 2.31-6.4-.1-.14-1.71-.06-.68-.06-10.38 0-10.182-.23-11.602 2.1-14.322 2.3-2.671 3.37-3.009 10.69-3.378 10.04-.507 14.53.282 17.53 3.08 2.11 1.965 2.59 3.262 2.59 13.767 0 5.533-.01 10.993-.08 11.333-.56 2.51-6.15 2.25-6.16-.11l-.02-18.203c0-.072-1.31-.008-1.31-.008l-.37 50.731c-.97 4.33-7.52 2.4-7.71.02z"/><path d="m173.76 172.77 4.19-3.97-10.4-10.44-10.4-10.44h9.85c5.42 0 9.85-.38 9.85-.84s-2.55-3.35-5.67-6.43l-5.67-5.6-14.34.3-14.34.29-.3 14.53-.3 14.52 5.55 5.49c3.05 3.02 5.95 5.49 6.44 5.49.48 0 .88-4.2.88-9.33v-9.33l9.87 9.86c5.42 5.43 10.03 9.87 10.23 9.87.21 0 2.26-1.79 4.56-3.97z"/><path d="m63.708 47.813v-14.713l-5.828-5.756-5.829-5.756-.309 9.98-.309 9.98-9.787-9.791c-5.383-5.386-10.051-9.792-10.372-9.792-.791 0-8.128 7.38-8.128 8.176 0 .347 4.323 4.886 9.607 10.085 5.284 5.198 9.607 9.701 9.607 10.006 0 .304-4.427.553-9.838.553h-9.837l5.798 5.871 5.798 5.871h14.713 14.714z"/><path d="m171.57 57.241c2.91-2.908 5.28-5.55 5.28-5.871 0-.322-4.43-.585-9.85-.585h-9.85l10.4-10.442 10.4-10.442-4.22-4.12-4.22-4.121-9.94 9.946-9.94 9.945-.28-8.459c-.16-4.652-.51-9.063-.77-9.801-.3-.814-2.81 1.015-6.39 4.654l-5.9 5.996v14.293 14.293h15 14.99z"/></g></g></svg>