<svg height="575" width="575" xmlns="http://www.w3.org/2000/svg"><path d="m574.07 287.5c0 158.27-128.3 286.57-286.57 286.57s-286.57-128.3-286.57-286.57 128.3-286.57 286.57-286.57 286.57 128.3 286.57 286.57z" fill="#fff" stroke="#000" stroke-linecap="square"/><path d="m147.03 420.12c-6.65-9.49-6.01-30.01 1.52-49.11 5.71-14.5 6.16-20.57 4.63-62.67-3.25-89.64-3.28-105.29-.15-106.44 1.7-.62 8.7 8.41 15.56 20.08l12.47 21.21 15.32.98c15.29.97 15.38 1.04 65.52 50.93 27.62 27.48 50.21 50.78 50.21 51.78s-19.81-2.8-44.02-8.44c-24.21-5.65-46.31-10.28-49.12-10.29-3.07 0-12.59 11.66-23.94 29.36-16.52 25.76-18.83 31.23-18.83 44.56 0 17.02-5.4 24.91-17.04 24.91-4.07 0-9.46-3.05-12.13-6.86zm176.07 0c-3.51-5.02-4.81-14.58-4.81-35.52 0-15.76 1.1-28.66 2.43-28.66 1.34 0 8.99 6.65 16.99 14.78 13 13.19 14.56 16.26 14.56 28.66 0 16.55-6.81 27.61-16.99 27.61-4.12 0-9.5-3.04-12.18-6.87zm-9.26-132.15-43.06-43.23h23.04 23.04l30.37 30.48 30.37 30.49-8.44 12.76c-4.64 7.02-9.3 12.75-10.35 12.75-1.05-.01-21.28-19.47-44.97-43.25zm46.13-30.9-27.7-27.82 36.26-36.26 36.25-36.25v14.59c0 13.84.62 14.91 11.98 20.7 12.03 6.14 15.82 11.36 15.82 21.78 0 3.41 5.49 8.85 13.9 13.78 7.65 4.48 13.9 8.85 13.9 9.71s-2.12 5.67-4.71 10.68c-4.58 8.85-5.37 9.11-27.67 9.11h-22.96l-8.15 13.9c-4.48 7.65-8.39 13.9-8.68 13.9-.3 0-13.01-12.52-28.24-27.82z" fill="#081313"/><path d="m287.48 9.1495c-68.53 0-131.28 24.9475-179.72 66.2505-1.27 1.083-2.53 2.175-3.78 3.281-.5.444-1 .895-1.5 1.344-1.07.96-2.13 1.929-3.189 2.906-.281.26-.563.519-.843.781-1.25 1.165-2.492 2.343-3.719 3.531-1.408 1.362-2.809 2.734-4.188 4.125-1.353 1.365-2.706 2.732-4.031 4.125-1.374 1.446-2.719 2.931-4.062 4.406-.154.171-.316.331-.469.501-1.162 1.28-2.3 2.57-3.438 3.87-1.242 1.43-2.442 2.87-3.656 4.32-.047.05-.109.1-.156.15-40.496 48.38-64.9061 110.73-64.9061 178.78 0 153.66 124.3771 278.34 277.6571 278.34 68.68 0 131.54-25.07 180.03-66.53l.03.03c.39-.33.78-.66 1.16-1 .16-.13.31-.27.47-.4.94-.82 1.88-1.64 2.81-2.47.74-.66 1.46-1.31 2.19-1.97.21-.19.42-.37.62-.56.97-.89 1.92-1.79 2.88-2.69.86-.81 1.71-1.62 2.56-2.44.12-.11.23-.23.35-.34 1.08-1.06 2.14-2.12 3.21-3.19.32-.31.63-.62.94-.94 1.25-1.26 2.49-2.55 3.72-3.84.12-.13.25-.25.38-.38 1.4-1.48 2.81-2.98 4.18-4.5 1.26-1.39 2.49-2.8 3.72-4.21.23-.27.46-.52.69-.79 1.05-1.21 2.09-2.45 3.12-3.68 40.33-48.33 64.63-110.55 64.63-178.44 0-153.66-124.41-278.3831-277.69-278.3831zm0 62.0625c119.11 0 215.78 96.908 215.78 216.308 0 50.85-17.51 97.62-46.84 134.56l-304.5-302.78c37.06-30.058 84.21-48.09 135.56-48.09zm-168.62 81.408 304.56 302.84c-37.12 30.24-84.42 48.37-135.94 48.37-119.11 0-215.75-96.91-215.75-216.31 0-51 17.636-97.91 47.13-134.91z" fill="#c00"/></svg>