<svg height="575" width="575" xmlns="http://www.w3.org/2000/svg"><path d="m573.57 287.97c0 158.27-128.3 286.57-286.57 286.57-158.26 0-286.56-128.3-286.56-286.57 0-158.26 128.3-286.57 286.57-286.57s286.57 128.3 286.57 286.57z" fill="#fff" stroke="#000" stroke-linecap="square"/><path d="m220.86-133.7h209.35v11.55h-209.35z" transform="matrix(.03583 1 -1 .03583 0 0)"/><g fill-rule="evenodd" transform="translate(637.5 -44.318)"><path d="m-235.61 173.3s-3.73 1.94-35.47 8.5c-19.89 4.11-103.48 18.13-123.99 41.37-14.58 16.53-60.81 81.07-66.08 92.74-2.67 9.34-5.58 11.72-4.73 26.25 1.37 23.31-2.45 77.35 3.75 90.11 5.12 10.55 22.2.78 27.07-7.63 7.1-12.24 12.73-57.49 11.39-82.48-.77-14.33 27.76-31.38 32.77-34.29-13.76 20.37-18.17 22.15-13.33 37.21 2.49 7.76 9.19 26.39 12.63 29.16 12.2-7.76 27.62-21.95 32.08-24.3 2.45 8.66-12.28 15.22-18.47 19.44-6.1 4.15-21.94 15.55-29.85 32.07-4.99 9.26.14 23.31 6.66 27.9 0 0 90.27-61.11 113.99-72.61 15.87-7.7 29.2-18.81 46.24-43.73 12.84-18.78 33.64-63.14 55.73-85.14-13.8-22.19-32.17-38.28-50.39-54.57z"/><path d="m-378.98 421.02 26.88-18.57s5.35 10.52 4.71 19.95c-.46 6.93-3.09 11.17-9.13 15.28-5.14 3.51-15.8 1.37-16.89-1.22-1.48-3.47-5.85-15.44-5.57-15.44z"/><path d="m-346.27 398.85 20.79-14.69s8.59 10.05 6.65 19.68-12.63 21.01-23.56 21.06c1.26-8.82-3.88-26.05-3.88-26.05z"/></g><path d="m87.851-495.67h209.35v11.55h-209.35z" transform="matrix(-.4369 .89951 -.89951 -.4369 0 0)"/><path d="m287.48 9.1495c-68.53 0-131.28 24.9475-179.72 66.2505-1.27 1.083-2.53 2.175-3.78 3.281-.5.444-1 .895-1.5 1.344-1.07.96-2.13 1.929-3.189 2.906-.281.26-.563.519-.843.781-1.25 1.165-2.492 2.343-3.719 3.531-1.408 1.362-2.809 2.734-4.188 4.125-1.353 1.365-2.706 2.732-4.031 4.125-1.374 1.446-2.719 2.931-4.062 4.406-.154.171-.316.331-.469.501-1.162 1.28-2.3 2.57-3.438 3.87-1.242 1.43-2.442 2.87-3.656 4.32-.047.05-.109.1-.156.15-40.496 48.38-64.9061 110.73-64.9061 178.78 0 153.66 124.3771 278.34 277.6571 278.34 68.68 0 131.54-25.07 180.03-66.53l.03.03c.39-.33.78-.66 1.16-1 .16-.13.31-.27.47-.4.94-.82 1.88-1.64 2.81-2.47.74-.66 1.46-1.31 2.19-1.97.21-.19.42-.37.62-.56.97-.89 1.92-1.79 2.88-2.69.86-.81 1.71-1.62 2.56-2.44.12-.11.23-.23.35-.34 1.08-1.06 2.14-2.12 3.21-3.19.32-.31.63-.62.94-.94 1.25-1.26 2.49-2.55 3.72-3.84.12-.13.25-.25.38-.38 1.4-1.48 2.81-2.98 4.18-4.5 1.26-1.39 2.49-2.8 3.72-4.21.23-.27.46-.52.69-.79 1.05-1.21 2.09-2.45 3.12-3.68 40.33-48.33 64.63-110.55 64.63-178.44 0-153.66-124.41-278.3832-277.69-278.3832zm0 62.0625c119.11 0 215.78 96.908 215.78 216.308 0 50.85-17.51 97.62-46.84 134.56l-304.5-302.78c37.06-30.058 84.21-48.09 135.56-48.09zm-168.62 81.408 304.56 302.84c-37.12 30.24-84.42 48.37-135.94 48.37-119.11 0-215.75-96.91-215.75-216.31 0-51 17.636-97.91 47.13-134.91z" fill="#c00"/></svg>