<svg height="200" width="200" xmlns="http://www.w3.org/2000/svg"><path d="m.44624.44417h199.11v199.11h-199.11v-199.11z" fill="#fff" fill-rule="evenodd" stroke="#000" stroke-miterlimit="2.613" stroke-width=".89247"/><path d="m5.4189 5.423h189.16v189.15h-189.16v-189.15z" fill="#a92121" fill-rule="evenodd"/><g fill="#fff"><g transform="translate(227.95276 -1.181102)"><path d="m-149.44 95.107h48.177v-5.9823h-98.848c.13822 2.0808-.39792 4.359.5722 6.2639 2.94.06043 6.1231-.18707 9.1562-.1348 13.647-.12318 27.295-.14145 40.943-.14679z"/><path d="m-101.97 86.908c-3.5454-2.7624-9.1182-2.0785-12.664-5.363-8.8984-6.5299-10.51-18.226-16.535-26.859-4.9118-7.2072-12.272-13.644-21.323-14.338-8.1339-1.2282-16.54 1.5859-22.591 7.0903-2.3624 2.5007-5.5405 4.4178-7.4206 7.2295-2.0504 5.3846-3.9567 10.868-5.186 16.503 1.4105 3.8396-.5572 7.977-3.2991 10.855-1.5814 3.3941-7.8841 1.9846-8.2993 5.4098 17.591.65826 35.208.40487 52.81.49345 14.17-.09064 28.352.2035 42.513-.36038.57245-.16718 1.8373.08671 1.9945-.65997z"/><path d="m-106.65 82.356c-1.6188-2.0634-4.5144-2.9015-6.0351-5.2164-3.6756-3.7677-4.7464-9.0461-6.384-13.855-2.8801-7.7542-6.751-15.354-12.491-21.393-5.2072-4.796-12.153-7.0494-18.826-8.9979-6.1089-1.9376-12.559-1.3817-18.868-1.4971-.26509 3.2238-.91518 6.4538-.68186 9.6884 3.3812-.35325 6.4896-2.1155 9.917-2.3889 8.7196-1.25 17.7 1.8621 24.504 7.2662 5.8482 5.7303 9.6058 13.22 12.44 20.812 2.732 6.2903 6.4855 13.104 13.315 15.587.76769.01396 3.156 1.5817 3.1101-.0055z"/></g><g transform="translate(-.132384 .07364)"><path d="m172.35 162.06c-.039-3.0293.0251-6.0776-.35956-9.087-1.3585-.30939-3.2139.46252-4.761.61697-6.9924 1.4677-14.383 1.3563-21.186-.95033-5.0575-1.5843-10.018-3.8616-13.922-7.5208-.64792-.69537-2.1747-1.3599-1.605.23184.92456 4.1458 2.4315 8.173 4.3571 11.957 2.3411 3.996 5.6212 7.502 9.5677 9.9446 3.5588 1.8594 7.5229 2.7908 11.411 3.6967 5.4855.42892 10.998.29277 16.497.38763v-9.2764z"/><path d="m163.65 148.54c2.9984-1.0326 5.8895-2.5061 8.4269-4.4126.0246-1.431-3.3212-1.599-4.7084-2.3219-5.3819-1.5254-10.565-3.9469-14.777-7.6831-5.0197-4.0819-9.1504-9.383-14.97-12.404-4.1378-1.9613-8.8746-1.6006-13.319-1.422-2.6854.22908-5.1475 1.5786-7.2604 3.1786-.69761 1.8803 3.1103 1.8883 4.3301 2.8162 6.2324 2.8753 10.628 8.3835 15.104 13.388 3.4066 4.2633 8.0445 7.6926 13.467 8.795 4.4941.79195 9.2231 1.0039 13.708.066z"/><path d="m172.35 124.65v-10.174c-2.9746.13951-5.9477-.28844-8.743-1.3389-7.7865-2.7243-15.094-6.951-21.04-12.703-3.8454-3.5579-7.5204-7.3436-10.506-11.663-.65081-1.2881-2.4343-2.1606-2.303.0097-.15931 5.0129 1.1478 9.9646 2.6838 14.698 2.9724 8.2184 8.8429 15.112 15.567 20.559 3.6876 3.0483 7.9808 5.231 12.474 6.8172 3.7741 1.3908 7.5197 2.9187 11.417 3.9282.5706-3.3062.35939-6.7752.44994-10.132z"/><path d="m171.27 105.57c2.0147-.97016-2.129-2.0186-2.7345-2.8924-9.0158-6.1797-14.454-16.056-18.839-25.791-2.1163-4.8628-4.2278-10.011-8.4907-13.422-3.423-3.2464-7.9435-5.7506-12.802-5.3187-1.2625-.06654-3.9337.10088-1.7925 1.5869 3.2189 2.4167 5.1342 6.0884 6.2338 9.8863 2.0945 7.3481 3.9542 14.939 8.1715 21.427 4.2686 6.8643 10.573 13.111 18.717 14.866 3.7804.65859 7.8242.70718 11.536-.34185z"/><path d="m172.35 86.34v-9.5831c-2.6272-1.658-5.3206-3.2779-7.433-5.6-2.9871-3.0884-4.757-7.0927-6.7125-10.859-1.4989-3.0112-2.7645-6.1326-3.7909-9.3333-.29-1.6932-1.4602-.88294-1.5202.37721-1.1582 4.9805-1.4283 10.158-1.1036 15.253.4059 6.3085 2.7952 12.438 6.7447 17.372 3.4001 4.2652 7.4128 8.0579 11.842 11.239 1.2857 1.3363 1.9407.23907 1.7686-1.1918.16716-2.5536.19977-5.1145.20532-7.6728z"/></g></g></svg>