<svg height="420" viewBox="-10 -10 420 420" width="420" xmlns="http://www.w3.org/2000/svg"><circle cx="200" cy="200" fill="#fff" r="205" stroke="#000" stroke-width="2"/><path d="m182.89 399.6c-.21-.2-3.07-.64-6.34-.98-35.57-3.76-74.53-20.26-103.05-43.64-8.533-6.99-25.405-24.31-31.643-32.48-22.164-29.02-36.2569-63.24-40.5631-98.5-.99596-8.15-1.03479-37.14-.0625-46.66 3.6067-35.3 20.5596-75.5 43.7886-103.84 6.994-8.533 24.313-25.405 32.48-31.643 28.79-21.99 66.11-37.1874 99.74-40.6165 9.39-.95801 37.36-.95433 45.88.0061 35.92 4.0475 74.01 20.1444 102.88 43.4724 8.86 7.156 25.66 24.299 32.14 32.781 13.45 17.603 25.01 39.48 31.77 60.1 3.39 10.34 5.51 19.52 8.63 37.4 1.08 6.22 1.37 39.28.4 47-4.62 36.97-18.61 71.45-40.8 100.5-6.48 8.49-23.29 25.63-32.14 32.78-11.58 9.35-24.26 17.38-38.5 24.37-18.72 9.18-35.4 14.31-61.5 18.91-3.83.68-42.48 1.61-43.11 1.04zm84.37-48.06c5.04-2.11 9.5-6.17 11.99-10.92 1.96-3.74 2.23-6.26 2.86-27.12 1.09-36.33 5.69-53.37 22.67-84.07 7.35-13.28 11.44-26.5 13.26-42.83 1.81-16.21.22-19.95-7.54-17.79l-3 .83-.59 12.43c-.89 18.75-3.43 26.34-18.35 54.93-11.99 22.98-16.54 42.56-17.44 75-.69 24.89-1.16 26.77-7.34 28.93-2.03.7-19.54 1.07-51.48 1.07-52.17 0-52.53-.03-55.52-5.26-.85-1.49-1.45-8.3-1.78-20.24l-.5-18-9.5-.52c-11.19-.61-17.23-3.13-22.74-9.47-6.5-7.49-7.26-10.61-7.28-29.84 0-9.44-.34-17.69-.75-18.32-.44-.69-4.59-1.28-10.4-1.5-8.597-.31-9.959-.62-12.251-2.77-1.883-1.77-2.579-3.44-2.579-6.18 0-2.06 2.925-15.76 6.5-30.44 3.575-14.67 6.5-27.52 6.5-28.55 0-2.31-4.248-3.56-7.819-2.3-1.601.56-2.84 2-3.357 3.89-1.756 6.43-12.01 49.26-12.856 53.69-2.438 12.79 7.393 23.78 21.282 23.8l3.75.01.01 9.25c0 12.26 1.32 19.73 4.79 27.14 5.42 11.57 17.53 20.53 30.2 22.35l5.5.78.53 13.99c.59 15.37 1.27 17.56 7.26 23.31 6.35 6.1 6.18 6.09 61.84 6.14 42.24.03 51.21-.2 54.13-1.42zm-124.3-156.14c12.76-5.11 9.2-23.73-4.54-23.73-4.78 0-10.04 3.21-11.49 7.01-2.58 6.78.79 14.84 7.1 17.01 4.52 1.56 4.29 1.57 8.93-.29zm183-38.85c1.38-1.66.73-10.67-1.59-21.97-13.17-64.369-75.45-106.203-140.02-94.059-23.85 4.484-44.6 15.578-62.47 33.388-14.19 14.136-22.962 28.281-28.897 46.591-5.298 16.35-4.828 15.54-10.583 18.17-2.884 1.32-8.541 3.09-12.572 3.93-8.381 1.74-11.514 3.44-12.873 7.02-1.33 3.5-1.192 7.12.295 7.72.688.28 61.16.54 134.38.58 115.32.07 133.29-.11 134.33-1.37z" fill="#048"/></svg>