<svg height="420" viewBox="-10 -10 420 420" width="420" xmlns="http://www.w3.org/2000/svg"><circle cx="200" cy="200" fill="#fff" r="205" stroke="#000" stroke-width="2"/><path d="m183.95 399.65c-.25-.23-3.6-.73-7.45-1.11-32.51-3.16-70.15-18.51-99-40.36-8.789-6.66-26.768-24.48-33.977-33.68-23.276-29.71-37.8063-64.29-42.2291-100.5-1.01114-8.28-1.0306-38.39-.0306-47.3 4.0537-36.09 20.5137-74.9 43.7717-103.2 7.048-8.574 23.193-24.316 31.965-31.166 24.87-19.42 59.24-34.6424 89-39.4131 16.11-2.58288 41.47-3.31832 56.5-1.6384 16.26 1.8178 37.6 7.2458 52.4 13.3305 63.33 26.028 108.75 81.555 121.58 148.637 2.18 11.37 3.02 21.75 3.02 37.25 0 16.84-.89 25.93-3.99 40.79-10.71 51.24-41.83 96.82-86.01 125.99-21.74 14.35-55.46 27.35-78.5 30.26-3.03.38-6.4.91-7.5 1.17-2.63.63-38.96 1.49-39.55.94zm34.67-47.19c13.73-2.39 23.22-7.45 34.14-18.21 13.57-13.37 22.22-26.67 29.73-45.75l3.15-8 13.93-.59c17.48-.74 24.94-3.46 33.13-12.05 5.13-5.39 6.78-10.63 13.33-42.34 6.79-32.88 6.95-35.52 2.66-44.89-4.47-9.76-13.81-17.75-25.82-22.1l-6.37-2.31-.28-15.14c-.27-15.04-.29-15.16-2.72-16.08-1.5-.57-2.68-2.01-3.05-3.71-2.18-10.08-6.1-21.926-9.52-28.79-10.1-20.268-28.01-34.983-50.93-41.86-15.27-4.581-20.76-5.14-50.5-5.14-29.67 0-36.08.707-51.5 5.683-29.95 9.662-49.173 31.292-57.022 64.157-2.055 8.6-2.431 9.28-5.478 9.82-1.872.34-2.032 1.35-2.5 15.76l-.5 15.39-6.773 2.74c-15.156 6.14-25.536 17.98-27.349 31.21-.827 6.03 10.673 62.97 14.219 70.4 4.041 8.47 12.711 14.99 23.903 17.98 2.75.74 10.007 1.34 16.13 1.35 7.71.01 11.42.39 12.08 1.26.52.69 1.98 4.18 3.23 7.75 5.39 15.4 15.56 31.32 28.16 44.11 11.26 11.41 22.44 17.4 36.9 19.76 8.88 1.45 26.05 1.25 35.62-.41zm-31.12-10.09c-10.78-2.12-13.76-2.99-18.74-5.5-6.82-3.43-17.89-13.6-24.8-22.78-9.48-12.58-17.17-29.79-20.49-45.9-.86-4.14-2.18-8.69-2.94-10.11-1.44-2.69-6.53-22.75-6.53-25.74 0-.94.98-2.76 2.18-4.03l2.18-2.33-1.75-9.29c-2.06-10.97-2.49-11.81-6.81-13.25-2.8-.94-3.5-1.84-4.66-6.02-1.96-7.1-2.63-30.06-1.15-39.26 3.24-20.09 14-40.44 28.62-54.11 12.41-11.617 27.03-19.782 43.39-24.236 7.25-1.975 10.85-2.311 24.5-2.292 13.58.018 17.19.363 23.88 2.283 35.84 10.283 61.16 35.775 70.2 70.705 3.59 13.86 3.7 32.03.26 44.49-2.34 8.5-2.34 8.5-5.67 8.5-1.96 0-3.83.69-4.55 1.67-.67.92-2.05 6.07-3.06 11.45l-1.85 9.78 3.19 2.66 3.2 2.67-3.63 13.88c-2 7.64-4.49 17.71-5.54 22.39-5.12 22.86-13.77 39.51-28.64 55.12-11.49 12.07-19.61 16.66-33.29 18.83-6.22.99-23.3 1.25-27.5.42zm-85.46-219.01c-.08-3.96 5.04-19.73 8.72-26.823 2.51-4.852 6.3-9.708 12.19-15.64 7.15-7.189 10.11-9.366 18.05-13.255 16.36-8.013 21.16-8.846 54-9.375 37.14-.598 47.98 1.061 65.5 10.025 10.6 5.421 23.5 18.106 28.7 28.208 4.94 9.61 10.22 27.51 8.1 27.49-.44 0-2.79-3.23-5.22-7.17-32.5-52.671-103.83-66.88-154.88-30.852-9.82 6.935-21.12 18.542-27.14 27.862-2.71 4.22-5.62 8.57-6.45 9.67-1.51 1.99-1.52 1.99-1.57-.14z" fill="#048"/></svg>