<svg height="575" width="575" xmlns="http://www.w3.org/2000/svg"><path d="m574.06 287.5a286.57 285.25 0 1 1 -573.13 0 286.57 285.25 0 1 1 573.13 0z" fill="#fff" stroke="#000" stroke-linecap="square"/><g transform="matrix(.86734 .49772 -.49772 .86734 -490.07 -771.87)"><path d="m1159.9 409.65v29.78h2.7v47.38h-6.6v233.22h91.5v-233.22h-72.9v-47.38h2.7v-29.78zm19.5 153.5c4.2 0 7.7 3.43 7.7 7.66 0 4.22-3.5 7.65-7.7 7.65s-7.7-3.43-7.7-7.65c0-4.23 3.5-7.66 7.7-7.66zm22.3 0c4.3 0 7.7 3.43 7.7 7.66 0 4.22-3.4 7.65-7.7 7.65-4.2 0-7.6-3.43-7.6-7.65 0-4.23 3.4-7.66 7.6-7.66zm22.4 0c4.2 0 7.6 3.43 7.6 7.66 0 4.22-3.4 7.65-7.6 7.65-4.3 0-7.7-3.43-7.7-7.65 0-4.23 3.4-7.66 7.7-7.66zm-44.7 22.34c4.2 0 7.7 3.44 7.7 7.66s-3.5 7.63-7.7 7.63-7.7-3.41-7.7-7.63 3.5-7.66 7.7-7.66zm22.3 0c4.3 0 7.7 3.44 7.7 7.66s-3.4 7.63-7.7 7.63c-4.2 0-7.6-3.41-7.6-7.63s3.4-7.66 7.6-7.66zm22.4 0c4.2 0 7.6 3.44 7.6 7.66s-3.4 7.63-7.6 7.63c-4.3 0-7.7-3.41-7.7-7.63s3.4-7.66 7.7-7.66zm-44.7 22.32c4.2 0 7.7 3.43 7.7 7.65s-3.5 7.66-7.7 7.66-7.7-3.44-7.7-7.66 3.5-7.65 7.7-7.65zm22.3 0c4.3 0 7.7 3.43 7.7 7.65s-3.4 7.66-7.7 7.66c-4.2 0-7.6-3.44-7.6-7.66s3.4-7.65 7.6-7.65zm22.4 0c4.2 0 7.6 3.43 7.6 7.65s-3.4 7.66-7.6 7.66c-4.3 0-7.7-3.44-7.7-7.66s3.4-7.65 7.7-7.65zm-44.7 22.31c4.2 0 7.7 3.43 7.7 7.65 0 4.23-3.5 7.66-7.7 7.66s-7.7-3.43-7.7-7.66c0-4.22 3.5-7.65 7.7-7.65zm22.3 0c4.3 0 7.7 3.43 7.7 7.65 0 4.23-3.4 7.66-7.7 7.66-4.2 0-7.6-3.43-7.6-7.66 0-4.22 3.4-7.65 7.6-7.65zm22.4 0c4.2 0 7.6 3.43 7.6 7.65 0 4.23-3.4 7.66-7.6 7.66-4.3 0-7.7-3.43-7.7-7.66 0-4.22 3.4-7.65 7.7-7.65zm-44.7 4.56c-1.7 0-3.1 1.37-3.1 3.09s1.4 3.13 3.1 3.13 3.1-1.41 3.1-3.13-1.4-3.09-3.1-3.09zm44.7 0c-1.8 0-3.2 1.37-3.2 3.09s1.4 3.13 3.2 3.13c1.7 0 3.1-1.41 3.1-3.13s-1.4-3.09-3.1-3.09zm-30.4 45.13h16c4.3 0 7.6 3.41 7.6 7.65s-3.3 7.66-7.6 7.66h-16c-4.2 0-7.6-3.42-7.6-7.66s3.4-7.65 7.6-7.65z"/><g transform="translate(84.421 288.21)"><path d="m1020.6 74.125c-12.6 14.682-20.3 33.765-20.3 54.625 0 20.85 7.7 39.92 20.3 54.59l6-5.18c-11.4-13.28-18.3-30.54-18.3-49.41 0-18.88 6.9-36.152 18.3-49.438zm127.2 0-6 5.188c11.4 13.286 18.3 30.557 18.3 49.437 0 18.87-6.9 36.13-18.3 49.41l6 5.18c12.6-14.67 20.3-33.74 20.3-54.59 0-20.86-7.7-39.942-20.3-54.625z"/><path d="m1040 90.844c-8.8 10.196-14.1 23.426-14.1 37.906 0 14.47 5.3 27.72 14.1 37.91l6-5.19c-7.5-8.8-12.1-20.22-12.1-32.72 0-12.51 4.5-23.95 12.1-32.75l-6-5.157zm88.4 0-6 5.187c7.5 8.799 12.1 20.219 12.1 32.719s-4.6 23.92-12.1 32.72l6 5.19c8.7-10.19 14-23.44 14-37.91 0-14.48-5.3-27.71-14-37.905z"/><path d="m1059.4 107.53c-4.9 5.71-7.8 13.12-7.8 21.22 0 8.09 2.9 15.51 7.8 21.22l6-5.19c-3.7-4.32-5.9-9.92-5.9-16.03 0-6.12 2.2-11.71 5.9-16.03zm49.6 0-6 5.19c3.7 4.32 5.9 9.91 5.9 16.03 0 6.11-2.2 11.71-5.9 16.03l6 5.16c4.9-5.71 7.9-13.11 7.9-21.19 0-8.1-3-15.51-7.9-21.22z"/></g></g><path d="m287.48 9.1495c-68.53 0-131.28 24.9475-179.72 66.2505-1.27 1.083-2.53 2.175-3.78 3.281-.5.444-1 .895-1.5 1.344-1.07.96-2.13 1.929-3.189 2.906-.281.26-.563.519-.843.781-1.25 1.165-2.492 2.343-3.719 3.531-1.408 1.362-2.809 2.734-4.188 4.125-1.353 1.365-2.706 2.732-4.031 4.125-1.374 1.446-2.719 2.931-4.062 4.406-.154.171-.316.331-.469.501-1.162 1.28-2.3 2.57-3.438 3.87-1.242 1.43-2.442 2.87-3.656 4.32-.047.05-.109.1-.156.15-40.496 48.38-64.9061 110.73-64.9061 178.78 0 153.66 124.3771 278.34 277.6571 278.34 68.68 0 131.54-25.07 180.03-66.53l.03.03c.39-.33.78-.66 1.16-1 .16-.13.31-.27.47-.4.94-.82 1.88-1.64 2.81-2.47.74-.66 1.46-1.31 2.19-1.97.21-.19.42-.37.62-.56.97-.89 1.92-1.79 2.88-2.69.86-.81 1.71-1.62 2.56-2.44.12-.11.23-.23.35-.34 1.08-1.06 2.14-2.12 3.21-3.19.32-.31.63-.62.94-.94 1.25-1.26 2.49-2.55 3.72-3.84.12-.13.25-.25.38-.38 1.4-1.48 2.81-2.98 4.18-4.5 1.26-1.39 2.49-2.8 3.72-4.21.23-.27.46-.52.69-.79 1.05-1.21 2.09-2.45 3.12-3.68 40.33-48.33 64.63-110.55 64.63-178.44 0-153.66-124.41-278.3831-277.69-278.3831zm0 62.0625c119.11 0 215.78 96.908 215.78 216.308 0 50.85-17.51 97.62-46.84 134.56l-304.5-302.78c37.06-30.058 84.21-48.09 135.56-48.09zm-168.62 81.408 304.56 302.84c-37.12 30.24-84.42 48.37-135.94 48.37-119.11 0-215.75-96.91-215.75-216.31 0-51 17.636-97.91 47.13-134.91z" fill="#c00"/></svg>