<svg height="200" width="200" xmlns="http://www.w3.org/2000/svg"><path d="m.44624.44417h199.11v199.11h-199.11v-199.11z" fill="#fff" fill-rule="evenodd" stroke="#000" stroke-miterlimit="2.613" stroke-width=".89247"/><path d="m5.4189 5.423h189.16v189.15h-189.16v-189.15z" fill="#a92121" fill-rule="evenodd"/><g fill="#fff"><path d="m139.13 88.108c-5.5148-12.477-5.2419-24.614-13.51-29.851 17.195-1.7637 19.809 10.239 27.715 27.072 5.0938 8.735 8.1029 12.73 18.708 19.433-8.9976.95274-21.23 3.0525-32.914-16.654z"/><path d="m172.51 142.93c-7.3918 9.104-27.267 7.252-33.598-1.0735-7.9009-8.0572-10.801-15.835-24.09-18.043 20.851-12.075 30.666 4.1077 36.334 9.0189 7.4166 6.003 13.452 8.3897 21.353 10.098z"/><path d="m171.71 114.76.13919 19.208c-29.313-5.3686-42.045-26.869-41.541-46.844 12.858 14.433 18.845 22.965 41.402 27.637z"/><path d="m172.3 170.85c-29.72 1.0018-36.28-5.9642-41.445-26.517 15.265 11.957 25.091 10.977 41.362 8.4358z"/><path d="m171.85 76.561.78949 20.013c-17.748-9.8364-25.112-28.952-19.122-46.741 6.0246 14.735 6.8279 20.284 18.332 26.727z"/><g><path d="m47.352 151.1-1.3873 9.2729-4.0904-.13919-1.5264-9.1337z"/><path d="m37.088 29.174c0 29.403.04921 71.011.04921 100.41-1.0624.0415-4.8713.20812-5.6484.13193-1.3329.0772-3.0406-3.3905-2.6985-4.7815 0-27.305.02039-64.866.02039-92.171.4679-.95529 2.233-3.1153 3.3975-3.3892.68359-.3693 4.1218-.24662 4.8798-.20386z"/><g fill-rule="evenodd"><path d="m40.348 37.389c-.06863-2.6354 3.5473-3.7315 5.4619-2.2929 1.992 1.2243 1.0227 3.9111 1.2601 5.8572.09404 34.516.18808 69.031.28213 103.55h-7.0041v-107.11z"/><path d="m58.456 37.685v82.178c-.37355 1.1086-.20661 2.5495-1.4827 3.1244-1.1852.91733-2.78.96192-3.9732.0326-1.6872-.93161-1.6207-3.0395-1.5408-4.7163v-81.274c.24227-1.2231 1.2347-1.7625 2.2741-2.2592 1.4604-.79685 3.1047.21968 4.2133 1.1154.37411.58137.06718 1.2267.50922 1.7986z"/><path d="m69.826 37.685v83.161c-.42447 1.7043-2.1262 2.9814-3.8526 2.8671-2.1545-.16932-3.5007-2.4819-3.1441-4.5009v-82.182c.23979-1.1527 1.1407-1.6748 2.0407-2.2918 1.7157-.74847 3.6379.20272 4.6645 1.637-.06552.48663.05743.88616.29153 1.3096z"/><path d="m80.904 37.685v83.161c-.46447 1.0697-.78352 2.2719-2.0407 2.6192-1.5861.68238-3.5461-.0566-4.4468-1.4754-.4566-1.4265-.58619-2.9582-.50922-4.4859v-79.818c.3586-1.0188.31426-2.2572 1.641-2.5585 1.4581-1.1165 3.5666-.66185 4.7727.59405.24693.64747.70976 1.2382.58306 1.9644z"/><path d="m92.273 37.685v83.161l-.58306 1.3096-.58306.65481-1.1661.6548-1.1661.32741-1.1661-.32741-1.1661-.6548-.58306-.65481-.29153-.65482-.29153-.65481v-83.815l.58306-1.3096.58306-.3274 1.1661-.65481 1.1661-.3274 1.4576.3274.87459.65481.58306.3274.29153.65481.29153.65481v.65481z"/></g></g><path d="m95.746 29.204c0 23.692-.3937 77.009-.3937 100.7l5.3.013c1.2115-.79206 3.7759-2.853 3.1481-4.4638.0661-9.0222.083-34.826.14964-43.848l2.4914.09842c.98435 6.6363 6.3808 9.4252 12.038 9.3061 6.3687-.13406 12.214-5.4111 11.256-13.791-.2208-5.1135-4.5998-9.925-11.398-10.076-7.979-.09581-11.683 4.6386-12.035 10.053l-2.2053-.05376c0-10.242-.0984-33.87-.0984-44.113-.29471-.84732-2.373-3.0986-3.3694-3.5237-.75991-.49676-4.0214-.30497-4.8833-.30191zm19.683 41.538v6.6468c-2.1828 0-3.6274.14764-5.8102.14764.57827-3.7742 2.3785-6.2571 5.8102-6.7944zm4.8021.04921c3.871.53864 5.7519 2.7809 6.0667 6.5484h-5.9682c0-2.1828-.0984-4.3656-.0984-6.5484zm-10.415 10.809c2.1828 0 3.2337.04921 5.4165.04921 0 2.2583-.0492 3.3848-.0492 5.6431-3.2304-.91291-4.7656-2.8044-5.3672-5.6923zm10.12.04921c2.3339 0 4.028.04921 6.3619.04921-1.2744 3.5665-3.3401 5.767-6.3619 5.8487v-5.8979z"/></g></svg>