<svg height="525" width="600" xmlns="http://www.w3.org/2000/svg"><path d="m597.6 499.6-283.8-491.6c-2.9-5-8.2-8-13.9-8s-11 3.1-13.9 8l-283.8 491.6c-2.9 5-2.9 11.1 0 16 2.9 5 8.2 8 13.9 8h567.6c5.7 0 11-3.1 13.9-8 2.9-5 2.9-11.1 0-16z"/><path d="m43.875 491.5 256-443.3 256 443.3z" fill="#f6bd16" transform="matrix(1 0 0 .99591458 .125 2.033244)"/><g stroke="#000" stroke-linecap="square"><path d="m-384.00937 417.52725a38.151581 36.156727 0 1 1 -76.30316 0 38.151581 36.156727 0 1 1 76.30316 0z" stroke-opacity=".4" stroke-width=".625148" transform="matrix(.99319888 0 0 1.0479962 719.28979 -2.935786)"/><path d="m300 168.60074c-20.64745 0-37.26716 16.97292-37.26716 38.05658l11.01897 133.31318c2.10449 17.24457 3.90184 27.0149 11.01898 31.60966 4.64712 2.1172 9.79468 3.32214 15.22921 3.32214 5.40832 0 10.53383-1.1913 15.16343-3.28925 7.15697-4.58178 8.97556-14.35941 11.08476-31.64255l11.01898-133.31318c0-21.08366-16.61973-38.05658-37.26717-38.05658z" stroke-width=".885827"/></g></svg>