<svg height="575" viewBox="-4 -4 1192 1192" width="575" xmlns="http://www.w3.org/2000/svg"><circle cx="592" cy="592" fill="#fff" r="592"/><g transform="translate(174.94 51.797)"><path d="m492.59 960.31c-.29-.76-.64-53.54-.77-117.29l-.25-115.92-10.5-4.16c-12.13-4.81-24.61-10.99-33.96-16.82-24.69-15.39-48.73-38.3-65.25-62.19-19.47-28.14-32.89-64.28-36.77-99-.55-4.95-1.01-9.44-1.01-9.99-.01-.54 7.42 6.43 16.49 15.49 9.08 9.07 16.5 17.22 16.5 18.13 0 3.38 8.31 25.74 13.51 36.37 14.36 29.34 37.44 55.63 65.01 74.06 16.4 10.95 33.08 18.52 57.48 26.06 24.66 21.22 41.06 39.23 61.25 59.38 21.18 22.66 42.03 39.8 55.75 56.51v45.24 45.23l-4.21 2.66c-7.79 4.91-36.12 18.33-51.27 24.28-19.95 7.83-37.4 13.38-56.93 18.11-21.02 5.08-24.41 5.61-25.07 3.85zm-219.02-75.92c-12.68-1.97-26.67-7.49-37.38-14.74-12.32-8.35-25.66-25.22-31.11-39.36-7.55-19.57-7.85-39.53-.91-60.3l2.99-8.95-23.41-23.55-23.42-23.56-1.68-21c-.93-11.55-1.93-23.05-2.23-25.55l-.55-4.55-26.05-6.45c-14.32-3.55-26.59-6.9-27.27-7.45s-4.478-11.12-8.444-23.5c-3.967-12.37-7.51-22.79-7.873-23.15-.364-.36-10.336-1.2-22.161-1.88-11.826-.67-21.951-1.63-22.5-2.13-1.525-1.38-18.318-58.22-17.481-59.16.403-.46 9.901-2.33 21.107-4.16 17.148-2.8 20.697-3.12 22.418-2.03 1.738 1.1 69.794 68.2 163.054 160.77l24.09 23.92 6.91-2.21c9.26-2.96 30.7-3.83 40.92-1.66 26.98 5.73 48.31 22.35 60.86 47.4 6.48 12.95 8.13 20.7 8.05 37.79-.06 13.39-.36 15.97-2.8 23.97-5.07 16.58-14.62 31.3-27.04 41.68-8.6 7.18-24.25 15.17-35.03 17.87-9.36 2.36-24.63 3.25-33.06 1.94zm46.18-42.8c7.44-3.82 11.62-10.67 11.68-19.16.08-12.13-9.72-22-21.86-22-12.11 0-21.43 9.52-21.48 21.94-.06 16.44 16.94 26.77 31.66 19.22zm46.82-418.2 3.39-6.23c24.75-45.47 66.82-82.33 113.62-99.54l7.99-2.94.5-96.87c.5-96.87.5-96.88 2.56-97.17 1.13-.16 7.43.86 14 2.27 25.32 5.43 54.27 14.73 78.42 25.18 9.22 3.99 36.86 17.68 41.02 20.32 1.3.83 1.57 10.48 2 73.59l.5 72.64 8 2.9c18.28 6.61 42.45 20.43 59 33.75 31.97 25.71 56.84 61.63 69.76 100.74 3.96 11.97 8.02 28.92 8.96 37.4.27 2.42.56 2.51 8.53 2.79l8.25.29v28.46 28.46h-8.03c-5.58 0-8.14.39-8.37 1.25-.19.69-1.34 6.65-2.55 13.25-8.32 45.11-34.59 90.31-70.4 121.12-11.63 10.01-27.34 20.94-38.04 26.47-3.63 1.88-6.6 3.64-6.6 3.92m-20.74-21.01c.42 0 4.7-1.97 9.5-4.39 41.51-20.9 75.08-58.53 91.52-102.61 7.61-20.39 10.72-36.88 11.43-60.68 1.01-33.68-4.09-58.33-18.18-87.88-26.67-55.95-77.26-94.25-139.54-105.64-16.43-3.01-47.56-3.01-64 0-59.77 10.93-108.44 46.48-136.67 99.8l-5.61 10.62m165.21 111.48c-10.02-2.84-18.4-9.94-23.17-19.62-1.94-3.94-2.26-6.18-2.27-16.11l-.02-11.53-20.73-28.62c-11.41-15.75-20.74-29.02-20.74-29.5 0-1.02 23.05-19.18 24.5-19.29.55-.05 10.02 12.37 21.04 27.6l20.05 27.67 9.95.15c7.84.11 10.96.6 14.65 2.29l4.7 2.14 40.58-43.44c22.32-23.89 40.92-43.44 41.34-43.44.41 0 3.86 3.15 7.68 6.99l6.93 6.99-3.05 3.26c-1.67 1.79-20.26 21.64-41.3 44.11-31.92 34.08-38.15 41.2-37.63 43 4.28 14.93 1.69 27.26-7.88 37.49-8.31 8.89-23.16 13.11-34.63 9.86z"/><path d="m377.79 1130.5c-104.13-6.9-208.25-42.6-293.003-100.6-99.59-68.17-174.075-161.07-218.267-272.25-58.39-146.89-54.98-313.3 9.38-457.82 30.764-69.09 73.202-130.12 127.0222-182.69 61.3268-59.891 129.2678-102.806 210.8678-133.197 103.75-38.642 224.86-46.331 334-21.206 137.84 31.7337 255.68 107.971 341.45 220.913 40.33 53.11 73.95 118.69 93.04 181.5 40.92 134.5 33.92 275.49-19.94 404-46.41 110.72-126.7 206.07-227.12 269.65-85.93 54.5-180.46 85.2-281.92 91.8-18.26 1.2-57.07 1.2-75.51-.1zm85.5-114.3c57.92-6 110.52-20.7 161-45 27.79-13.39 60.62-33.66 84.32-52.09l11.33-8.8-44.83-44.84-44.82-44.83-1.46-.14-99.75-100.68c-54.87-55.37-111.46-112.49-125.77-126.94-14.3-14.45-26.13-25.9-26.28-25.45s-7.33-6.28-15.96-14.97c-10.72-10.8-15.93-15.4-16.47-14.55-.48.76-.79.08-.8-1.76-.01-2.65-17.49-20.48-148.49-151.48-129.112-129.11-148.64-148.26-149.749-146.87-62.279 78.08-97.366 165.76-105.785 264.35-1.432 16.77-1.434 59.3 0 76 5.405 63.09 21.538 120.64 49.425 176.32 47.051 93.94 123.349 169.38 218.089 215.62 58.35 28.47 115.07 43.11 186.5 48.01 10.97.7 55.84-.5 69.5-1.9zm335.88-188.83c34.7-46.23 59.62-95.67 76.5-151.72 9.17-30.46 15.1-62.54 18.12-98 1.37-16.03 1.37-59.83.01-76-6.68-79.42-31.15-151.87-74.41-220.33-29.2-46.21-72.03-91.98-118.27-126.36-56.87-42.29-128.1-73.163-197.83-85.747-33.91-6.118-58.79-7.995-96.5-7.279-29.37.558-43.82 1.846-70.32 6.269-65.65 10.953-129.54 36.377-185.48 73.807-12.56 8.4-32.88 23.52-35.5 26.41-1.62 1.79 3.89 7.44 134.27 137.63 86.96 86.84 136.38 135.5 137.15 135.03.78-.49.92-.31.4.53-.54.87 62.36 64.41 199.1 201.14 109.93 109.93 200.2 199.87 200.58 199.88.39.01 5.87-6.86 12.18-15.26z" fill="#c00"/></g></svg>