<svg height="420" viewBox="-10 -10 420 420" width="420" xmlns="http://www.w3.org/2000/svg"><circle cx="200" cy="200" fill="#fff" r="205" stroke="#000" stroke-width="2"/><path d="m182.89 399.6c-.21-.2-3.07-.64-6.34-.98-35.57-3.76-74.53-20.26-103.05-43.64-8.533-6.99-25.405-24.31-31.643-32.48-22.228-29.1-36.2444-63.14-40.5631-98.5-.99596-8.15-1.03479-37.14-.0625-46.66 3.6054-35.29 20.4956-75.35 43.7786-103.851 8.492-10.393 27.337-28.092 37.788-35.489 28.852-20.423 62.442-33.4966 94.442-36.7595 9.39-.95801 37.36-.95433 45.88.0061 34.33 3.8676 71.12 18.9144 99.36 40.6284 8.71 6.697 25.77 23.393 32.78 32.091 23.81 29.524 39.77 67.824 43.52 104.474.97 9.48.91 36.38-.09 45.06-4 34.51-18.68 70.37-40.55 99-6.48 8.49-23.29 25.63-32.14 32.78-11.58 9.35-24.26 17.38-38.5 24.37-18.72 9.18-35.4 14.31-61.5 18.91-3.83.68-42.48 1.61-43.11 1.04zm37.45-46.06c10.17-1.82 20.31-6.71 29.66-14.31 18.64-15.14 34.69-40.94 41.52-66.73 2.04-7.68 2.66-8.46 6.76-8.48 11.14-.07 23.88-15.9 32.01-39.77 4.47-13.09 5.95-27.08 3.73-35.21-1.4-5.16-7.27-11.62-11.34-12.48-1.47-.31-3.73-.78-5.02-1.04-2.3-.47-2.33-.63-1.91-10.75 1.55-37.33-16.25-74.463-46.68-97.35-21.01-15.809-44.47-23.709-70.57-23.762-45.46-.091-86.78 26.517-106.491 68.582-7.263 15.5-11.487 36.6-10.838 54.14l.329 8.88-4.808 1.23c-5.675 1.45-11.101 6.27-12.891 11.44-.68 1.96-1.215 7.39-1.189 12.07.101 18.09 10.087 43.77 21.803 56.06 5.386 5.65 7.796 7.06 14.332 8.37 5.283 1.06 5.693 1.35 6.493 4.6 6.19 25.35 17.83 46.38 35.13 63.48 15.61 15.43 26.19 20.57 46.13 22.42 11.54 1.06 22.68.61 33.84-1.39zm-41.79-11.6c-8.22-1.38-18.97-7.4-27.33-15.3-17.81-16.84-28.91-37.26-35.69-65.64-.99-4.13-2.48-8.29-3.32-9.25-1.9-2.19-5.53-2.24-8.75-.13-3.562 2.33-7.694.33-12.421-6.03-14.002-18.82-21.407-49.25-13.924-57.21 2.839-3.02 4.408-3 7.297.12 2.85 3.08 7.537 3.32 10.068.52 1.581-1.74 1.661-2.65.687-7.75-2.983-15.62-2.293-33.01 1.925-48.48 2.958-10.85 11.828-28.11 19.198-37.356 13.97-17.534 33.53-30.368 55.71-36.551 7.49-2.088 10.64-2.37 26.5-2.376 20.97-.008 28.43 1.513 44.35 9.041 30.42 14.378 51.77 41.212 58.76 73.862 2.32 10.78 2.77 27.6 1.03 37.59-1.39 7.93-1.37 8.67.28 11 2.46 3.46 6.13 3.67 9.83.55 3.87-3.25 5.58-3.21 8.29.2 2 2.52 2.14 3.57 1.68 12.75-.77 15.59-7.11 32.39-16.69 44.25-4.32 5.35-4.92 5.74-8.59 5.58-2.17-.09-5.42-.48-7.23-.87-4.59-.97-6.86 1.35-7.73 7.87-1.03 7.77-6.88 25.09-11.71 34.67-13.47 26.69-32.33 44.47-51.5 48.53-7.4 1.57-32.28 1.82-40.72.41zm-13.05-102.33c8.55-1.87 12.26-3.67 18.45-8.97 10.31-8.81 20.85-9.01 31.05-.58 11.96 9.89 27.34 13.21 42.14 9.11 8.92-2.47 14.86-6.14 20.48-12.66l4.71-5.45 11.58-.28 11.59-.28v-4-4l-10-.5-10-.5v-4-4l8-.25c12-.38 12.5-.59 12.5-5.16 0-2.61-.52-4.07-1.58-4.48-.87-.34-6.3-.61-12.05-.61h-10.48l-5.34-5.77c-13.93-15.04-37.59-17.65-56.55-6.22-9.41 5.67-18.05 7.73-26.42 6.3-4.59-.79-7.69-2.01-10.32-4.08-5.15-4.05-8.79-5.8-15.95-7.65-6.88-1.78-19.62-2.04-26.2-.52-9.26 2.14-19.31 8.75-23.87 15.69-1.38 2.11-2.16 2.25-12.66 2.25-12.043 0-13.58.57-13.58 5 0 4.3 1.637 5 11.76 5h9.35l-.3 4.25-.31 4.25-10 .5-10 .5v4 4l11.6.5 11.6.5 5.23 5.73c10.64 11.65 27.74 16.3 45.57 12.38z" fill="#048"/></svg>