<svg height="575" width="575" xmlns="http://www.w3.org/2000/svg"><path d="m574.07 287.5a286.57 284.88 0 1 1 -573.13 0 286.57 284.88 0 1 1 573.13 0z" fill="#fff" stroke="#000" stroke-linecap="square"/><g stroke="#000" transform="matrix(1.1414 0 0 1.1414 850.22 -98.124)"><path d="m-501.18 175.99-92.65 234.62-41.07-12.98-5.03 15.61c18.92 4.56 38.84 13.07 57.58 17.62l6.24-21.56h25.4c.76 14.14 8.92 28.42 24.09 28.46 15.24 1.28 28.7-9.65 29.47-27.71l61.27-.24c-1.8 20.29 20.96 27.14 30.49 27.44 13.45 0 29.73-11.96 30.5-27.2l35.32-.24.51-75.76c-1.22-13.75-6.91-19.24-19.49-19.75h-32.22l.2-89.11c.44-8.94-7.17-15.87-16.31-16.91l-65.5.24c-8.3 1.91-11.84 4.25-15.84 12.9-20.42 51.95-37.55 95.27-56.23 146.35l-13.37-.26 71.58-186.16zm25.91 50.78c1-2.11 1.45-4.29 7.05-5.74l56.65-.67c4.47.09 6.63 3.41 7.43 7.39v86.55h-9.41l-.77-47.95c0-2.68-2.86-4.87-5.79-5l-6.64-.25c-2.41-.1-6.55 3.44-7.48 5.15l-10.81 21.1-23.84-6.15c-5.21-1.57-8.98 8.12-3.31 10.03l28.32 8.99c6.75 2.27 4.38-.54 5.63-1.33l4.69-9.59v18l-29.83.26c-2.17.36-3.18 1.85-3.63 3.79l-12.05 38.21-33.82-.26 35.17-51.87 6.8 6.27c5.95 1.38 3.01-2.18 3.42-3.88l-14.7-18.52c-2.97-.34-5.75-.47-4.7 3.88l5.89 7.17-37.29 56.44-10.26.51zm18.46 94.07 7.24-.77 1.02 29.23-16.67.26zm-67.5 76.96c7.47 0 13.5 6.07 13.5 13.53 0 7.47-6.03 13.54-13.5 13.54s-13.53-6.07-13.53-13.54c0-7.46 6.06-13.53 13.53-13.53zm118.67-8.71c11.87-1.26 17.85 9.91 17.85 17.38s-4.75 16.35-16.57 17.11c-7.45.49-18.15-9.15-17.63-16.6.77-11.06 5.89-16.77 16.35-17.89z"/><path d="m-426.16 235.53c-8.42-.41-12.35 11.49-6.06 16.56 5.64 6.98 18.98 1.63 17.65-7.59-.17-5.73-6.2-9.65-11.59-8.97z" stroke-width="2.63"/></g><path d="m287.48 9.1495c-68.53 0-131.28 24.9475-179.72 66.2505-1.27 1.083-2.53 2.175-3.78 3.281-.5.444-1 .895-1.5 1.344-1.07.96-2.13 1.929-3.189 2.906-.281.26-.563.519-.843.781-1.25 1.165-2.492 2.343-3.719 3.531-1.408 1.362-2.809 2.734-4.188 4.125-1.353 1.365-2.706 2.732-4.031 4.125-1.374 1.446-2.719 2.931-4.062 4.406-.154.171-.316.331-.469.501-1.162 1.28-2.3 2.57-3.438 3.87-1.242 1.43-2.442 2.87-3.656 4.32-.047.05-.109.1-.156.15-40.496 48.38-64.9061 110.73-64.9061 178.78 0 153.66 124.3771 278.34 277.6571 278.34 68.68 0 131.54-25.07 180.03-66.53l.03.03c.39-.33.78-.66 1.16-1 .16-.13.31-.27.47-.4.94-.82 1.88-1.64 2.81-2.47.74-.66 1.46-1.31 2.19-1.97.21-.19.42-.37.62-.56.97-.89 1.92-1.79 2.88-2.69.86-.81 1.71-1.62 2.56-2.44.12-.11.23-.23.35-.34 1.08-1.06 2.14-2.12 3.21-3.19.32-.31.63-.62.94-.94 1.25-1.26 2.49-2.55 3.72-3.84.12-.13.25-.25.38-.38 1.4-1.48 2.81-2.98 4.18-4.5 1.26-1.39 2.49-2.8 3.72-4.21.23-.27.46-.52.69-.79 1.05-1.21 2.09-2.45 3.12-3.68 40.33-48.33 64.63-110.55 64.63-178.44 0-153.66-124.41-278.3831-277.69-278.3831zm0 62.0625c119.11 0 215.78 96.908 215.78 216.308 0 50.85-17.51 97.62-46.84 134.56l-304.5-302.78c37.06-30.058 84.21-48.09 135.56-48.09zm-168.62 81.408 304.56 302.84c-37.12 30.24-84.42 48.37-135.94 48.37-119.11 0-215.75-96.91-215.75-216.31 0-51 17.636-97.91 47.13-134.91z" fill="#c00" stroke="#c00" stroke-width="2"/></svg>