<svg height="420" viewBox="-10 -10 420 420" width="420" xmlns="http://www.w3.org/2000/svg"><circle cx="200" cy="200" fill="#fff" r="205" stroke="#000" stroke-width="2"/><path d="m183.95 399.65c-.25-.23-3.6-.73-7.45-1.11-33.62-3.27-71.62-19.09-101-42.05-9.029-7.05-26.755-24.96-33.646-33.99-22.089-28.94-36.2712-63.38-40.5601-98.5-1.03055-8.44-1.02323-39.64.0112-47.99 4.2925-34.66 18.7279-69.76 40.5169-98.51 11.201-14.779 32.407-34.188 49.678-45.47 21.26-13.885 54.87-26.7109 77.5-29.5692 3.03-.3821 6.4-.907 7.5-1.1663 5.28-1.24409 37.7-1.08804 47.5.2286 68.78 9.2399 126.2 50.1779 155.45 110.8369 10.76 22.31 17.01 43.87 19.28 66.46 1.01 10.08.98 33.72-.05 43.18-6.39 58.62-39.43 112.44-89.18 145.28-21.74 14.35-55.46 27.35-78.5 30.26-3.03.38-6.4.91-7.5 1.17-2.63.63-38.96 1.49-39.55.94zm-45.45-110.19c24.75-13.6 45.27-25.15 45.61-25.67.33-.52-.03-2.78-.8-5.02-1.55-4.49-.66-11.26 2.19-16.77 1.82-3.53 1.85-4.02.25-3.95-.69.03-27.13 14.34-58.75 31.79-43.154 23.81-57.572 32.22-57.789 33.71-.19 1.31 2.064 4.49 6.633 9.36l6.922 7.37 5.367-3.04c2.952-1.68 25.617-14.18 50.367-27.78zm71.28-25.31c2.25-1.6 6.31-9.52 18.61-36.35 10.55-22.99 15.74-35.45 15.77-37.8.04-4.04-10.74-68.97-12.22-73.59-.54-1.69-2.35-4.39-4.03-6l-3.04-2.91-18.57-.31c-19.56-.33-22.43.12-26.07 4.14-1.08 1.19-5.37 8.7-9.53 16.67s-10.45 20.04-13.98 26.81-7.28 13.42-8.32 14.78c-1.46 1.89-8.95 5.02-32.22 13.46-16.674 6.05-31.372 11.69-32.662 12.53-6.457 4.23-7.084 14.32-1.251 20.15 6.139 6.14 6.879 6.01 46.053-8.17 19.15-6.93 35.84-13.27 37.08-14.09 1.25-.81 2.87-2.61 3.6-3.98.74-1.37 1.71-2.49 2.17-2.49s.83 10.1.83 22.44c0 21.09-.13 22.66-2.12 26.05-1.17 1.98-1.87 3.85-1.57 4.16.31.31 5.8-2.32 12.2-5.84l11.64-6.41 8.91-19.45c4.9-10.7 8.92-20.75 8.93-22.34 0-1.59-.91-8.29-2.04-14.9s-1.8-12.65-1.5-13.43c.3-.8 1.53-1.28 2.8-1.1 2.09.3 2.44 1.43 4.9 15.82l2.65 15.5-7.28 16c-4 8.8-8.19 18.03-9.31 20.5s-4.16 9-6.75 14.5c-5.49 11.66-6.26 17.57-2.89 22.17 4.64 6.33 13.07 7.86 19.21 3.48zm87-61.74c35.59-19.58 65.32-36.18 66.06-36.88 1.13-1.08.89-2.89-1.41-11-1.52-5.35-3.34-9.94-4.06-10.22-1.1-.42-40.68 20.91-98.87 53.28l-13 7.23-7.18 15.34c-6.75 14.44-8.05 17.84-6.79 17.84.28 0 29.65-16.02 65.25-35.59zm-80.63-109.794c4.62-2.215 10.19-7.749 12.53-12.466 2.84-5.693 2.51-17.295-.65-23.493-6.19-12.108-21.93-17.485-34.23-11.694-6.5 3.058-12.31 9.636-14.23 16.124-1.95 6.552-1.96 9.222-.09 15.525 4.5 15.154 22.26 22.907 36.67 16.004z" fill="#048"/></svg>