<svg height="575" width="575" xmlns="http://www.w3.org/2000/svg"><path d="m574.07 287.5a286.56 286.56 0 0 1 -573.135 0 286.56 286.56 0 1 1 573.135 0z" fill="#fff" stroke="#000" stroke-linecap="square"/><g fill-rule="evenodd" stroke="#000" transform="matrix(.97649 0 0 .97649 633.5296744 24.5032053)"><path d="m-386 130.72s-26.57 2.28-47.69 20.97c-3.09 2.73-29.84 31.9-33.4 38.31-4.15 8.46-5.38 27.62-5.38 27.62-7.01-6.29-11.12-20.03-11.12-20.03s-6.61 9.9-9.82 19.16c-2.6 7.53-8.82 30.19-1.34 50.37 4.2 14.19 21.84 44.57 21.84 44.57-8.31.59-26.75-10.25-26.75-10.25s2.26 17.57 3.57 21.84c2.24 7.33 13.76 18.88 16.5 21.84 7.45 8.1 30.75 16.47 30.75 16.47s-4 .12-11.13.47 10.56 14.71 20.06 15.78c9.6.65 28.07 5.16 33.41 6.94 2.1.7 13.89 8.27 9.38 18.72 0 0 11.24-5.38 12.9-6.69 4.54-3.56 8.94-15.08 10.25-17.81 2.79-5.83-.87-25.41-.87-25.41s-2.1 3.25-5.78 8.47 3.76-12.7 5.78-16.5c2.74-5.16 15.43-19.7 18.28-25.4 2.73-5.47 7.56-35.22 7.56-35.22l-5.34-56.16c-3.8-24.11-16.18-45.47-21.41-47.25l.47 23.19s-16.81-12.66-20.97-20.5-12.04-19.51-6.22-30.31c0 0 5.54-16.07 16.47-23.19zm-65 122.37c4.51 9.27 5.7 12.41 8.31 14.25 4.04 2.86 12.81 4.75 12.81 4.75-5.46-5.22-4.74-9.97-4.74-9.97 4.99 1.19 17.05 7.72 24 12.35 7.84 5.23 20.21 11.6 20.21 21.62v20.44c3.33-2.85 6.73-11.14 7.35-13.78 1.9-8.08-.72-11.99-.94-20.19 9.03 3.09 14.68 15.24 15.44 17.35 3.32 9.26 1.05 26.49-2.13 29.93-2.85 3.09-13.14 18-14.97 23.75-6.17 10.93-3.57 21.63-8.56 28.75 0 0-1.35-9.94-14.03-17.81-8.79-5.46-33.99-13.85-40.87-17.81-15.69-9.03-13.54-28.75-13.54-28.75 11.17 8.79 17.43 8.64 28.04 14.47 4.51-12.12-1.81-24.21-9.72-30.88-4.52-3.8-10.79-15.15-12.85-25.44-1.19-5.94 3.17-18.25 6.19-23.03z"/><path d="m-206.09 177.22-141.19 162.25c-7.54 10.33-18.8 27.71-21.5 39.78 0 0-3.59 19.23-13.87 23.06-5.73.51-26.18 11.99-32.29 19.32-2.6 3.12-11.98 19.62-3.75 30.37 10.81 9.94 12.91 9.13 18.32 10 16.97 2.74 24.68-5.73 27.47-9.56 8.69-11.96 5.72-31.49 8.34-37.06 5.62-9.06 5.55-6.25 14.09-12 11.85-6.78 24.05-12.68 30.85-18.79 6.74-5.42 11.38-13.06 16.62-19.31l135.66-159.69-5.62-28.09c-11.4-.33-23.09-.24-33.13-.28zm3.03 6.91 18.91.03-143.6 168.34c-9.91 13.36-18.16 20.69-29.72 26.43 1.51-12.89 7.09-20.89 14.22-31.56zm24.69 4.75 3.37 16.72-133.38 155.28c-3.23 3.76-5.96 8.25-10.84 13.31-1.89 1.96-16.17 13-25.31 13.12 2.7-13.65 14.76-24.19 23-34.78l.06-.09z"/></g><path d="m287.49 9.1386c-68.53 0-131.28 24.9484-179.72 66.2504-1.28 1.083-2.53 2.175-3.79 3.281-.5.444-1 .896-1.5 1.344-1.07.96-2.13 1.929-3.184 2.906-.281.26-.563.519-.843.781-1.25 1.165-2.492 2.343-3.719 3.531-1.408 1.362-2.809 2.734-4.188 4.125-1.353 1.365-2.706 2.732-4.031 4.125-1.374 1.446-2.719 2.932-4.062 4.406-.154.172-.316.332-.469.502-1.162 1.28-2.3 2.57-3.438 3.87-1.242 1.43-2.442 2.87-3.656 4.32-.047.05-.109.1-.156.15-40.493 48.38-64.9041 110.73-64.9041 178.78 0 153.66 124.3801 278.34 277.6601 278.34 68.68 0 131.54-25.07 180.03-66.53l.03.03c.39-.33.77-.67 1.16-1 .15-.13.31-.27.47-.4.94-.82 1.88-1.64 2.81-2.47.73-.66 1.46-1.31 2.19-1.97.2-.19.41-.37.62-.56.97-.89 1.92-1.79 2.88-2.69.85-.81 1.71-1.62 2.56-2.44.11-.11.23-.23.34-.34 1.09-1.06 2.15-2.12 3.22-3.19.31-.31.63-.62.94-.94 1.25-1.27 2.49-2.55 3.72-3.84.12-.13.25-.25.37-.38 1.41-1.48 2.82-2.98 4.19-4.5 1.26-1.39 2.49-2.8 3.72-4.22.23-.26.46-.51.69-.78 1.05-1.22 2.09-2.45 3.12-3.68 40.33-48.33 64.63-110.55 64.63-178.44 0-153.66-124.41-278.384-277.69-278.384zm0 62.0624c119.11 0 215.77 96.909 215.77 216.309 0 50.85-17.51 97.62-46.84 134.56l-304.5-302.78c37.06-30.061 84.21-48.093 135.56-48.093zm-168.62 81.409 304.56 302.84c-37.12 30.24-84.43 48.37-135.94 48.37-119.12 0-215.755-96.91-215.755-216.31 0-51 17.636-97.91 47.125-134.91z" fill="#c00" stroke="#c00" stroke-width="2"/></svg>