<svg height="420" viewBox="-10 -10 420 420" width="420" xmlns="http://www.w3.org/2000/svg"><circle cx="200" cy="200" fill="#fff" r="205" stroke="#000" stroke-width="2"/><path d="m182.89 399.59c-.21-.19-3.24-.65-6.72-1.01-34.45-3.57-74.68-20.66-102.67-43.6-8.533-6.99-25.405-24.31-31.643-32.48-22.122-28.97-36.2651-63.31-40.5631-98.5-1.01214-8.29-1.03021-38.39-.0284-47.32 3.4377-30.63 16.7475-65.65 34.6485-91.18 9.969-14.217 28.442-33.603 41.586-43.643 28.79-21.99 66.11-37.1874 99.74-40.6165 9.39-.95801 37.36-.95433 45.88.0061 34.31 3.8655 70.75 18.7584 99.38 40.6074 9.03 6.889 26.94 24.615 33.99 33.646 22.64 28.97 36.22 60.96 42.02 99 1.09 7.2 1.39 39.83.43 47.5-4.62 37-18.61 71.45-40.8 100.5-6.48 8.49-23.29 25.63-32.14 32.78-11.58 9.35-24.26 17.38-38.5 24.37-18.72 9.18-35.4 14.31-61.5 18.91-3.84.68-42.48 1.6-43.11 1.03zm100.11-63.74c4.64-2.74 8.18-6.76 10.19-11.59.67-1.61 1.45-12.55 1.88-26.26 1.16-37.5 4.49-49.64 23.76-86.46 33.93-64.82-.65-143.484-71.72-163.16-42.26-11.699-87.79 2.474-117.4 36.541-3.07 3.532-7.92 10.362-10.77 15.179l-5.18 8.76-14.299.32c-14.042.31-14.373.37-18.552 3.32-2.341 1.65-5.303 4.98-6.582 7.41l-2.327 4.4v83.9c0 75.28.166 84.22 1.617 87.09 3.849 7.62 10.342 11.7 18.593 11.7 2.91-.01 16.54-1.13 30.29-2.5 13.75-1.36 26.46-2.49 28.25-2.49l3.25-.01v6.36c0 16.56 5.44 26.18 16.76 29.66 1.51.46 26.36.76 55.24.66l52.5-.18zm-110.7-9.47c-5.47-2.7-6.41-5.19-6.09-16.15l.29-9.73 7.5-.77c15.71-1.61 21.44-4.36 25.08-12.08 1.21-2.55 6-26.08 12.46-61.15 5.77-31.35 10.7-57.57 10.95-58.26.36-.99 10.63-1.2 48.73-1l48.28.26.33 2.86c.46 4.06-2.52 16.87-5.93 25.47-1.6 4.03-5.58 12.13-8.84 18-9.99 17.95-16.92 38.39-20 58.95-.6 4.01-1.37 16.39-1.72 27.5-.71 22.85-1.3 24.78-8.13 26.68-2.31.64-21.8 1.02-51.71 1.01-41.69-.01-48.42-.22-51.2-1.59zm-6.4-40.24c-1-2.86-1.07-2.88-10.77-3.35-8.37-.4-10.53-.88-15.1-3.37-6.84-3.72-12.43-11.03-14.49-18.91-1.07-4.13-1.54-10.7-1.54-21.61 0-13.38-.23-15.78-1.58-16.29-.87-.34-5.62-.61-10.55-.61-8.18 0-9.17-.21-11.42-2.45-1.406-1.41-2.45-3.62-2.45-5.2 0-2.92 17.97-78.48 20.66-86.85.88-2.75 2.05-5.56 2.59-6.25.77-.97 11.32-1.25 46.65-1.25 50.82 0 50.1-.09 50.1 6.36 0 1.79-6.3 37.43-14.01 79.2-10.13 54.92-14.51 76.62-15.82 78.39-2.11 2.86-4.13 3.5-13.97 4.4l-7.3.67zm-7.65-111.1c5.03-5.61 3.57-15.14-2.93-19.15-10.74-6.64-23.75 5.65-17.92 16.91 3.87 7.5 15.06 8.7 20.85 2.24zm70.36-39.79c1.89-12.88.25-18.28-7.18-23.51l-4.46-3.15.26-26.044.27-26.046 8.5.065c33.64.255 69.62 25.36 85.45 59.615 3.16 6.85 7.55 20.53 7.55 23.55 0 1.01-9.4 1.27-45.62 1.27h-45.61zm-100.61-27.62c0-1.69 5.82-10.324 11.43-16.94 6.25-7.379 19.64-17.848 29.46-23.024 4.87-2.566 9.59-4.666 10.5-4.666 1.49 0 1.62 2.178 1.38 22.75l-.27 22.75-26.25.27c-22 .22-26.25.04-26.25-1.14z" fill="#048"/></svg>