<svg height="420" viewBox="-10 -10 420 420" width="420" xmlns="http://www.w3.org/2000/svg"><circle cx="200" cy="200" fill="#fff" r="205" stroke="#000" stroke-width="2"/><path d="m177 398.49c-37.56-4.92-68.24-17.24-98-39.33-9.814-7.29-31.116-28.63-38.229-38.3-22.593-30.71-34.4681-60.58-39.3026-98.86-3.1934-25.28-.57277-53.95 7.3144-80 9.6562-31.9 25.9252-58.83 50.1612-83.045 33.388-33.358 70.716-51.3811 119.056-57.4866 22.05-2.7845 44.55-1.32491 70 4.54 18.9 4.3546 41.98 14.3516 61 26.4116 15.73 9.977 39.39 31.979 50.23 46.716 22.59 30.714 34.47 60.584 39.3 98.864 3.2 25.28.57 53.95-7.31 80-9.66 31.9-25.93 58.83-50.16 83.04-33.39 33.36-70.72 51.39-119.06 57.49-13.58 1.72-31.75 1.7-45-.04zm-108.461-111.99c.663-2.2 2.416-8.23 3.896-13.41 7.623-26.65 19.788-38.26 48.065-45.86 11.25-3.02 25.7-6.12 32.02-6.86 6.19-.73 9.3.56 19.53 8.08 16.9 12.45 29.94 12.67 50.22.86 4.28-2.49 12.15-6.52 17.5-8.95 10.31-4.68 10.45-4.7 21.73-2.18 22.84 5.12 35.85 10.64 45.24 19.21 6.73 6.14 11.2 12.89 15.18 22.9 3.18 8.01 8.08 25.42 8.08 28.71 0 2.64 4.05 2.7 6.42.09 1.38-1.52 1.59-2.9 1.05-6.75-2.76-19.59-10.8-38.41-21.02-49.24-10.67-11.31-25.15-17.61-54.19-23.59-1.78-.36-3.51-1.11-3.85-1.65-.33-.54.97-3.37 2.9-6.27 4.35-6.56 8.66-15.18 11.62-23.27 1.25-3.4 3.12-6.96 4.17-7.91 2.19-1.99 2.38-3.66.72-6.33-.92-1.47-.92-2.81 0-5.86.65-2.17 1.18-4.84 1.18-5.93s.9-2.79 2-3.79c2.28-2.07 2.5-3.73.83-6.39-.88-1.43-.88-3.55 0-8.93 2.76-16.71-.24-42.428-6.52-55.895-3.55-7.61-15.52-19.546-24.52-24.441-8.86-4.824-23.05-9.438-34.79-11.316-11.07-1.77-35.53-2.017-43.2-.436-20.84 4.296-37.89 16.387-48.63 34.5-7.4 12.475-8.61 17.014-8.63 32.408-.01 7.42.57 18.37 1.3 24.33 1.18 9.67 1.16 11.02-.26 12.58-1.99 2.2-1.98 2.99.04 5.22 1.89 2.09 4.37 15.29 3.21 17.12-1.27 2-.95 5.58.57 6.45.77.44 2.6 4.39 4.07 8.79 3.68 10.99 10.05 22.88 14.22 26.55 1.92 1.68 3.27 3.62 3 4.31-.26.71-5.49 2.27-11.77 3.53-41.485 8.34-57.506 21.7-66.357 55.37-3.007 11.43-3.162 14.43-.875 16.96 2.482 2.74 4.489 1.81 5.851-2.71zm120.581-57.65c-3.93-1.13-6.51-2.68-14.29-8.55-3.11-2.36-10.09-6.34-15.5-8.84-12.1-5.61-16.41-8.53-19.78-13.39-3.03-4.36-9.84-23.19-8.77-24.23.4-.39 5.09-.82 10.44-.96 7.66-.2 10.09.08 11.5 1.32.98.86 3.77 2.57 6.2 3.79 8.8 4.43 19.66 2.46 27.58-4.99 6.43-6.05 19.13-6.23 24.61-.36 1.32 1.4 4.4 3.73 6.86 5.18 3.7 2.17 5.67 2.62 11.5 2.59 8.25-.03 12.24-1.76 17.74-7.67 3.72-3.99 3.72-3.99 8.2-2.87 2.46.62 5.85 1.13 7.53 1.13 3.49 0 3.65.72 1.53 6.82-2.22 6.35-6.19 13.91-10.74 20.43-4.23 6.05-9.83 10.3-20.73 15.74-3.57 1.78-10.26 5.49-14.85 8.25-12.34 7.41-20.1 9.18-29.03 6.61zm23.78-19.65c4.89-1.89 7.2-4.5 5.5-6.2-.75-.75-2.8-.61-6.94.47-7.3 1.9-12.02 1.91-20.92.02-7.54-1.6-9.92-.91-7.91 2.29 1.88 3 9.25 5.11 17.87 5.11 5.13 0 9.58-.61 12.4-1.69zm-17.1-19.4c1.68-1.68 1.5-6.31-.32-7.82-1.24-1.03-1.88-.93-3.5.54-2.41 2.18-2.51 4.23-.33 6.65 1.95 2.15 2.54 2.24 4.15.63zm12-1c3.03-3.03-.17-9.31-3.63-7.14-2.1 1.31-2.7 5-1.12 6.9 1.46 1.75 3.15 1.84 4.75.24zm-77.28-23.71c-1.42-.56-2.31-2.42-3.19-6.68-1.52-7.44-.55-8.41 8.43-8.41 9.33 0 10.24.75 10.24 8.43 0 4.87-.37 6.5-1.58 6.96-2.19.84-11.49.64-13.9-.3zm124.87-3.05c-1.6-.66-2.24-2.04-2.66-5.71-.78-6.85.06-7.46 9.67-7.12l8.1.29-.32 4c-.58 7.24-2.02 8.97-7.69 9.21-2.74.12-5.94-.18-7.1-.67zm-64.48-18.41c-1.97-.71-5.16-2.48-7.07-3.94-10-7.63-23.69-6.94-31.65 1.59-2.24 2.4-2.65 2.46-14 2.14l-11.69-.33-1.17-7.8c-1.75-11.59-1.64-36.682.18-42.688 3.85-12.715 16.74-28.696 28.49-35.344 17.75-10.039 43.57-11.959 70.5-5.242 12.16 3.034 27.02 10.631 33.87 17.317 11.3 11.032 15.99 26.505 15.94 52.667-.03 19.16.53 18.38-14.33 19.84l-12.2 1.19-3.69-3.33c-6.98-6.3-17.41-7.2-25.59-2.19-12.34 7.56-19.27 9.09-27.59 6.12zm19.35-63.836c6.6-3.084 17.06-10.832 19.35-14.327 1.67-2.536 1.09-6.467-.94-6.467-.66 0-3.94 2.588-7.29 5.75s-8.72 7.325-11.94 9.25c-5.01 2.994-6.73 3.493-11.9 3.454-8.95-.067-18.38-1.552-19.66-3.096-.93-1.121.07-1.364 5.75-1.391 9.22-.044 20.12-1.514 21.85-2.948 2.12-1.764.67-4.019-2.59-4.019-2.4 0-2.89-.416-2.89-2.439 0-2.809-1.54-3.142-18.31-3.94-7.23-.345-9.7-.159-9.42.706.48 1.477 11.31 5.534 14.98 5.614 6.65.143.63 3.059-6.32 3.059-1.54 0-3.1.464-3.45 1.031-.37.597-2.07.761-4.05.39-2.72-.511-3.55-.279-4.1 1.15-.96 2.525 6.36 8.821 11.88 10.202 2.36.591 8.57.993 13.79.894 7.99-.152 10.42-.609 15.26-2.873z" fill="#048"/></svg>