<svg height="420" viewBox="-10 -10 420 420" width="420" xmlns="http://www.w3.org/2000/svg"><circle cx="200" cy="200" fill="#fff" r="205" stroke="#000" stroke-width="2"/><path d="m182.9 399.6c-.22-.2-3.25-.66-6.73-1.02-34.45-3.57-74.68-20.66-102.67-43.6-8.533-6.99-25.405-24.31-31.643-32.48-22.128-28.97-36.264-63.3-40.5631-98.5-.99596-8.15-1.03479-37.14-.0625-46.66 2.6171-25.61 13.2006-56.67 27.5466-80.84 10.38-17.485 32.444-42.232 48.722-54.649 28.86-22.012 66.12-37.1819 99.74-40.6105 9.39-.95801 37.36-.95433 45.88.0061 34.31 3.8658 70.79 18.7734 99.38 40.6104 8.49 6.481 25.63 23.291 32.78 32.143 9.23 11.422 17.26 24.145 24.31 38.5 9.54 19.42 14.03 34.21 18.94 62.5 1.09 6.24 1.38 39.29.41 47-5.95 47.55-26.38 88.88-60.08 121.53-17.02 16.48-31.76 26.73-53.14 36.95-18.67 8.93-34.58 13.74-59.72 18.07-3.93.67-42.48 1.62-43.1 1.05zm71.1-78.67c2.48-1.12 6.52-4 9-6.41l4.5-4.37 6.2 1.64c11.16 2.95 22.04-1.07 28.77-10.65 2.77-3.94 3.03-5 3.03-12.47 0-4.5-.23-10.65-.5-13.67l-.5-5.5 23.83-.5c22.37-.47 23.92-.62 25.3-2.5 2.26-3.1 2.83-6.59 1.26-7.63-.81-.53-17.89-.74-40.89-.5-21.73.22-46.02.1-54-.26-16.36-.76-19.73-1.84-26.32-8.43-13.39-13.39-9.6-35.36 7.7-44.48l5.12-2.7 55.49-.29 55.5-.29 3.37-3.21c13.16-12.51 3.79-33.86-16.41-37.42-8.26-1.45-13.79.04-29.23 7.91-13.27 6.76-14.84 7.87-21.35 15.05l-7.03 7.75h-14.83-14.82l-13.35-11.06c-7.34-6.09-13.76-11.67-14.28-12.41-.68-.99 3.65-6.81 16.26-21.84l17.19-20.49 18.74-9.18c10.31-5.05 24.94-12.14 32.5-15.76 7.83-3.743 13.75-7.17 13.75-7.953 0-2.05-3.04-6.307-4.51-6.307-.7 0-15.83 7.122-33.63 15.83l-32.36 15.83-20.81 24.67-20.81 24.67h-19.83c-17.17 0-19.92.21-20.44 1.58-.34.87-.61 5.37-.61 10v8.42h-21.25c-24.57 0-27.12.63-29.63 7.31-1.28 3.39-1.25 4.19.23 7.3 2.75 5.77 5.62 6.39 29.53 6.39h20.94l.34 15.13c.19 8.31.12 17.88-.16 21.25l-.5 6.12-22.31.27c-24.77.3-26.18.63-28.18 6.71-1.39 4.2-.52 7.69 2.65 10.68 2.43 2.28 3.09 2.35 25.17 2.84l22.67.5.5 9.17c.28 5.05.87 9.55 1.33 10 .46.46 8.09 1.06 16.96 1.33l16.14.5 6.23 9c7.13 10.29 14.99 18.05 19.64 19.4 5.65 1.63 13.88 1.2 18.7-.97zm-16.5-9.5c-1.65-.86-4.07-2.55-5.37-3.75-2.97-2.72-10.13-12.28-10.13-13.51 0-.5 1.79-1.15 3.98-1.44 3.37-.45 5.98-2.34 16.75-12.13l12.77-11.59h19.19c10.56-.01 19.41.34 19.67.76s1 5.33 1.65 10.9c1.06 9.08 1 10.51-.56 13.79-2.56 5.4-7.75 8.54-14.12 8.54-7.09 0-9.86-1.25-14.91-6.75-2.37-2.58-4.57-4.43-4.89-4.11-.33.32-1.01 3.19-1.53 6.38-1.08 6.62-3.49 9.82-9.5 12.59-4.91 2.27-9.06 2.37-13 .32zm-53.81-73.07c-.38-.38-.69-4.17-.69-8.42 0-6.12.33-7.85 1.58-8.33 2.26-.87 29.7-.73 30.99.16.63.42 1.05 4.06 1 8.73l-.07 8-16.06.27c-8.83.15-16.37-.03-16.75-.41zm118.91-47.2c-1.13-1.82 6.57-7.44 18.69-13.65 13.76-7.04 19.07-8.09 25.99-5.13 7.55 3.23 11.76 11.86 8.32 17.1l-1.65 2.52h-25.41c-13.98 0-25.66-.38-25.94-.84zm-203.8 116.64c.919-.92 1.2-26.57 1.2-109.38 0-91.78-.213-108.352-1.408-109.343-.872-.724-4.197-1.056-8.75-.873l-7.342.296-.258 109c-.141 59.95-.043 109.56.219 110.25.636 1.67 14.676 1.71 16.339.05zm117.7-220.133c13.75-7.81 25-14.741 25-15.402 0-1.157-53.7-34.265-55.57-34.265-1.09 0-6.88 8.962-6.91 10.686-.01.653 4.93 4.169 10.98 7.814s11 7.044 11 7.552c0 .545-15.69 1.032-38.25 1.186l-38.25.262v6.5 6.5l36.96.263c20.33.144 37.35.644 37.81 1.11.47.466-3.66 3.402-9.17 6.523-5.52 3.121-10.28 6.094-10.6 6.605-.67 1.09 2.71 8.069 5.05 10.399 1.47 1.48 1.84 1.48 4.28.04 1.47-.86 13.92-7.963 27.67-15.773z" fill="#048"/></svg>