<svg height="420" viewBox="-10 -10 420 420" width="420" xmlns="http://www.w3.org/2000/svg"><circle cx="200" cy="200" fill="#fff" r="205" stroke="#000" stroke-width="2"/><path d="m182.89 399.59c-.21-.19-3.24-.65-6.72-1.01-34.45-3.57-74.68-20.66-102.67-43.6-8.533-6.99-25.405-24.31-31.643-32.48-22.503-29.46-35.9791-62.32-40.6009-99-.96489-7.66-.98052-36.8-.0247-46.16 2.6343-25.78 13.3736-57.28 27.5626-80.84 16.828-27.94 42.791-53.222 71.946-70.058 22.65-13.08 51.8-22.6829 76.5-25.2015 9.39-.95801 37.36-.95433 45.88.0061 34.31 3.8655 70.75 18.7584 99.38 40.6074 9.03 6.889 26.94 24.615 33.99 33.646 9.47 12.114 16.95 24.113 23.52 37.71 9.21 19.08 13.68 33.98 18.53 61.79 1.08 6.22 1.37 39.28.4 47-4.62 36.97-18.61 71.45-40.8 100.5-6.48 8.49-23.29 25.63-32.14 32.78-11.58 9.35-24.26 17.38-38.5 24.37-18.72 9.18-35.4 14.31-61.5 18.91-3.84.68-42.48 1.6-43.11 1.03zm-42.11-47.98c20.03-10.15 55.04-22.52 89.47-31.61 2.61-.7 4.75-1.69 4.75-2.23 0-.86-8.3-20.44-59.44-140.27-13.55-31.75-14.22-33.07-17.7-34.77-4.31-2.12-7.85-1.2-10.41 2.7-2.74 4.19-1.88 8.25 5.85 27.74 6.97 17.56 7.94 21.91 4.55 20.59-.74-.29-6.07-11.94-11.83-25.89-5.77-13.95-11.45-26.35-12.64-27.55-5.1-5.17-14.2-3.39-17.01 3.33-1.81 4.34-2.13 3.32 10.77 34.65 8.9 21.6 9.76 24.23 8.39 25.6-1.35 1.35-1.71 1.35-3 .06-.81-.81-6.01-12.27-11.55-25.47-5.54-13.19-10.62-24.54-11.29-25.22-2.29-2.31-6.99-2.47-10.386-.36-5.926 3.7-5.642 5.32 6.666 38.03 9.91 26.35 10.91 29.61 9.55 30.97-1.33 1.33-1.68 1.34-2.85.05-.74-.8-4.85-10.81-9.15-22.25-8.738-23.23-9.999-24.99-17.839-24.89-3.474.05-4.731.66-7.431 3.61-4.149 4.52-4.132 6.89.139 18.7 1.863 5.15 14.961 41.99 29.111 81.87 14.14 39.87 26.17 73.06 26.73 73.75 1.3 1.61 1.04 1.65 6.55-1.14zm98.07-81.56c5.58-1.73 19.71-5.55 31.4-8.51 20.16-5.1 21.25-5.49 21.16-7.71-.05-1.28-1.72-9.53-3.72-18.33s-5.21-25.22-7.12-36.5c-6.02-35.51-7.54-51.98-8.67-94-.57-21.175-1.25-39.949-1.51-41.721-.64-4.359-4.9-9.175-10.2-11.519-3.46-1.531-5.57-1.796-10.1-1.27l-5.73.664-1.18-3.941c-3.29-10.978-15.09-16.163-25.76-11.317-2.24 1.019-5.02 3.056-6.18 4.526l-2.1 2.674-5.51-1.602c-4.31-1.253-6.37-1.373-9.42-.55-5.62 1.513-10.35 5.023-12.91 9.586-2.2 3.928-2.29 3.97-8.22 4.012-5.14.037-6.54.477-9.79 3.065-6.99 5.575-7.06 5.961-7.44 43.233l-.35 33.33 3.93 1.36c2.17.75 4.31 1.13 4.75.86.45-.28.82-15.51.82-33.84 0-30.287.16-33.517 1.75-35.397 2.7-3.189 6.38-3.627 9.54-1.137l2.71 2.129v23.099c0 20.086.22 23.336 1.65 24.926 2.06 2.27 4.14 2.33 6.52.18 1.52-1.38 1.83-3.22 1.83-10.75 0-5.01.3-18.307.67-29.561.63-19.545.76-20.563 2.95-22.75 3.01-3.01 7.49-2.96 11.07.123l2.81 2.411.31 21.583c.28 20.33.42 21.644 2.28 22.644 2.74 1.46 5.84.26 6.97-2.701.52-1.363.94-12.985.94-25.825v-23.346l3.08-2.589c3.51-2.953 5.81-3.214 9.86-1.119 4.5 2.328 4.96 5.323 4.33 28.457-.53 19.403-.43 21.235 1.23 23.075 2.2 2.432 4.25 2.537 6.67.343 1.61-1.455 1.83-3.369 1.83-15.865 0-12.988.18-14.443 2.13-16.92 1.17-1.49 3.18-3.108 4.46-3.596 3.06-1.16 8.08.601 9.68 3.391.88 1.532 1.41 12.857 1.87 39.645.43 25.33 1.18 41.72 2.29 50.5 2.99 23.57 7.52 51.69 11.65 72.34 2.24 11.18 3.84 20.91 3.57 21.63-.27.71-2.89 1.84-5.82 2.52-15.51 3.56-50.11 13.97-51 15.35-1.01 1.54 3.05 8.92 4.58 8.33.7-.27 5.85-1.9 11.44-3.62zm-27.27-65.22c4.71-27.07 5.32-36.04 2.9-42.89-6.39-18.1-29.01-22.24-37.06-6.78-1.23 2.37-1.14 3.24.73 7.75 1.17 2.8 2.4 5.09 2.75 5.09s1.43-2.25 2.4-4.99c1.28-3.6 2.63-5.44 4.81-6.57 8.05-4.16 18.82 4.73 18.86 15.56.01 1.93-1.76 12.59-3.93 23.71l-3.94 20.2 2.55 6.3c2.59 6.39 4.28 9.19 5.08 8.4.24-.24 2.42-11.84 4.85-25.78z" fill="#048"/></svg>