<svg height="420" viewBox="-10 -10 420 420" width="420" xmlns="http://www.w3.org/2000/svg"><circle cx="200" cy="200" fill="#fff" r="205" stroke="#000" stroke-width="2"/><path d="m178 398.89c-35.45-3.99-71.54-18.63-100.5-40.75-8.486-6.48-25.628-23.29-32.779-32.14-9.354-11.58-17.382-24.26-24.37-38.5-33.429-68.12-25.1558-148.91 21.506-210 6.479-8.482 23.288-25.625 32.143-32.781 60.25-48.6922 143.21-58.334 212.79-24.731 40.75 19.681 72.6 51.431 92.8 92.512 33.41 67.96 25.14 149.01-21.45 210-6.48 8.48-23.28 25.63-32.14 32.78-29.77 24.06-66.92 39.47-105.21 43.66-11.13 1.22-31.8 1.19-42.79-.05zm32-49.57c8.38-3.41 13.94-12.01 13.98-21.6.02-6.88-1.92-12.01-6.28-16.56-9.69-10.11-24.51-10.41-34.23-.69-11.02 11.02-8.95 29.47 4.15 37.16 7.61 4.45 14.34 4.96 22.38 1.69zm-3.68-79.77c5.01-1.79 7.39-4.04 10.28-9.75 2.07-4.08 3.93-16.02 13.96-89.5 7.98-58.49 11.41-86.465 11.06-90.167-.69-7.375-4.62-14.88-11.21-21.421-17.43-17.291-43.12-17.199-60.45.218-7.05 7.074-10.21 13.584-10.72 22.07-.27 4.531 2.81 30.13 10.18 84.5 5.81 42.9 11.04 80.88 11.63 84.4 1.73 10.44 5.65 16.34 12.96 19.51 4.31 1.87 7.37 1.9 12.31.14z" fill="#048"/></svg>