<svg height="420" viewBox="-10 -10 420 420" width="420" xmlns="http://www.w3.org/2000/svg"><circle cx="200" cy="200" fill="#fff" r="205" stroke="#000" stroke-width="2"/><path d="m182.96 399.66c-.25-.23-3.31-.72-6.79-1.08-34.45-3.57-74.68-20.66-102.67-43.6-8.533-6.99-25.405-24.31-31.643-32.48-22.228-29.1-36.2444-63.14-40.5631-98.5-.99596-8.15-1.03479-37.14-.0625-46.66 3.4292-33.56 18.7346-71.18 40.6256-99.84 6.479-8.482 23.288-25.625 32.143-32.781 28.29-22.865 62.61-37.6307 100.5-43.2414 7.37-1.09194 39.92-1.38256 47-.4196 50.65 6.8918 89.97 26.481 123.52 61.54 13.8 14.42 23.58 28.189 32.88 46.302 10.65 20.73 15.51 36.32 20.61 66.1 1.09 6.35 1.39 39.35.44 47-5.97 47.59-26.39 88.88-60.09 121.53-17.02 16.48-31.76 26.73-53.14 36.95-18.65 8.92-35.18 13.92-59.72 18.06-4.28.72-42.4 1.72-43.04 1.12zm-10.8-46.96c7.21-3.69 13.37-5.99 20.34-7.59 30.97-7.1 42.97-12.2 62.5-26.56 4.68-3.44 21.55-14.03 37.5-23.55 15.95-9.51 30.01-18.2 31.25-19.32 4.16-3.75 2.65-10.44-2.88-12.73-3.12-1.3-3.79-1.03-27.29 10.91-13.24 6.73-24.68 12.21-25.4 12.19-4.16-.15 2.56-4.88 31.32-22.08 17.6-10.53 32.79-19.84 33.75-20.71 2.86-2.57 2.32-8.67-1-11.28-3.84-3.02-6.48-2.32-21.75 5.78-41.5 22.01-46.49 24.42-47.13 22.77-.34-.89-.45-1.78-.24-1.97.2-.2 14.77-8.99 32.37-19.53s32.56-19.9 33.25-20.79c3.5-4.54-.39-12.25-6.17-12.23-2.05.01-14.18 5.9-36.08 17.51-18.15 9.62-33.56 17.28-34.25 17.02s-1.25-.9-1.25-1.42 10.69-7.57 23.75-15.67c13.06-8.09 24.79-15.71 26.06-16.92 3.36-3.19 3.26-8.21-.21-11.2-1.49-1.28-3.64-2.33-4.79-2.33-1.14 0-14 6.13-28.59 13.63l-26.51 13.63-19.1-.72c-10.51-.4-19.47-.95-19.91-1.23-.44-.27-.54-3.49-.21-7.15.73-8.11-.26-11.9-3.76-14.52-4.23-3.15-6.78-1.2-14.85 11.35l-7.09 11.01h-12.27c-9.51 0-12.55-.33-13.48-1.45-2.41-2.9-.5-4.97 9.96-10.78 11.76-6.55 16.84-10.95 21.08-18.27 3.55-6.12 3.8-10.77.7-12.94-1.22-.86-3.1-1.56-4.18-1.56-2.4 0-53.56 27.12-59.1 31.33-2.2 1.67-7.38 6.27-11.5 10.21-10.401 9.94-17.931 13.43-29.05 13.45-3.052.01-6.09.55-6.75 1.21-1.568 1.57-1.722 65.96-.165 68.87.919 1.71 2.185 1.93 11.25 1.95 11.072.02 19.105 1.4 30.745 5.27 4.11 1.37 10.17 3.06 13.47 3.75 3.3.7 6.51 1.76 7.14 2.36.63.61 6.19 10.1 12.36 21.1 13.23 23.59 13.78 24.5 14.93 24.5.49 0 5.54-2.38 11.23-5.3zm-57.16-51.64c-12.18-4.04-17.884-5.21-28.829-5.93l-9.671-.63v-29.44-29.45l7.5-1.37c10.902-1.99 19.17-6.44 27.48-14.78 10.69-10.73 9.71-10.11 51.66-32.3 11-5.82 14.86-7.21 14.86-5.36 0 1.49-5.71 9.68-8.62 12.36-1.58 1.46-7.2 4.95-12.49 7.76-10.96 5.83-12.75 7.46-13.54 12.32-.47 2.9-.07 4.05 2.44 6.85l3.01 3.37 11.16.38c8.87.31 11.06.66 10.65 1.74-.29.74-3.18 5.53-6.42 10.64-8.11 12.74-9.67 16.05-12.69 26.78-1.44 5.12-3.45 10.93-4.47 12.91-2.88 5.58-8.69 11.78-15.14 16.16-3.24 2.2-5.89 4.35-5.89 4.78 0 .42.66 1.64 1.47 2.71s1.48 2.28 1.5 2.69c.06 1.47-5.6.58-13.97-2.19zm71.92-54.66c-1.13-1.36-.9-2.39 1.5-6.84 1.56-2.89 4.36-7.34 6.22-9.9l3.38-4.66 10.74.01c11.15.01 18.24.76 18.24 1.93 0 .95-35.7 21.06-37.38 21.06-.76 0-1.97-.72-2.7-1.6zm41.08-54.81c0-1.96-2.73-3.91-4.51-3.22-2.48.95-3.02 3.77-1.01 5.24 2.05 1.5 5.52.23 5.52-2.02zm-32.5-6.59c0-1.83-.6-2.59-2.25-2.82-1.36-.19-2.5.31-2.86 1.25-1 2.59.4 4.74 2.86 4.39 1.65-.23 2.25-.99 2.25-2.82zm63 0c0-1.83-.6-2.59-2.25-2.82-1.36-.19-2.5.31-2.86 1.25-1 2.59.4 4.74 2.86 4.39 1.65-.23 2.25-.99 2.25-2.82zm-31.12-7.23c.83-1.33.7-2.11-.57-3.39-3-2.99-7.46.92-4.76 4.18 1.55 1.87 3.87 1.53 5.33-.79zm-25.57-7.09c-.22-1.57-1-2.18-2.8-2.18-2.81 0-3.89 2.73-1.99 5.03 1.73 2.08 5.2.02 4.79-2.85zm50.99-.09c-.21-1.48-1.03-2.09-2.79-2.09-3.08 0-4.01 3.3-1.45 5.17 2.27 1.66 4.67-.08 4.24-3.08zm-25.42-7.82c.83-1.33.7-2.11-.57-3.39-3-2.99-7.46.92-4.76 4.18 1.55 1.87 3.87 1.53 5.33-.79zm-20.39-3.26c1.48-1.78.69-4.31-1.61-5.2-2.37-.9-4.62 2.38-3.31 4.83 1.2 2.24 3.24 2.4 4.92.37zm40.39-.74c.83-1.33.7-2.11-.57-3.39-3-2.99-7.46.92-4.76 4.18 1.55 1.87 3.87 1.53 5.33-.79zm-20.39-10.26c1.79-2.15.48-4.51-2.49-4.51-1.41 0-2.82.68-3.14 1.51-.67 1.73 1.27 4.49 3.14 4.49.69 0 1.81-.67 2.49-1.49zm-14-3c1.79-2.15.48-4.51-2.49-4.51-1.41 0-2.82.68-3.14 1.51-.67 1.73 1.27 4.49 3.14 4.49.69 0 1.81-.67 2.49-1.49zm28.51-1.51c0-2.98-3.45-3.96-5.46-1.55-1.05 1.26-1.05 1.84 0 3.1 2.01 2.41 5.46 1.43 5.46-1.55zm-5.4-11.42c1.04-6.39 2.44-6.88 17.81-6.18 7.37.33 17.16.6 21.75.6 8.05 0 8.34.08 8.34 2.31 0 5.14 1.6 5.79 13.51 5.48l10.99-.29.27-17.37c.19-11.96-.08-17.797-.87-18.748-.83-1.003-3.79-1.378-10.77-1.367-10.11.016-11.15.293-12.85 3.405-1 1.83-2.52 1.93-30.49 2l-29.44.08-3.67 2.8c-5.61 4.27-7.01 7.81-7.49 18.93-.23 5.35-.15 10.43.18 11.28.5 1.3 2.36 1.51 11.35 1.27l10.75-.28zm72.7-46.914c.18-3.441-.18-6.415-.87-7.25-1.77-2.129-20.2-2-22.36.155-1.9 1.902-2.14 10.461-.34 12.26.86.862 4.53 1.146 12.25.95l11.02-.281z" fill="#048"/></svg>