<svg height="400" viewBox="0 0 608 608" width="400" xmlns="http://www.w3.org/2000/svg"><path d="m606.93 608.42h-606.43v-607.43l605.94-.49z" fill="#085"/><g fill="#fff"><path d="m427.23 253.97 3.96 13.86 69.8.99-22.77 60.89-29.7-.5 6.93 23.77 42.08 19.8 57.92-21.29-39.6-82.18 36.13-155.94-192.07 75.74-58.42-132.67-65.35 108.42-182.179-59.9 93.569 159.9-89.109 137.62 118.319 7.43-6.44 143.56 118.32-95.05 128.71 91.09.5-76.73-75.25-54.46-91.09-36.14-40.1-51.48-86.14-.99 39.61-61.39 54.45.5 18.32-44.06c8.41-11.22 18.81-18.48 37.13-3.96.82-15.51 17.49-24.59 32.17-13.86l14.36 17.82c1.65-15.51 22.61-24.1 34.65-12.38l3.97 4.95c7.42-10.89 21.78-13.86 31.18-2.97z"/><path d="m417.33 260.9 28.71 100.49 106.93 49.01-.49 144.06-206.44-146.53-87.12-35.15-32.68-42.08 40.1-.5 4.95 5.45c6.93 2.97 8.42.99 8.91-4.46l1.98-41.58-23.76-25.74h-25.74l15.84-34.66c2.14-4.12 10.73-7.26 13.86-3.46l38.61 41.58c5.45 7.43 19.31-.49 12.88-9.4l-27.73-32.68c-4.29-4.78 3.3-16 12.38-9.9l42.57 47.53c2.56 1.23 6.11.86 8.6-.93 2.5-1.8 3.94-5.01 2.29-9.47l-17.32-20.3c-6.27-6.27 2.8-19.47 12.37-11.38l38.62 42.57c3.79 4.95 13.03-1.98 8.41-7.42l-22.77-24.76c-3.79-5.28 1.82-15.51 10.89-11.38z"/></g></svg>