<svg height="575" width="575" xmlns="http://www.w3.org/2000/svg"><path d="m574.07 287.5c0 158.27-128.3 286.57-286.57 286.57s-286.57-128.3-286.57-286.57 128.3-286.57 286.57-286.57 286.57 128.3 286.57 286.57z" fill="#fff" stroke="#000" stroke-linecap="square"/><g fill-rule="evenodd" transform="matrix(1.0137 0 0 .99214 796.94 -3.5673)"><path d="m-602 309.71c.94 3.71 2.87 7.07 3.78 10.74.09 3.18 1.54 6.25 2.84 9.13 1.2-1.75.8-3.85 1.89-5.41v-8.78c2.25 1.5 5.14 2.36 6.12 5.14 2.64 4.32 4.22 9.27 5.46 14.16 1.28 6.54 1.56 13.39 4.5 19.48 1.16-1.55 2.83-3.2 2.84-5.13.63-1.76.99-3.58 1.89-5.28-.5-3.75 1.45.59 2.43 1.75 2.28 2.68 1.83 6.45 2.59 9.71.75 3.21.63 6.41-.05 9.62-.75 7.05-2.76 14.09-1.96 21.2.7 2.82.27 3.4 2.44 1.47 1.04-1.64 2.58-3.09 3.07-4.96 1.05 2.06 2.38 4.05 1.89 6.47.53 2.16-.78 3.89-.95 5.89.27 2.59-1.5 4.86-.94 7.5-1.7 4.8-4.09 9.48-8.06 12.79-3.46 3.6-7.12 7.34-12.08 8.7-4.55 2.1-9.46 3.53-14.5 3.11-2.16.6-3.72-1.34-5.83-.95-2.63.11-3.8-1.5-.49-1.8 5.39-3.32 10.89-6.96 14.77-12.04 1.91-3.98 4.56-7.53 6.28-11.61-.42-2.14 1.5-3.73.99-5.89-.36-1.54.98-5.93-1.28-3.66-1.3.73-2.27 1.78-4.19 1.89.2-1.32 1.73-3.55 1.69-5.4-.25-3.06.74-6.39-1.06-9.11-.53-1.07-1.44-6.01-2.38-3.2-1.91 3.5-3.36 7.33-5.55 10.62-1.92 2.33-2.84 2.67-1.94-.63 1.16-6.06.39-12.22-.81-18.21-.05-3.44-2.18-6.18-4-8.93-2.16-3.3-5.2-5.83-7.91-8.65-.25 3.94.27 7.82.94 11.69-.19 4.34.18 8.63.95 12.91-.7 4.07-1.16 8.16-.95 12.29-.93 1.03-1.12 5.66-2.6 4.02-3.16-3.13-3.58-7.9-5.91-11.59.22-1.23-.65-6.23-1.55-3.52-3.21 5.04-2.02 11.15-2.23 16.79-.18 3.54.04 7.04 1.19 10.42 1.23 3.31.19 2.6-1.68.42-1.75-2.67-3.16-5.72-4.41-8.68-1.63-6.69-2.9-13.47-4.56-20.16-.92 3.5-3.43 6.62-2.84 10.41-1.65 2.05-.37 4.76-1.69 6.96-.25 2.47.08 4.47-2.1 1.55-.06-2.07-2.64-3.1-3.78-4.73.42 4.03 1.6 7.88 2.89 11.69.42 3.14.91 6.26 2.7 8.95 2.09 4.03 4.49 7.97 6.97 11.74 2.71 2.19 5.44 4.35 8.25 6.41-2.71 1.27-5.8 1.28-8.51 0-3.19.33-6.23-1.06-9.08-2.27-2.17-.98-3.55-3.23-5.45-4.35-2.37-.3-2.18-3.13-3.93-4.27-.44-1.73-2.5-3.09-2.35-5.19-1.14-1.62-1.61-3.5-1.89-5.47-.41-1.9-1.43-3.54-.95-5.8-1.79-1.53-.61-4.28-.95-6.41v-26.78c1.94.36 3.57 1.44 4.98 3.08 2.11 2.25 3.13-1.52 2.59-3.27-.57-5.31 1.79-10.24 2.55-15.41.65-4.52.12-9.16.29-13.73 3.28 1.32 5.3 4.43 6.62 7.57 1.9 1.43 2.77 3.61 3.78 5.68 1.42-3.08 3.39-6.15 3.79-9.53-.38-4.02.71-7.98.85-11.95-.88-4.26-.87-8.59-.93-12.9-.5-2.13-1.06-4.24-1.81-6.3 1.88 1.1 4.19 1.78 5.82 3.14.85 2.29 3.25 3.46 3.89 5.89.9 1.88 1.79 4.65 2.69 1.16 2.77-5.51 1.49-11.89 1.79-17.84-.13-4.97-.18-10.24 2.6-14.58.77-.3.94 3.61 1.71 4.91.78 3.71 3.07 6.68 5.14 9.75 3.1 1.51 4.87 4.27 5.68 7.57z"/><path d="m-490.38 119.56c-5.09 1.54-5.39 6.58-4.3 11 1.43 14 2.87 28 4.3 42-6.31 2.83-12.62 5.67-18.94 8.5 4.74 6.48 8.48 13.59 12.96 20.22.98 3.76 6.45 7.51 6.24 10.34-15.59 6.56-31.5 12.53-46.89 19.44-9.73 5.94-19.89 11.36-28.5 18.99-10.72 8.89-24.47 15.74-29.87 29.39-.35 5.75 7.3 3.77 10.46 1.85 3-1.97 10.77-6.01 4.37-.61-4.43 4.77-10.82 9.58-12.62 15.5 2.79 3.41 8.06-.98 11.38-2.27 5.65-2.09 9.78-6.92 15.98-7.44 3.42-.35-4.93 4.99-6.69 6.65-5.9 4.32-12.42 8.2-16.25 14.69-.39 5.58 5.53 5.05 9.2 3.58 11.39-2.58 22.02-7.42 32.88-11.49 5.36-1.53-2.18 6.11-4.01 7.67-3.48 2.85-7.78 4.76-9.17 9.38-3.53 3.82-1.18 9.73 4.13 6.04 2.95-2.19 6.09-4.55 9.53-5.71-5.18 4.92-10.47 10.3-13.25 16.83-2.04 7.03 4.06 3.88 8.26 2.81 11.06-3.11 18.69-12.47 25.97-20.77 3.61-4.18 9.44-5.83 11.58-11.32 4.01-3.67 8.13-7.32 11.5-11.68 9.26-7.53 17.95-15.96 28.78-21.28-8.94 11.21-18.47 21.88-28.89 31.74-6.08 5.39-10.78 11.8-16.52 17.45-6.15 3.38-9.03 9.93-13.25 15.13-1.33 4.36-4.98 7.96-3.78 12.93 0 0 2.04.17 7.23-4.07 3.17-.88 8.94-6.96 10.74-3.38-.83 4.24-3.52 8.47-3.96 13.23-1.3 6.11-3.75 12.33-1.29 18.44.65 5.42 2.96 9.39 6.08 2.74 7.03-11.01 12.33-22.99 15.84-35.56 4.32-10.56 10.4-20.47 17.42-29.42 9.25-11.04 17.19-23.68 29.52-31.61 37.35-27.57 68.29-51.8 105.71-79.26-13.55-21.76-27.1-43.52-40.65-65.28-31.22 11.66-55.82 20.26-87.04 31.92-1.54-14.5-3.35-28.99-4.72-43.5-2.17-3.44-5.15-4.11-9.47-3.81zm0 4.75c6.13-1.92 4.95 5.13 5.59 8.96 3.49 32.32 6.98 64.65 10.47 96.98-6.06 1.55-7.79-1.64-7.26-7.3-2.87-32.88-6.21-65.75-8.8-98.64zm1.88 91.75c5.83 4.15-1.4 5.25-2.82 9.47-3.47 6.64 1.98 14.7 8.3 17.03 3.76 1.73 9.01-3.29 11.27-.6 4.23 7.31 10.01 13.65 14.35 20.91 1.54 3.1 7.81 7.55 4.13 10.44-10.5 9.26-21.99 17.67-29.66 29.62-6.89 7.59-12.2 16.46-17.46 25.18-6.33 14.6-11.04 29.89-18.37 44.04-2.95-5.36 1.1-11.96 1.67-17.78.31-4.65 2.68-8.98 3.99-13.03-.66-4.12-4.49-6.86-8.7-4.44-3.91 1.15-8.39 6.46-4.83-.12 4.99-10.57 14.97-17.22 23-25.19 6.16-7.78 13.8-14.22 20.04-21.92 5.66-6.26 12.17-12.5 14.96-20.64-4.31-2.82-8.61 1.59-12.89 2.31-11.2 7.57-20.22 17.9-30.49 26.66-14.41 11.9-25.31 28.38-42.71 36.31 1.68-5.89 6.96-9.71 10.61-14.38 1.78-2.46 7.83-8.54 1.9-9.28-3.77 1.12-6.63 3.67-10.2 5.42-5.24 5.99-3.9-.42.49-2.85 6.12-3.6 11.09-9.66 12.35-16.75-5.35-2.07-11.14 2.05-16.43 3.44-6.1 1.96-12.16 4.12-18.14 6.23-2.53-.46-12.9 3.72-7.82-.4 5.97-5.33 11.99-10.59 18.74-14.96.99-3.04 7.09-9.71.44-9.44-5.26.81-9.81 3.37-14.39 5.89-3.56 1.77-6.81 3.9-10.65 5.45 5.54-5.54 11.1-11.29 16.9-16.34 4.71-4.51-.75-5.71-4.59-3.53-3.59 2.39-7.76 3.46-11.6 5.28-6.54 2.41-.16-4.7 1.79-6.84 6.22-7.31 14.46-12.22 22.07-17.81 8.39-6.47 17.48-11.99 26.53-17.51 15.79-7.27 32.11-13.3 48.22-19.87z"/></g><path d="m286.99 9.6298c-68.53 0-131.28 24.9482-179.72 66.2502-1.27 1.084-2.53 2.175-3.78 3.281-.5.444-1 .896-1.5 1.344-1.07.96-2.133 1.929-3.189 2.906-.281.261-.563.519-.843.781-1.25 1.166-2.492 2.344-3.719 3.531-1.408 1.363-2.809 2.734-4.188 4.125-1.353 1.366-2.706 2.733-4.031 4.125-1.374 1.446-2.719 2.932-4.062 4.407-.154.17-.316.33-.469.5-1.162 1.28-2.3 2.57-3.438 3.87-1.242 1.43-2.442 2.87-3.656 4.32-.047.05-.109.1-.156.15-40.496 48.38-64.9061 110.73-64.9061 178.78 0 153.66 124.3771 278.34 277.6571 278.34 68.68 0 131.54-25.07 180.03-66.53l.03.03c.39-.33.78-.66 1.16-1 .16-.13.31-.27.47-.4.94-.82 1.88-1.64 2.81-2.47.74-.66 1.46-1.31 2.19-1.97.21-.19.42-.37.62-.56.97-.89 1.92-1.79 2.88-2.69.86-.81 1.71-1.62 2.56-2.44.12-.11.23-.23.35-.34 1.08-1.06 2.14-2.12 3.21-3.19.32-.31.63-.62.94-.94 1.25-1.26 2.49-2.55 3.72-3.84.12-.13.25-.25.38-.38 1.4-1.48 2.81-2.98 4.18-4.5 1.26-1.39 2.49-2.8 3.72-4.21.23-.27.46-.52.69-.79 1.05-1.21 2.09-2.45 3.12-3.68 40.33-48.33 64.63-110.55 64.63-178.44 0-153.66-124.41-278.3828-277.69-278.3828zm0 62.0622c119.11 0 215.78 96.908 215.78 216.308 0 50.85-17.52 97.62-46.84 134.56l-304.5-302.78c37.05-30.06 84.21-48.092 135.56-48.092zm-168.62 81.408 304.56 302.84c-37.12 30.24-84.42 48.37-135.94 48.37-119.11 0-215.75-96.91-215.75-216.31 0-51 17.636-97.91 47.13-134.91z" fill="#c00" stroke="#c00" stroke-width="2"/></svg>