<svg height="420" viewBox="-10 -10 420 420" width="420" xmlns="http://www.w3.org/2000/svg"><circle cx="200" cy="200" fill="#fff" r="205" stroke="#000" stroke-width="2"/><path d="m182.89 399.59c-.21-.19-3.24-.65-6.72-1.01-19.22-1.99-43.4-9.12-62.96-18.57-22.47-10.85-39.415-23.19-57.21-41.67-30.336-31.5-49.4738-71.5-54.7061-114.34-.99035-8.11-1.03693-37.13-.0747-46.5 3.3078-32.19 16.3218-65.71 36.7808-94.74 7.515-10.662 25.137-29.287 36-38.049 29.84-24.07 66.35-39.3363 104-43.4934 8.51-.93956 36.69-.92148 45.12.029 34.31 3.8655 70.75 18.7584 99.38 40.6074 9.03 6.889 26.94 24.615 33.99 33.646 28.48 36.44 43.11 78.38 43.27 124 .1 31.57-6.09 58.95-19.76 87.29-16.07 33.32-40.57 61.04-72.02 81.5-23.29 15.14-48.1 24.3-81.98 30.27-3.84.68-42.48 1.6-43.11 1.03zm-2.38-93.25c3.8-.52 10.48-4.07 32.39-17.25l27.6-16.59 19.36-22.5c10.64-12.38 19.77-23.57 20.27-24.87 3.31-8.6-6.47-17.61-15.42-14.21-1.33.51-10.08 9.84-19.44 20.75s-17.87 20.56-18.9 21.46c-2.4 2.09-44.75 9.88-53.53 9.85-8.59-.03-12.66-2.15-22.59-11.72-7.28-7.02-8.25-8.37-8.25-11.5 0-1.94.79-4.45 1.75-5.56s8.5-5.92 16.75-10.69c8.25-4.78 16.87-10.49 19.15-12.71 8.68-8.41 12.14-19.89 7.94-26.3-1.55-2.37-2.29-2.67-5.53-2.24-2.48.34-20.56 10.25-54.14 29.7-27.73 16.06-51.931 30.35-53.779 31.75-6.416 4.88-7.094 8.03-7.119 33.08-.019 19.32.204 22.63 1.68 24.88 3.408 5.2 3.95 5.25 57.408 5.29 27.29.02 51.77-.26 54.4-.62zm.25-51.44c4-.66 7.9-1.69 8.67-2.3.77-.6 7.06-7.78 13.97-15.94 10.66-12.57 12.42-15.12 11.57-16.72-.56-1.04-1.88-2.35-2.93-2.92-2.44-1.3-8.62-1.32-11.04-.02-2.92 1.56-33.1 38.03-32.4 39.16.34.55 1.58.76 2.76.47 1.18-.3 5.41-1.07 9.4-1.73zm32.74-5.98c3.85-.64 7.8-1.59 8.78-2.09 1.94-1.02 25.72-28.48 25.72-29.72 0-1.57-4.59-4.94-7-5.13-7.44-.6-6.95-1.01-25.95 21.61-12.14 14.45-14.42 18.25-10.22 16.99.92-.27 4.82-1.02 8.67-1.66zm-23.45-85.62c8.08-9.21 11.02-23.97 7.44-37.33-3.7-13.81-3.87-15.61-2.15-22.56.89-3.591 2.52-7.812 3.64-9.375 2.67-3.754 2.9-13.759.34-14.742-2.47-.947-9.72 7.523-12.4 14.487-3.25 8.42-3.74 21.1-1.15 29.9 4.31 14.64 3.63 21.92-2.86 30.56-2.15 2.86-3.91 6.04-3.91 7.05 0 6.64 6.02 7.73 11.05 2.01zm155.4-48.22c.85-1.37-10.26-17.477-18.75-27.194-8.41-9.615-22.6-21.9-33.58-29.068l-7.38-4.818-19.12.003-19.12.002-13.43 9.972c-7.38 5.485-13.78 10.546-14.23 11.248-1.05 1.654-1.05 18.888-.01 20.54.45.696 6.63 5.515 13.74 10.715l12.93 9.44 49.19.04c28.91.02 49.43-.34 49.76-.88zm-90.25-7.28c-1.27-1.27-1.8-42.065-.59-45.218.52-1.358 3.05-1.582 17.9-1.582h17.3l.59 4.75c.76 6.231.11 40.62-.81 42.1-1.01 1.64-32.74 1.6-34.39-.05zm-46.41-21.658c.31-8.887-.82-12.195-3.42-10.032-.96.791-1.37 3.621-1.37 9.346 0 8.576.39 9.806 2.95 9.318 1.22-.234 1.61-2.056 1.84-8.632zm7.6 7.276c.34-.87.61-4.433.61-7.918 0-7.627-.61-9.5-3.11-9.5-1.71 0-1.89.833-1.89 8.833 0 4.859.3 9.134.67 9.5 1.18 1.182 3.1.711 3.72-.915z" fill="#048"/></svg>