<svg height="420" viewBox="-10 -10 420 420" width="420" xmlns="http://www.w3.org/2000/svg"><circle cx="200" cy="200" fill="#fff" r="205" stroke="#000" stroke-width="2"/><path d="m182.89 399.59c-.21-.19-3.24-.65-6.72-1.01-32.79-3.4-70.37-18.81-98.67-40.45-8.219-6.28-23.43-21.07-30.99-30.13-24.203-29-40.6863-66.91-45.2161-104-.99035-8.11-1.03693-37.13-.0747-46.5 3.0383-29.57 15.0158-62.14 32.4318-88.188 32.74-48.969 84.519-80.7286 143.509-88.0187 8.17-1.00954 36.27-1.02081 45.38-.0182 91.31 10.0489 165.84 84.7919 176.22 176.7249.96 8.49.95 35.64-.02 44.24-7.77 69.16-52.11 130.23-115.89 159.65-15.23 7.02-37.87 13.85-51.85 15.64-3.03.39-6.4.92-7.5 1.19-2.37.58-40.04 1.39-40.61.87zm101.52-67.54c2.53-2.53 3.07-3.85 2.99-7.32-.08-3.75-2.25-7.49-18.92-32.73l-18.82-28.5-5.47-26.5-5.46-26.5.14-27c.15-29.24.88-43.5 2.21-43.5.47 0 7.09 5.81 14.71 12.91l13.86 12.91 9.42 21.69c5.19 11.94 10.42 22.78 11.63 24.09 3.03 3.3 9.14 3.3 12.97.01 4.69-4.03 3.94-7.31-7.73-34l-10.44-23.89-21.87-21.36-21.88-21.36h-25.82-25.83l-5.8 4.84c-3.19 2.66-11.43 9.68-18.3 15.59-6.88 5.91-14.07 11.55-16 12.54-1.93.98-14.3 6.37-27.5 11.98-25.573 10.86-29.5 13.38-29.5 18.99 0 3.61 4.055 8.61 7.73 9.53 2.18.55 8.76-1.9 32.32-12.01l29.59-12.69 12.63-10.89c6.96-5.98 13.11-10.88 13.69-10.88.7 0 1.03 10.81 1.01 33.25l-.03 33.25-19.96 23.29c-10.98 12.81-20.2 24.28-20.49 25.5s-2.73 17.22-5.44 35.57c-3.73 25.31-4.67 34-3.92 36 3.42 9.01 15.03 10.65 20.14 2.85 1-1.52 3.29-14.02 6.28-34.3l4.71-31.91 10.65-12.5c5.86-6.88 15.55-18.26 21.53-25.29 5.98-7.04 11.25-12.42 11.72-11.95.46.46 3.54 14.3 6.84 30.74 4.94 24.63 6.47 30.61 8.68 33.95 27.72 41.93 38.08 56.9 40.24 58.12 3.97 2.25 9.82 1.15 13.49-2.52zm-60.32-229.38c11.73-6.187 14.41-21.336 5.56-31.413-7.75-8.827-19.93-9.518-28.66-1.627-13.94 12.589-5.23 35.37 13.51 35.37 3.5 0 6.62-.76 9.59-2.33z" fill="#048"/></svg>