<svg height="420" viewBox="-10 -10 420 420" width="420" xmlns="http://www.w3.org/2000/svg"><circle cx="200" cy="200" fill="#fff" r="205" stroke="#000" stroke-width="2"/><path d="m182.89 399.59c-.21-.19-3.24-.65-6.72-1.01-34.45-3.57-74.68-20.66-102.67-43.6-8.533-6.99-25.405-24.31-31.643-32.48-21.895-28.67-36.3092-63.67-40.5631-98.5-.99508-8.15-1.03512-37.14-.0645-46.64 1.5815-15.47 7.9816-40.08 14.2656-54.86 6.589-15.5 16.867-32.74 28.012-47 7.058-9.031 24.967-26.757 33.993-33.646 28.83-22.001 66.11-37.1846 99.74-40.6135 9.39-.95801 37.36-.95433 45.88.0061 34.31 3.8655 70.75 18.7584 99.38 40.6074 9.03 6.889 26.94 24.615 33.99 33.646 9.47 12.114 16.95 24.113 23.52 37.71 9.21 19.08 13.68 33.98 18.53 61.79 1.08 6.22 1.37 39.28.4 47-2.88 23.04-8.82 43.57-18.46 63.72-10.22 21.38-20.46 36.11-36.95 53.14-17.21 17.78-33.53 29.68-55.84 40.73-18.34 9.08-35.48 14.35-61.69 18.97-3.84.68-42.48 1.6-43.11 1.03zm99.46-64.67c5.4-1.5 11.97-8.33 13.41-13.95.63-2.46 1.36-13.47 1.63-24.47.72-30.34 3.8-42.08 18.76-71.5 10.5-20.66 13.67-31.24 14.52-48.5 2.77-56.64-41.08-105.519-97.88-109.102-5.11-.323-10.69-1.21-12.4-1.973-7.16-3.19-13.23-3.544-55.53-3.235-40.96.3-42.51.381-47.04 2.471-5.81 2.686-13.39 9.568-15.85 14.396-2.797 5.485-4.098 15.13-3.767 27.943l.297 11.5 26.1.5c20.07.38 26.48.82 27.75 1.87 1.46 1.22 1.65 4.5 1.65 28.42 0 23.77-.2 27.27-1.65 28.88-1.52 1.68-3.72 1.83-26.88 1.83-20.5 0-25.44.26-26.397 1.41-.871 1.05-1.094 15.08-.872 54.75l.299 53.34 2.61 5.5c3.38 7.12 8.86 12.62 15.82 15.89 5.41 2.54 6.21 2.62 28.38 2.93 16.46.23 22.9.65 23.13 1.5.18.65.85 3.1 1.49 5.45 1.45 5.34 6.34 10.99 11.56 13.37 3.69 1.67 7.69 1.82 50.51 1.83 29.99.01 47.87-.36 50.35-1.05zm-97.04-10.36c-3.32-1.47-6.82-6.79-5.95-9.05.38-.99 4.72-1.39 17.82-1.66 16.56-.33 17.57-.47 22.98-3.13 6.22-3.05 11.51-8.31 15.05-14.92l2.29-4.3.5-58 .5-58h41 41l-.29 4.5c-.84 13.1-4.2 23.09-14.27 42.5-14.06 27.07-17.88 42.26-18.81 74.73l-.63 21.73-3.27 3.27-3.27 3.27-45.73.23c-37.49.19-46.3-.02-48.92-1.17zm-79.66-52.39c-4.93-5.45 3.07-13.45 8.26-8.26 2.49 2.49 2.65 4.85.53 7.87-1.92 2.74-6.47 2.95-8.79.39zm16.93-.08c-2.47-2.73-1.7-7.18 1.55-9 2.36-1.32 2.91-1.29 5.25.24 1.8 1.18 2.62 2.6 2.62 4.54 0 5.36-5.97 8.03-9.42 4.22zm15.98-.31c-.86-1.22-1.56-2.82-1.56-3.55 0-1.82 4.57-6.23 6.45-6.23 2.33 0 5.55 3.69 5.55 6.35 0 5.21-7.47 7.67-10.44 3.43zm100.11-122.45c-.37-.36-.67-14.3-.67-30.96 0-24.919-.28-31.122-1.57-34.93-.87-2.546-1.32-4.884-1.01-5.196 1.01-1.01 14.87 1.919 22.96 4.852 13.82 5.015 23 10.927 34.46 22.194 11.65 11.46 22.44 29.93 23.92 40.94l.5 3.77h-38.96c-21.43 0-39.27-.3-39.63-.67zm-88.9 1.29c.19-17.51-.07-25.28-.87-26.25-.91-1.09-5.97-1.37-24.9-1.37-25.379 0-26.988.31-25.522 4.93.615 1.94 1.552 2.04 20.832 2.3l20.19.27v17.5 17.5l-19.95.27c-14.44.2-20.175.61-20.739 1.5-.966 1.52-1.055 7.15-.128 8.08.376.38 11.967.56 25.747.42l25.07-.27z" fill="#048"/></svg>