<svg height="575" width="575" xmlns="http://www.w3.org/2000/svg"><g transform="translate(-107.23 -241.31)"><path d="m-45.024 125.63c0 18.05-16.094 32.68-35.947 32.68-19.849 0-35.949-14.63-35.949-32.68s16.1-32.679 35.949-32.679c19.853 0 35.947 14.629 35.947 32.679z" fill="#fff" stroke="#000" stroke-linecap="square" stroke-width=".125" transform="matrix(7.9719 0 0 8.7691 1040.2 -572.86)"/><path d="m455.23 625.56c-31.56-23.05-41.86-31.46-53.41-43.57-13-13.63-32.63-41.37-30.66-43.32.52-.53 21.66 19.77 46.97 45.11 43.13 43.18 50.7 51.72 37.1 41.78zm-229.02-16c-10.9-5.78-11.31-7.83-11.38-56.2-.06-37.61.36-44.48 2.98-48.2 5.18-7.37 13.64-9.54 37.12-9.54 19.25 0 21.6.35 21.74 3.26.09 1.8.3 6.2.47 9.79.28 6 .82 6.57 6.73 7.13 10.74 1.02 18.48-1.22 19.99-5.8.75-2.27 1.55-10.42 1.78-18.11s.5-15.18.61-16.64c.15-1.9 1.53-1.41 4.88 1.72 4.17 3.91 4.68 5.88 4.68 18.13 0 22.66-5.17 28.64-26.2 30.31-12.05.96-12.16 1.02-12.16 6.56v5.6l26.66.51 26.67.52-.03 28.38c-.03 31.44-.99 35.1-11.03 41.84-6.12 4.11-7.71 4.25-46.76 4.18-35.25-.07-41.23-.51-46.75-3.44zm91.47-11.4c3.33-3.31 3.74-6.21 3.74-26.05v-22.32l-26.66-.52-26.67-.52-.94-21.44-.93-21.44h-18.4c-16.05 0-18.74.46-21.05 3.62-2.1 2.86-2.65 12.18-2.65 44.6 0 35.52.41 41.43 3.09 44.39 2.83 3.11 6.78 3.41 44.91 3.41 39.32 0 42.04-.22 45.56-3.73zm116.49-59.27c-39.37-39.36-71.58-72.36-71.58-73.33 0-5.28 10.47-20.96 18.9-28.31 9.4-8.19 9.67-8.69 8.77-16.62-.51-4.49-3.17-11.55-5.91-15.67-17.13-25.8-58.73-19.5-67.61 10.24l-1.32 4.42-3.92-3.91c-3.74-3.72-3.78-4.18-.87-10.25 5.33-11.14 14.17-19.44 25.01-23.48 12.31-4.59 19.3-4.78 32.46-.88 16.92 5 31.92 23.56 31.92 39.49 0 3.46 1.14 3.76 13.57 3.62 17.89-.2 27.89 4.35 44.34 20.17l12.73 12.25 11.59-12.03c14.27-14.8 26.03-20.46 42.34-20.37 14.58.09 26.08 5.12 37.34 16.34 4.77 4.75 10.92 13.42 13.66 19.26 4.39 9.37 4.98 12.92 4.99 30.2.02 17.18-.69 21.54-5.76 35.64-9.48 26.39-32.45 56.58-58.06 76.32l-11.01 8.48-71.58-71.57z" fill="#091313"/><path d="m394.72 250.47c-68.53 0-131.28 24.95-179.72 66.25-1.27 1.08-2.53 2.18-3.78 3.28-.5.45-1 .9-1.5 1.35-1.07.96-2.13 1.92-3.19 2.9-.28.26-.56.52-.84.78-1.25 1.17-2.49 2.35-3.72 3.53-1.41 1.37-2.81 2.74-4.19 4.13-1.35 1.36-2.71 2.73-4.03 4.12-1.37 1.45-2.72 2.93-4.06 4.41-.16.17-.32.33-.47.5-1.16 1.28-2.3 2.57-3.44 3.87-1.24 1.43-2.44 2.87-3.65 4.32-.05.05-.11.1-.16.15-40.5 48.38-64.91 110.73-64.91 178.78 0 153.66 124.38 278.34 277.66 278.34 68.68 0 131.54-25.07 180.03-66.53l.03.03c.39-.33.78-.66 1.16-1 .16-.13.31-.27.47-.4.94-.82 1.88-1.64 2.81-2.47.74-.66 1.46-1.31 2.19-1.97.21-.19.42-.37.62-.56.97-.89 1.92-1.79 2.88-2.69.86-.81 1.71-1.62 2.56-2.44.12-.11.23-.23.35-.34 1.08-1.06 2.14-2.12 3.21-3.19.32-.31.63-.62.94-.94 1.25-1.26 2.49-2.55 3.72-3.84.12-.13.25-.25.38-.38 1.4-1.48 2.81-2.98 4.18-4.5 1.26-1.39 2.49-2.8 3.72-4.21.23-.27.46-.52.69-.79 1.05-1.21 2.09-2.44 3.12-3.68 40.33-48.33 64.63-110.55 64.63-178.44 0-153.66-124.41-278.38-277.69-278.38zm0 62.06c119.11 0 215.78 96.91 215.78 216.31 0 50.85-17.51 97.62-46.84 134.56l-304.5-302.78c37.05-30.06 84.21-48.09 135.56-48.09zm-168.62 81.41 304.56 302.84c-37.12 30.24-84.42 48.37-135.94 48.37-119.11 0-215.75-96.91-215.75-216.31 0-51 17.64-97.91 47.13-134.91z" fill="#c00" stroke="#c00" stroke-width="2"/></g></svg>