<svg height="400" viewBox="0 0 200 200" width="400" xmlns="http://www.w3.org/2000/svg"><path d="m0 0h200v200h-200z" fill="#fff"/><path d="m5 100v-94.45h95 95v94.45 94.45h-95-95z" fill="#085"/><path d="m52.864138 64.995274c-19.63661.180238-37.13426 19.614437-31.86456 45.329856 4.01712 19.603 24.89233 45.0951 61.30912 69.80487 36.416802-24.70977 57.292002-50.20187 61.309132-69.80487 5.2697-25.715419-12.22795-45.149618-31.86456-45.329856-10.09216-.154747-22.716152 5.180713-29.444572 18.069527-6.72842-12.888814-19.3524-18.224274-29.44456-18.069527z" fill="#fff"/><path d="m68.699 155.41c0-.57 2.196-5.73 6.12-14.39.862-1.9 1.568-3.76 1.568-4.12 0-.37 1.235-3.23 2.745-6.36 1.511-3.13 2.746-5.83 2.746-5.99 0-.17-4.709-.45-10.465-.62l-10.465-.32 3.052-3.38c1.678-1.86 6.264-7 10.19-11.41 20.054-22.572 24.443-27.255 23.183-24.749-.608 1.208-3.627 7.633-6.709 14.278-3.083 6.641-6.074 12.941-6.647 13.991-.572 1.05-1.041 2.14-1.041 2.43s4.685.66 10.41.84l10.414.31-3.55 3.87c-1.951 2.13-6.264 7.06-9.587 10.96-3.322 3.9-6.782 7.88-7.688 8.85-.906.96-2.839 3.2-4.295 4.96-4.904 5.94-9.982 11.46-9.982 10.84z" fill="#085"/><path d="m146.39 53.759v16.892h16.56v-16.892h16.55v-16.554h-16.55v-16.554h-16.56v16.554h-16.89v16.554z" fill="#fff"/></svg>