<svg height="420" viewBox="-10 -10 420 420" width="420" xmlns="http://www.w3.org/2000/svg"><circle cx="200" cy="200" fill="#fff" r="205" stroke="#000" stroke-width="2"/><path d="m182.89 399.59c-.21-.19-3.24-.65-6.72-1.01-34.45-3.57-74.68-20.66-102.67-43.6-8.533-6.99-25.405-24.31-31.643-32.48-21.895-28.67-36.3092-63.67-40.5631-98.5-.99596-8.15-1.03479-37.14-.0625-46.66 3.6067-35.3 20.5596-75.5 43.7886-103.84 6.994-8.533 24.313-25.405 32.48-31.643 28.79-21.99 66.11-37.1874 99.74-40.6165 9.39-.95801 37.36-.95433 45.88.0061 35.92 4.0475 74.01 20.1444 102.88 43.4724 8.86 7.156 25.66 24.299 32.14 32.781 13.45 17.603 25.01 39.48 31.77 60.1 3.39 10.34 5.51 19.52 8.63 37.4 1.08 6.22 1.37 39.28.4 47-4.62 36.97-18.61 71.45-40.8 100.5-6.48 8.49-23.29 25.63-32.14 32.78-11.58 9.35-24.26 17.38-38.5 24.37-18.72 9.18-35.4 14.31-61.5 18.91-3.84.68-42.48 1.6-43.11 1.03zm-32.05-89.89c.59-.72 1.21-5.33 1.37-10.25.29-8.85.32-8.95 2.94-9.26 3.24-.37 12.3 3.65 24.9 11.07 17.75 10.45 13.09 9.8 68.26 9.5l48.19-.26-.14-5.87c-.07-3.23-.65-6.19-1.27-6.58-.69-.42-1.24-4.42-1.4-10.12-.31-11.47-2.11-15.76-8.61-20.49-4.5-3.28-14.4-6.54-24.08-7.94-7.15-1.03-17.24-3.62-20.5-5.26-1.65-.83-6.15-4.49-10-8.13-6.79-6.42-13.85-12.19-33.41-27.33-5.17-4-10.79-9.01-12.5-11.12l-3.09-3.85.02-14.15c.01-7.79.44-25.19.95-38.66.52-13.47.96-31.47.98-40l.05-15.5-51.28-.259c-46.648-.236-51.332-.112-51.902 1.373-.573 1.493.65 22.306 3.931 66.886 2.102 28.57 1.719 35.49-3.023 54.5-5.503 22.07-6.491 28.37-6.071 38.74.265 6.53.927 9.92 2.602 13.33 1.9 3.86 2.4 7.24 3.237 21.83.545 9.5 1.246 17.68 1.557 18.18.326.53 14.76.92 33.889.92 26.14 0 33.55-.28 34.4-1.3zm59.66-8.18c-.55-.18-3.37-1.05-6.27-1.95-2.89-.89-10.99-4.35-18-7.68-22.64-10.79-17.23-9.89-59.73-9.89-36.875 0-37.446-.03-38.542-2.08-2.714-5.07-3.071-5.03 40.272-4.71l40.27.29 16.04 7.72c25.49 12.27 19.6 11.17 62.85 11.76 33.43.46 38.01.71 38.91 2.13.56.89.74 2.35.39 3.25-.57 1.48-4.27 1.63-37.91 1.56-20.5-.04-37.73-.22-38.28-.4zm67.03-18.06c-3.09-2.77-7.63-5.47-12-7.14-8.59-3.29-9.53-3.96-9.53-6.82 0-8.27 19.08-6.19 29.09 3.18 6.03 5.65 7.49 10.62 3.94 13.49-3.43 2.78-6.06 2.16-11.5-2.71zm51.99 11.84c1.01-3.44.99-4.55-.12-6.14-1.15-1.64-1.12-2.74.22-7.25 1.02-3.44 1.45-7.87 1.21-12.55-.3-6.08-.84-7.91-3.35-11.47-3.84-5.45-11.47-10.5-23.98-15.87-15.07-6.47-16.79-7.92-27.34-23.03-5.18-7.42-14.27-19.83-20.21-27.59-12.17-15.9-14.95-20.54-14.95-24.91 0-1.68 5.87-24.84 13.04-51.47 7.16-26.628 12.9-49.083 12.75-49.896-.29-1.455-1.91-1.941-23.29-6.954-4.95-1.161-14.63-3.432-21.5-5.047-47.12-11.067-53.16-12.359-53.99-11.528-1.52 1.532-8.27 40.544-7.2 41.614.53.528 2.02.81 3.32.626 2.18-.308 2.56-1.276 4.64-11.835 1.24-6.325 2.75-13.916 3.34-16.869l1.08-5.369 3.66.58c2.01.318 7.47 1.497 12.15 2.619s12.32 2.933 17 4.025c34.92 8.158 50.43 12.047 51.23 12.847.58.574-3.76 18.316-11.3 46.297-11.73 43.46-13.21 50.77-11.6 57.11.39 1.5 7.75 12.07 16.36 23.5 8.62 11.42 18.32 24.81 21.57 29.76 9.12 13.92 11.72 16.13 25.29 21.52 12.16 4.83 16.76 7.51 21.24 12.37 4.03 4.37 4.21 4.84 4.18 10.84-.02 4.13-.8 8.15-2.27 11.77l-2.24 5.5h-5.98c-5.53 0-6.01.18-6.31 2.37-.19 1.3.17 2.87.79 3.49 1.21 1.21 17.61 5.57 19.93 5.3.77-.09 1.95-2.05 2.63-4.36z" fill="#048"/></svg>