<svg height="575" width="575" xmlns="http://www.w3.org/2000/svg"><path d="m574.07 287.5c0 158.27-128.3 286.57-286.57 286.57s-286.57-128.3-286.57-286.57 128.3-286.57 286.57-286.57 286.57 128.3 286.57 286.57z" fill="#fff" stroke="#000" stroke-linecap="square"/><g transform="translate(0 1)"><path d="m216.6 238.53c1.67-10.28 9.61-16.51 21.49-17.59h34.39c8.8 1.85 17.15 5.83 17.19 17.59v63.98c0 5.6-14.61 6.4-14.45 0l.12-58.31-2.86.11v135.77c0 6.4-17.2 6.4-17.2 0v-82.87c-.73-1.62-1.7-2.09-2.61-.15l-.48 83.02c-.35 6.4-16.68 6.4-16.68 0l-.32-136.12-2.83-.11-.12 58.66c-.17 5.59-15.64 6.39-15.64 0zm52.71-35.82a15.043 13.996 0 0 1 -30.08 0 15.043 13.996 0 1 1 30.08 0z"/><path d="m301.82 270.42c1.28-7.88 7.37-12.66 16.48-13.49h26.36c6.75 1.42 13.15 4.47 13.18 13.49v49.05c0 4.3-11.2 4.91-11.08 0l.09-44.7-2.19.08v104.1c0 4.91-13.18 4.91-13.18 0v-63.54c-.57-1.24-1.3-1.6-2-.11l-.37 63.65c-.27 4.91-12.79 4.91-12.79 0l-.24-104.36-2.18-.08-.09 44.97c-.13 4.29-11.99 4.9-11.99 0zm40.42-27.46a11.534 10.731 0 0 1 -23.07 0 11.534 10.731 0 1 1 23.07 0z"/><path d="m417.7 242.54c-10.13-22.12-8.86-41.67-24.03-50.95 33.84-3.62 33.54 22.35 51.88 52.69 9.35 15.48 14.1 18.37 29.22 29.02-16.51 1.69-35.63 4.18-57.07-30.76zm56.38 96.28c-13.3 12.68-33.46 11.08-47.07.18-11.97-13.02-17.42-27.62-37.55-31.19 31.73-20.93 47.27 9.95 55.85 17.88 11.24 9.7 19.34 9.1 28.77 13.13zm6.49-51.5v34.22c-51.15-10.48-79.67-37.25-78.17-80.47 23.35 30.49 47.1 45.5 78.17 46.25zm-81.13 49.54c34.31 23.89 41.27 17.31 67.54 17.58l-11.33 30.32c-31.2-.42-54.5-21.64-56.21-47.9zm73.91-113.45 1.14 32.78c-31.32-16.69-42.85-48.66-32.28-78.84 10.64 25 10.83 35.13 31.13 46.06z"/><g fill="none" stroke="#000"><path d="m196.89 170.31h183.68v234.4h-183.68z" stroke-width="15"/><path d="m288.63 96.725h.99v52.585h-.99zm-6.03 55.835h12.15v6.47h-12.15z" stroke-width="9"/><path d="m288.63 476.91h.99v-52.58h-.99zm-6.03-55.83h12.15v-6.47h-12.15z" stroke-width="9"/></g></g><path d="m287.48 9.1495c-68.53 0-131.28 24.9475-179.72 66.2505-1.27 1.083-2.53 2.175-3.78 3.281-.5.444-1 .895-1.5 1.344-1.07.96-2.13 1.929-3.189 2.906-.281.26-.563.519-.843.781-1.25 1.165-2.492 2.343-3.719 3.531-1.408 1.362-2.809 2.734-4.188 4.125-1.353 1.365-2.706 2.732-4.031 4.125-1.374 1.446-2.719 2.931-4.062 4.406-.154.171-.316.331-.469.501-1.162 1.28-2.3 2.57-3.438 3.87-1.242 1.43-2.442 2.87-3.656 4.32-.047.05-.109.1-.156.15-40.496 48.38-64.9061 110.73-64.9061 178.78 0 153.66 124.3771 278.34 277.6571 278.34 68.68 0 131.54-25.07 180.03-66.53l.03.03c.39-.33.78-.66 1.16-1 .16-.13.31-.27.47-.4.94-.82 1.88-1.64 2.81-2.47.74-.66 1.46-1.31 2.19-1.97.21-.19.42-.37.62-.56.97-.89 1.92-1.79 2.88-2.69.86-.81 1.71-1.62 2.56-2.44.12-.11.23-.23.35-.34 1.08-1.06 2.14-2.12 3.21-3.19.32-.31.63-.62.94-.94 1.25-1.26 2.49-2.55 3.72-3.84.12-.13.25-.25.38-.38 1.4-1.48 2.81-2.98 4.18-4.5 1.26-1.39 2.49-2.8 3.72-4.21.23-.27.46-.52.69-.79 1.05-1.21 2.09-2.45 3.12-3.68 40.33-48.33 64.63-110.55 64.63-178.44 0-153.66-124.41-278.3831-277.69-278.3831zm0 62.0625c119.11 0 215.78 96.908 215.78 216.308 0 50.85-17.51 97.62-46.84 134.56l-304.5-302.78c37.06-30.058 84.21-48.09 135.56-48.09zm-168.62 81.408 304.56 302.84c-37.12 30.24-84.42 48.37-135.94 48.37-119.11 0-215.75-96.91-215.75-216.31 0-51 17.636-97.91 47.13-134.91z" fill="#c00"/></svg>